<mxfile host="app.diagrams.net" modified="2023-10-05T08:14:25.897Z" agent="Mozilla/5.0 (Windows NT 10.0; Win64; x64) AppleWebKit/537.36 (KHTML, like Gecko) Chrome/117.0.0.0 Safari/537.36" etag="8wxlXq5ce4Yy4wW8yJMa" version="22.0.0" type="device">
  <diagram name="Page-1" id="A6qrgHNsoU4OGD-d9LdU">
    <mxGraphModel dx="953" dy="735" grid="1" gridSize="10" guides="1" tooltips="1" connect="1" arrows="1" fold="1" page="1" pageScale="1" pageWidth="850" pageHeight="1100" math="0" shadow="0">
      <root>
        <mxCell id="0" />
        <mxCell id="1" parent="0" />
        <mxCell id="QVKKsPcWav4qtCk2TCpt-1" value="" style="shape=stencil(lVnJchw3DP2auaK4Ezh7+Q9XWY6mIksuWXaSvw+YCVtNYPpJcxu18LhgeVh4yh9+3n/5cXdK4efL89Ofd3+dv77cn/LHU0rnx/u75/OL/jrlT6f84dvT890fz0+/Hr9e/v7xZUiOX9+ffo8V/r7guBOXgUrhn8uXTJX/+/D5Iv9wftzLV4rRyLcM5CPlauR7OpbvjSQbeQ5APlCz52ewfmvU7Xk4AvlEme35+7F87f48HaxfEzWx+mzH8qXP5XbyYP2SiPsN9s1Myeq/gvPkQsHqE64fKLn7AvumQuzsBeyb9L7r+o0qWj9RX+3FVIE+Vb6u8jFSBBdWQFovEAsVAYBIslo4bjY5AvxvoQnQPTO6c7RHUiUVdIfgSCJQx4BsvKhSAGETxbm1UCoAwCRrXJZMCVx6KHG9dGnTta4D+tTJBFT1XXQHpZbVDjVDtcZKsvpqVWdFR6o2eKpQRkcq1MMaDXHueQSIq6WbeitwvriF7wZokPAUEFYtNYaMqvElK4N1dW/kGhqQq6W76g1wRgyTsjaA2h6QngIM6XWZtHMVINb3OFEBJ+Jp1U2+wCv3mQM2eU2jKBgCSVoBffLgUTD0VUXMMI8rTYfVL1hdFdGeUFwBEiCxKqPUbgECHElTYVlJSSKsLYpQXcNNEky2Gr5GraIMANSqwRXMDgVyjJY7vFpa6vTFw3oqWEADO6hnptXS0iiiCq/bilABFbiGdJvS9UsG4SZsOUYBBdxBttyxAyBSEpd+dE+kVgUYUlJAuRXAwL3HkYy3ymT/w0t3C0Cl+VBrsQB4pG59KYYww/wIEZPdQtAWWogEdybkTNUFhMAcqoDiAIhnFGAqYlVcR+5aKTtnQuw9ItLsoJpGgGYznAKgqbXUcTugBKT/ttTXZyN35Ey53bSDUHAxish12JWdlvAO4u2ASpNXb96bGhlCbGE8nAn5hkyW2LsrDlJuFoAaVgVY3xCYFodhV72+I6pvRGg5kotVLPJwji6584zbozwXDaBPnz/KpME5bAR6atn2NIOs0CigTVfYpV5U6RaeVLcDRFSgeC0VmHq1W7dMU6DhtBK1UYrnAdpbmkJRARFVls2lrYRL0WgnOILb3T6T2q7s66iftoUoC5R3pKHejlQUbGLX4j4Bak2zednkI/Q77YNX2uu4SSw2cjSWGBig2pq1l5ksrgcO5fX8PcIRV59F+a5BTECe7fhDO1AkL/Y8owoHQaPNUnRNNMpUvruqDKsedWmTngd3oDY9TSLZjRoQeY02fY3jgguxuBHJblzSkJaqm69kSC0KMJkta0mAjuQcSelM0LikWbYbYyt0JDccHoMxTF7NANJbM6KyXvqN4Z4CzEBmjA/xUMkMQMc8BN3BVdA80/uhGVbfK9hXZapwOxCcxuhyeb1AmB3pOyfKAa7vJ9YB0q+fiAdIL37ijtf3E318fv9iEGDo+xeJMBv263TtXjy2Sum6vAuaAOnUv9jg2tG/CKn8TS9OARZR/kUrwEGyfzHD9mWe/ehOHsSLVhvO3xAHsdiqMcD0KmFWS6/ysD9w9oqTh4/kDZ9EPHtx8gn6pz9Pgi88/r5pJp536jPDls7bK8NBp/eHDDvAm19o35TXH6/Pwd/ODw+X1+T9/+3zsX66PD3nT/8C);lineShape=1;" vertex="1" parent="1">
          <mxGeometry x="72.46109014665763" y="129.62026389600362" width="43.370183628424684" height="77.9903206932346" as="geometry" />
        </mxCell>
        <mxCell id="QVKKsPcWav4qtCk2TCpt-2" value="" style="shape=stencil(lVbZctswDPwavWJIghee0/Q/MhOn1tS1M457/X2hKlRMSNpO32QaS3CBxTHww9vx6fUwBPd2u16+Hn6Oz7fjwJ+GEMbz8XAdb/o18OPADy+X6+HL9fL9/Dz/fn2aLKevb5cf0w2/ZlzMlNOECu73fJIo5b8Hn2f703i+s09C0Xf2vlCo+4BcqYQOENQlAFRPwXWAyJTKPkAcxR6QKonsA7xz5HpEFWLwJhFyPWsJlBkAEgXuARpX8CZ9gMs9oJCARGiYvPGgqQEcSqAgfeY+4rCdOqaYVi6QOJRjWpEAYYorNclyxTYgUS42EQmwjtHKb0o1epKqs09EzeQjIO2JjZiYGHBQdb7ftwBU8sBDzhR70lUTBwAlUexJF6EKSqjGdt+dhwI4iKdoAAHqWzJVA0itzvdK7r1LLIDaBLwLMBXkYSvTJ5Xeg8TWDPdIc89B5R0AQIUgRt5a5qhGU+uldwDB0rBPEiqoRCu5XhpSKWF5B8MhN3XtFpABMGUE0BI1AIc9bAJATbOqv+9LOpUEiI9jU/8yUrBadaZVM7QceVBxPlLqOQSmCjh4G1Uf2gDYtFf3xl57BnjQaiQWKLxV00tUgey0EHrV6QEonLLaGWDP1lCYBunJoQWgtOw3e9fobGdXBSzGHg3OIDa5jgIQNCe7XjgY/EnPYuLjUcGwbb4Lod0S/p+l8N/2+vGxgb6Mp9O8wN7/bzdWPZq3XX78Aw==);lineShape=1;" vertex="1" parent="1">
          <mxGeometry x="137.6787297220344" y="167.11641723196112" width="5.4758563532652715" height="15.01210735602126" as="geometry" />
        </mxCell>
        <mxCell id="QVKKsPcWav4qtCk2TCpt-3" value="" style="shape=stencil(lVbLUsMwDPyaXDWWbPlxhvIfzNDSDKVl2vL6e2QySSq3EcPNcbKxV7sru/N3p+3j27ojdzofDy/rz/7pvO38fUfU77frY3+WUedXnb/bHI7r5+Phff80PL891i/r6PXwUf/wNeByASwVRe57mPERAv3OPAyAXb+/AJQIFBQgyIw3AAVSVgBOkJIJCKwAsUAOBoCBNIeMgMYKWTZAClAccF4GpASsSZcEriwDIkPWK6Bz4Nwygn1bJqmDM4QIBLEBBCBeBngPsSlTBDRYk5RJs04M0agrMYSklfOQ0VwBnfYGQrY4ULtCQHCGN+pr1P4mYEsHHL02AuomjRVmihOAgQ3ScxEvVkiGmapMTUbFLFbkJiNMVaLR8UuRc9qubAt34eZJajaVq4HRdq2higZAIqnLVGNrsK6hjzoQDN6QurYVrVxtPcaW+CoQc3O77b4r5YrdLKX5el2luUEvAsp/ABTBaW9kEc4gjbGtUnaAltJA2hlJQmvI4Ns+Jolyxv/FF5oASyc0CFw5VXqC2ZTAaRt5NPlGiDo7hKbt0I/lmM4GGk+L2xuiNp1iIoOA7Lfo5NhN9fok+fOoYmy+T0oAGcwXjk2/2w33lcv37QVFpobLjV/9AA==);lineShape=1;" vertex="1" parent="1">
          <mxGeometry x="136.66246958111537" y="143.88289420823344" width="3.223075511652496" height="3.2248481794399595" as="geometry" />
        </mxCell>
        <mxCell id="QVKKsPcWav4qtCk2TCpt-4" value="" style="shape=stencil(lVZLctswDD2NthiA4Adcp+k9MhOn9tS1M47TNrcPXEWKAUtou5NlPJHA+5AD371sH543Q8KX8+n4ffNr93jeDvxlSGl32G5Ou7M+DXw/8N3T8bT5djq+Hh7H388Pl8rL04/jz8sXfo+43qDyBZXwbXyTEJr8efN1BOx3h2sAAYoBMIK0dYAk4GIAOQPXdUBDSHZLFYF5HVA6ZLulloBoHZAb9G4AQtCDpkmgkAH0DhhsiTJQNgBCBMRgrtDYr8ApaBqaXUCZxICGBMW23Hma2mI9QrUdi0APOp67m+sZpEf1YvttEtYzYLL1GXKgojpNb65X4Qb1hJBtw1UpziHFYhmoAjVgjDpQ9StIsIJy1l0PymLEsYrC9tAqlIC01CBZb6oROFCpAthaTXTQAW3Kg4sLDZCPNZcBKksn1BKuoGMVt4KE+ULFR55aTSIAAYkHtGCszXtBvRnFC0OxPHfVVsCC7sfV4/SFNW9apUqBEno/Oy/jlH8r2UJWRa2Ewi5+/6prDDQhPq7VOCX4vkzT/sd6btBsAyVBC4xWyPsm64SiNGLvTDVGFBY6kW450LypkeZubJDDvFajNzvUFGpasidtVuFyffUdI1BgY9FDPLn68LxUyXRXHzGglvqIzs/9S9Bvv9k/Tyfucr1MKTWLbkqN5fp+c6UADDx2dX+YG0jhida7P6A0+SgGoA1GvfdQNKP/vjz+HaAPn3fVp91+P151r//3d1t9Nd6L+f4d);lineShape=1;" vertex="1" parent="1">
          <mxGeometry x="164.076935133799" y="189.78324214335998" width="11.806392335707642" height="10.33008190070393" as="geometry" />
        </mxCell>
        <mxCell id="QVKKsPcWav4qtCk2TCpt-5" value="" style="shape=stencil(lVjLbhsxDPwaXwlJ1IM6p+l/BIjTGE3jwHFff1+qhtYm7Z0gNyfmWCI5M+Tuhu/enx/etpsU3o+H/fft793j8XnDXzYp7V6ft4fdUT9t+H7Dd0/7w/bbYf/z9fH099vDiByffux/jV/4c8IV4j5AKfw9/SNH4vL/P19P8S+714v4GCk2CwjEGQCEajEA7pT6OiBVatUChAIAcCUJFlCoAUDOlG3SzJTjOqAkiu5KgUoDAKFmq6RZ9bQOqJmSrVLSM0EOVUiyAcRKAfShpdmmCegUGcTrz9kUIqW6Ht/1axsfKAQQX6jYrgkkXm/EbO8jMOF+3YNOTQCgE0fb5UoRpdCp2pLmBHmkABEL0EtiQLfEK3mq47bawlL1iaiFOiDSSMKKoRUSQFWta7VJSP6o091eSbkSQNbSKTuqVqqAq6LcSxbQp55uk5sn1xYyBUxXtYBiyaGEFNCJ3GfZL5IQwFelQnAnFEoIoL/nAEwJlEkBzvdGI9AJbRrv0mqZDF7LoVi+ivoeAJRAzapa1BfAlQr7gaXsa4Cupc4iXgAKEETpXkF6pQhyqDoxm08a2UBlitGXNYJxotMh2Cr1AM34BkCdCZ3AcxgsgAwnnCadnajrNOjVsjpRNyqIGnWuCQsAV0mp4W1DJQWqNMgn/krINga93ZWwV6qA4pVE+2cl2kDSCmhODx2WVa/kfEka7PQwMuuVqoeOyrpQ7UJxaPkpxXd6SBSdIFcC0hPQAvdZwNiWXNJ1suv2CFIuXblGBTkIT1NZ5m6fol0DdDvkWoADZYxlm0MNsKx6gjNj7T2yGQUka/eZ4VIpyS8brIoDY1cnu1gusc56tDuEOZWXra/Mte52p8XrISoAXKnpjV3joELPM/a86CJX0lngFunIU4GrxLh6dkAPTJoBXz/OgJRr988CH7RNzd4ZpW7GaNNQK2ZL7oyHrj6mZqvojG2M01xELskNctAiuumgl0zgBG2Ts+IxYNAWOkfBEq9JoUXDPwFpPHRuatnHM2Aee+KVAFfc6JWj8RFILdzoQASkCP557Lwir8S7xe08HNfi3X3w7hnmt0t8xu9KvMzUHRPob/KzX0XD6MUHidW9iqKhFeyT73o+jtcP5xdLT7uXl9N7qcvv/Yso/dfpJRbf/wM=);lineShape=1;" vertex="1" parent="1">
          <mxGeometry x="189.2385829941652" y="163.68123100310856" width="19.774757208136407" height="25.58119988556166" as="geometry" />
        </mxCell>
        <mxCell id="QVKKsPcWav4qtCk2TCpt-6" value="" style="shape=stencil(lVZdUxsxDPw197ojW/58pvA/MkMgN00TJoQW/j0yNwfId6e2b46jPcnaXdkD3zwfdk/7wdPz9XL+uf8z3l8PA/8YvB9Ph/1lvMpq4NuBbx7Ol/3j5fxyup9+P+1aZFv9Ov9uX3idcInAoaE8vU07BKKPjbsp/jievsVnBnkV7xHddnwJ4KLiK3LZjq8M7/T3HSgYgIKkARzh/DbA0ecJZ0QkRCtFhtc9ShGpGgDqa8oF1Th1IRQNKHXu8yogFZSurQE5bQNimrv4CZAzGEQHRkoa4BDiNoAXyige2Wirj/BRd0nEaLRVlOA0INo8LAGB4AweliXJTjAA7dCsAI7h2G5r1iUhGPGNN10RwRsFNWFUXZBZT1OeZi2hZFvaOt4lVGMALM3DNFv8X/0ZItjQ9nIEyFT7vyGTA4qRoU0xzVpJ5pBpY1JnkJxs8SbS10ISf5a/ABaGtgBxCagIhj+5onZUk305yGxPWnzCvjVZm5i1uquHMxztfO9oocYbepWedDMmzHpcT4Dc2cGbI2btLrHqEWHqDnGeM67Pi97+cqJs+ROxs7/chgZlLoP0RZJmmawzlvr4XhKy+HpsPIzH4/RW+f5//ziRrelhw7fv);lineShape=1;" vertex="1" parent="1">
          <mxGeometry x="187.93282816035412" y="151.25928493136234" width="2.983992896924292" height="2.47215122692603" as="geometry" />
        </mxCell>
        <mxCell id="QVKKsPcWav4qtCk2TCpt-7" value="" style="shape=stencil(lVbLbttADPwaXYldcp/nNP2PAHFqoa4dOE7b/H2oCrJNWh6kNz04EjkcDneQh7ft0+tm4PB2Oh5+bv6Mz6ftIN8G5nG/3RzHk14N8jjIw8vhuPlxPLzvn+f716cpcrr6dfg9feHvjOtCtU4oDh/zE64k6d+T7zNgN+6vAI2pFgOQQoHvA0qhYgE5U5b7AGkUxQA6UysAIMQOUKiBGrTEYIvunSQAQCDuBhBDoAAQUShbRG+wiEql2fhMvYOiKbr4SBUkFCjbLrRCKaP4YPNvYVHKesHUbA9qJgb1qgZs/lUzRIQG6rYAFRYiKFZK0QLyUtN6kxNxugFE0AJlJPuUKuBUJ4WzLzqCUUj62gq1JmqApcQrbUNtSNo3tgDVHapBJ+VGeAyEIUqim85MBQC4E9uUdHQggCnfjHNHWs3ewxSQgGF0yi6jShF4XqLkhl9gF5TBYJvQIKdn7znHM2QoLjo+y6guTbmTv3PgGiGhaWHji/Eqotut0wGhuXqLjypcMMyle4oExldda+4Hi0bW44u3owAV1OLy+hKP9sc0heK/Dxjt6hTZ5d+Ad6kgm1vjS0Hr8bpRnddRBXzqyLr8I7a6q4V6Rgj+hQ65dSK1/Aysa9rAdiwvg3evaC/TBI8u/32a+gJALy6Ht5dxt5vPftfv/WFPH80HRXn8BA==);lineShape=1;" vertex="1" parent="1">
          <mxGeometry x="222.62383220939068" y="184.4625754803127" width="7.015748334716363" height="8.423100600902444" as="geometry" />
        </mxCell>
        <mxCell id="QVKKsPcWav4qtCk2TCpt-8" value="" style="shape=stencil(lVfZctswDPwavWJ4guBzmv5HZuLUnrp2xnF6/H2hqpRFyNpM3mQZKxDXLjjEh7f90+tuCO7tejl/3/06PF/3Q/wyhHA47XeXw1Wfhvg4xIeX82X37XJ+Pz1Pv1+fRsvx6cf55/iF3xOuBnJlRAX3Z3rjqdZ/L75O9sfDaWmfyIfOvhA7YM/Eqf++J0YOhHLvwDOFCAC1HaABNISUtgHeOXIGUSh46MKcKUaKKGoh32c16idQEEy5doCUqeA6lB6QPZUMALGFOAM06AAAnqSvHAcIkEpVegBTAWmVQjX2veRgb4jmpE9r0XYUAPDkjYf5kHcBpZDkDiCJGBSuxJb1GSBUQZayxtA3nzZLBIVLq7RqO3oECOS9BRRwpBhsHRSASCBo96+OVMGRfKJULCADD8XWTZOEHIQ79h4M6IoB6uxxw772VdaBRfaJpJ/OmuHsKCkmUzNNGUiQryQrgAMeQm0sOgNi6/X7XSHEsvIAcpo0hbyKgcEoRMthmiU0zspYIrYMDgGk9fGizv/1bsuDM2kVciBLOayCVp+A9FJq9LAcBZClyFahx2ED+ha4Sc2soDfFu99MpanZkjGAi9oYa0lJoFsj5RXnJTie0YRcYCc5CqbMDO1VC833M2VQNLXnz9hrQs3CoKqA+EIJw6xJgoctejv/qmwBlCA5qzujdKFGzXaHUXWOCFAbYy30PyEpVBkxAN1GQdtltn2XPxhnIemD1i2JgQfWEPs6jHsYKJwCUg8YNz1QuFwtJY27JPCgMZhxDgUun5olNgBPGXFYpti3t2e4kuRkm8/Py+IWwGhJaZvcFquGPqszzW7Zcz9vWmZkr2ujuZVg4WE7PDpN4PvaFUYVXNP3+/aJYjD2KF4Wu7E5KP7jqK/sQQsVsV3t4DolwSo5pgrhRp83e7Rl69Ui9fn35NB1yltB8HCb+vQt+EN7fbhduV8Ox+N0Y1/+b6/o+mq63sfHvw==);lineShape=1;" vertex="1" parent="1">
          <mxGeometry x="247.0306562410276" y="133.69608328006063" width="4.885236579983712" height="46.80828072641805" as="geometry" />
        </mxCell>
        <mxCell id="QVKKsPcWav4qtCk2TCpt-9" value="" style="shape=stencil(lVbLUsMwDPyaXDWWbPlxhvIfzNDSDKVl2vL6e2QySSq3EcPNcbKxV7sru/N3p+3j27ojdzofDy/rz/7pvO38fUfU77frY3+WUedXnb/bHI7r5+Phff80PL891i/r6PXwUf/wNeByASwVRe57mPERAv3OPAyAXb+/AJQIFBQgyIw3AAVSVgBOkJIJCKwAsUAOBoCBNIeMgMYKWTZAClAccF4GpASsSZcEriwDIkPWK6Bz4Nwygn1bJqmDM4QIBLEBBCBeBngPsSlTBDRYk5RJs04M0agrMYSklfOQ0VwBnfYGQrY4ULtCQHCGN+pr1P4mYEsHHL02AuomjRVmihOAgQ3ScxEvVkiGmapMTUbFLFbkJiNMVaLR8UuRc9qubAt34eZJajaVq4HRdq2higZAIqnLVGNrsK6hjzoQDN6QurYVrVxtPcaW+CoQc3O77b4r5YrdLKX5el2luUEvAsp/ABTBaW9kEc4gjbGtUnaAltJA2hlJQmvI4Ns+Jolyxv/FF5oASyc0CFw5VXqC2ZTAaRt5NPlGiDo7hKbt0I/lmM4GGk+L2xuiNp1iIoOA7Lfo5NhN9fok+fOoYmy+T0oAGcwXjk2/2w33lcv37QVFpobLjV/9AA==);lineShape=1;" vertex="1" parent="1">
          <mxGeometry x="257.1068665537716" y="156.32735221604594" width="3.223075511652496" height="3.2248481794399595" as="geometry" />
        </mxCell>
        <mxCell id="QVKKsPcWav4qtCk2TCpt-10" value="" style="shape=stencil(rVfZbhsxDPwavxISqYN6TtP/CBCnNurGgeNef19uF9pY3OwEBfq2B0cih0NS2snd6+HhZb/j8Hq9nL/ufx4fr4edfNoxH58P+8vxak87ud/J3dP5sv9yOX9/fpzfXx4my+np2/nHtMKvGSeVYp5QHH7PXwpx/Pvh82x/Oj7f2ou3j4EaAgRKbQRUCggQqYw7cKJaAKBSTgNAmCRvA1KmJCNAids2IJf+uwNSoQRcKpUKD4CcSXkbUNWzVDIJcElXeauJomwDmlCJA0AjpbQNiCFQCAPC1qiA19YoO0Cmgnyqnlf7IoDXKQi3g0KXVEnHVJuTBeyg0hP7pu+Fh63UheK3qCjXQrwKQitQUyNRT1MGO5Slwm4SoaDmSiFxNAk1IA7bIbkdmALQaw1er80aA8icyZlHgLbO2/sA+z2yZMlPgFa1tiIeICBo89jROskL5KElytXHoKiCKjXHUsQumdTGHSxxEblkDji1ZtiOTZterQVqyYJuziXt6tqiNTstNUogBs3E1QMaKGqThrIHqELx1RUAjcW6jkEhresJYbSmD0rUJW5R138CxF4ui1oTbDM209oYQ7WogFpT7U1lmXINTjkb7S7TJRCDTHP2BZQjRZDpaGN2lHcSOEeLb3yS4ekk9gm4nGaUGnBoNXSZu4cb6zuGLKKMdOQ7fe3lunEKIB1HtJAATUTu+Vn87235ffvk/bGGh/wpPsGBCrK3ztCcPZoiFh779dH0Nz5dizd7EC83P3QC7HV2lHXrRwrI3rpvcPYKSlKKPxZyPzFtHrbHKWsHBWxfRz1kyM8/30c+tLeHt8vP0/F0mu9Ot//9Zck+zRctuf8D);lineShape=1;" vertex="1" parent="1">
          <mxGeometry x="250.89147503209938" y="161.7764813477205" width="9.704382065898699" height="28.010452774725536" as="geometry" />
        </mxCell>
        <mxCell id="QVKKsPcWav4qtCk2TCpt-11" value="" style="shape=stencil(lVbLbhsxDPyavRKiqAd1TtP/CBCnNurageO+/r7cbmWbcneC3NYyR+KQw5EmeXjbPr1uphjezqfj183P3fN5O8mnKcbdYbs57c72NcnjJA8vx9Pmy+n4/fC8/H59miPnr2/HH/MOvxZcoZpmUAy/l4XaqLa/K5+X+P3ucBPPhTR7QKWm6wBh0uoBQq2uA5Kl5AFFKZZ1QAlU1ANsJa8DKhMHB8iBMjjBKIonLUoKqqQ8lpWZYgKASCn6KlECFPRSwx6fiAXEF4qeAVNB+TQKPp/QN/hvfOMugmt8AAVqiTQO+TBQUatj/kKJQbzlz14TlAFfi29DPu8QbqSeMFsHEECpedFxJQUtM8rBn2A1bYhzouJPsCIF3LRBpaYiBFDt3nBzQgVtM9kF37YYKaLBkTtdmB8hYUcS8YBCAmZ5Hs0BECkj0rEruQOUCvAvoyB+NDMxSihT8glFTEAplGHUMhodU00b4kMA8dJVdo0vaH+brEF2sJ42CJmH+vzzvrVJq3GoP7pwOFz43XRYQUU/jmixu/OFA8MbZBbRcEcpJcCi1NEuTLgBnGAJJC8783BkkZIpeN2ZgaCLmXW8+q2VgmZzbNzssohzr/nVg7FU8+gudkACCdlktjsCoEQ8To5pvYJ8wjg5syUDtwv9TXCJN13B/QeZWosb0ITt7/PRShnUJ4wNMG+KYDT5TqNCDPhK9/4bTSOrMD16hWroHVwR0Mces+/H28f15fyy2++Xh/ft/+NL25aWV7o8/gE=);lineShape=1;" vertex="1" parent="1">
          <mxGeometry x="251.90498441856494" y="153.25970219281317" width="17.040237591679897" height="12.938135159076182" as="geometry" />
        </mxCell>
        <mxCell id="QVKKsPcWav4qtCk2TCpt-12" value="" style="shape=stencil(lVbLctswDPwaXTEkwec5Tf8jM3FqT10747ivvy9UhaoBi9vJTbawFIBdLDHxw9v+6XU3Bfd2vZy/7n4enq/7iT9NIRxO+93lcJWniR8nfng5X3ZfLufvp+fl9+vTHDk/fTv/mE/4teBaJW4zKrjfyz++kAt///m8AI6H0y3AU8oKECqlMgZUT0UDYiLmMaA4ChqQHeU8BqTYX3dASRRADVJijQogbcgJACI5A2jUHAA4cskCKig6EzubUQTxTL7o+EQVsODJmfMDRT+Odza+Sj6gYOFMy6hGCjCf926s8Y4i4Dj2tyvFhRgwVqiFO0lUkI8kZADySVRAolItoDUAaMSmhEwVtDQECpqD0qgggKjU66Zyn+4RIOkaaqEIuiSyq7qG2Q4ADcJz0zyLTj1qa+1NXAFCJRCG8MB3o5nB5AjTrIv2blX7QEvJ2S+828FAq15LqeXuN4NZyOZ8pgziHXkza6IL0NM7L6oJd4i8UYVkCM7nrplVp7W7wcDritF1gv3JlNtH4rn1ye2AlLrQty+QYBmIsatqOyMmp1Ni8Q9kR2xn2ef+ze1bUwxVk5b6CaNbtmoS5IYA/i7O0PTY+K7y7Xi5oLS3iF+DDsl1YZwCz5j4SGQTH0D+MiKmXt9Vvh2fyWlNBGjv4jom/wjvP7EEb5YWKmiNknXA+BycmRuPWgsWb0UVyBSYzS5CyX18Ffw/QB7+bZ4vh+NxWVxv39tNVf5atlx+/AM=);lineShape=1;" vertex="1" parent="1">
          <mxGeometry x="273.6749029614248" y="188.0031108659739" width="12.430455779206568" height="11.973304509348509" as="geometry" />
        </mxCell>
        <mxCell id="QVKKsPcWav4qtCk2TCpt-13" value="" style="shape=stencil(lVbLUsMwDPyaXDWWbPlxhvIfzNDSDKVl2vL6e2QySSq3EcPNcbKxV7sru/N3p+3j27ojdzofDy/rz/7pvO38fUfU77frY3+WUedXnb/bHI7r5+Phff80PL891i/r6PXwUf/wNeByASwVRe57mPERAv3OPAyAXb+/AJQIFBQgyIw3AAVSVgBOkJIJCKwAsUAOBoCBNIeMgMYKWTZAClAccF4GpASsSZcEriwDIkPWK6Bz4Nwygn1bJqmDM4QIBLEBBCBeBngPsSlTBDRYk5RJs04M0agrMYSklfOQ0VwBnfYGQrY4ULtCQHCGN+pr1P4mYEsHHL02AuomjRVmihOAgQ3ScxEvVkiGmapMTUbFLFbkJiNMVaLR8UuRc9qubAt34eZJajaVq4HRdq2higZAIqnLVGNrsK6hjzoQDN6QurYVrVxtPcaW+CoQc3O77b4r5YrdLKX5el2luUEvAsp/ABTBaW9kEc4gjbGtUnaAltJA2hlJQmvI4Ns+Jolyxv/FF5oASyc0CFw5VXqC2ZTAaRt5NPlGiDo7hKbt0I/lmM4GGk+L2xuiNp1iIoOA7Lfo5NhN9fok+fOoYmy+T0oAGcwXjk2/2w33lcv37QVFpobLjV/9AA==);lineShape=1;" vertex="1" parent="1">
          <mxGeometry x="302.8846375498654" y="189.6606957219053" width="3.223075511652496" height="3.2248481794399595" as="geometry" />
        </mxCell>
        <mxCell id="QVKKsPcWav4qtCk2TCpt-14" value="" style="shape=stencil(lVbLUsMwDPyaXDWWbPlxhvIfzNDSDKVl2vL6e2QySSq3EcPNcbKxV7sru/N3p+3j27ojdzofDy/rz/7pvO38fUfU77frY3+WUedXnb/bHI7r5+Phff80PL891i/r6PXwUf/wNeByASwVRe57mPERAv3OPAyAXb+/AJQIFBQgyIw3AAVSVgBOkJIJCKwAsUAOBoCBNIeMgMYKWTZAClAccF4GpASsSZcEriwDIkPWK6Bz4Nwygn1bJqmDM4QIBLEBBCBeBngPsSlTBDRYk5RJs04M0agrMYSklfOQ0VwBnfYGQrY4ULtCQHCGN+pr1P4mYEsHHL02AuomjRVmihOAgQ3ScxEvVkiGmapMTUbFLFbkJiNMVaLR8UuRc9qubAt34eZJajaVq4HRdq2higZAIqnLVGNrsK6hjzoQDN6QurYVrVxtPcaW+CoQc3O77b4r5YrdLKX5el2luUEvAsp/ABTBaW9kEc4gjbGtUnaAltJA2hlJQmvI4Ns+Jolyxv/FF5oASyc0CFw5VXqC2ZTAaRt5NPlGiDo7hKbt0I/lmM4GGk+L2xuiNp1iIoOA7Lfo5NhN9fok+fOoYmy+T0oAGcwXjk2/2w33lcv37QVFpobLjV/9AA==);lineShape=1;" vertex="1" parent="1">
          <mxGeometry x="331.7734925303341" y="184.32735221604594" width="3.223075511652496" height="3.2248481794399595" as="geometry" />
        </mxCell>
        <mxCell id="QVKKsPcWav4qtCk2TCpt-15" value="" style="shape=stencil(lVbLUsMwDPyaXDWWbPlxhvIfzNDSDKVl2vL6e2QySSq3EcPNcbKxV7sru/N3p+3j27ojdzofDy/rz/7pvO38fUfU77frY3+WUedXnb/bHI7r5+Phff80PL891i/r6PXwUf/wNeByASwVRe57mPERAv3OPAyAXb+/AJQIFBQgyIw3AAVSVgBOkJIJCKwAsUAOBoCBNIeMgMYKWTZAClAccF4GpASsSZcEriwDIkPWK6Bz4Nwygn1bJqmDM4QIBLEBBCBeBngPsSlTBDRYk5RJs04M0agrMYSklfOQ0VwBnfYGQrY4ULtCQHCGN+pr1P4mYEsHHL02AuomjRVmihOAgQ3ScxEvVkiGmapMTUbFLFbkJiNMVaLR8UuRc9qubAt34eZJajaVq4HRdq2higZAIqnLVGNrsK6hjzoQDN6QurYVrVxtPcaW+CoQc3O77b4r5YrdLKX5el2luUEvAsp/ABTBaW9kEc4gjbGtUnaAltJA2hlJQmvI4Ns+Jolyxv/FF5oASyc0CFw5VXqC2ZTAaRt5NPlGiDo7hKbt0I/lmM4GGk+L2xuiNp1iIoOA7Lfo5NhN9fok+fOoYmy+T0oAGcwXjk2/2w33lcv37QVFpobLjV/9AA==);lineShape=1;" vertex="1" parent="1">
          <mxGeometry x="347.3290955576779" y="185.6606957219053" width="3.223075511652496" height="3.2248481794399595" as="geometry" />
        </mxCell>
        <mxCell id="QVKKsPcWav4qtCk2TCpt-16" value="" style="shape=stencil(rVnZchw3DPyafUURvPnsOP/hKsvRVhTJJSvX3wfMhrvD5k6PVJW3laZBgiDQOHgKn348fvn+cPLux9vry68Pf56/vj2ewk8n78/Pjw+v5zf7dQqfT+HTt5fXh19eX35//nr5+/uXjuy/fnv5o6/w10VOVULrUt79ffmPE5f+/cfPF/zT+XmLT+IV8Nnt4+1znPEqyvBhLHfD/6fgfXwRjYDPZR8fdBzvhm9K8Ant40X9Pj46CQ7wIRJ8kqyAT2T9pOIL4AuxZyriKuArud9snzPgG9E/V0mof6v7+BKkoD0pvkpc8ET/auYLiA8En+6cl/hDc2O5gQ/iiH1aGp8HPooS/VuROvtPHge6j28SZn9u0oj/Gx7WV3NoEmDqjBBAIkrhWzQQKFLYmZskiBkjCXboKhWcIo5j7QkAa3lbgl1bQTcKgfJWy1LnuAy2BNshi/ezY/hBZXueVEAgc7Madc2ubeSh7OLSsPpVwJbgAm5WKTXKdl0AvPsg3ExgPkPOopmfYb6H3Maeu1aaz1BUImFgE4jzDsZpkVupzBRQsmR+cW2OaWPBylTKI4SHQFV+D1nifA81iufuneZD10zzlAm0OeJqlUZ4pl3D5UpkOpTci2nIzC1IYjs08UCVSRLzJROY46GzM/PWOK7pynw39rwvoZJAJ87ftWD+MYHMEpwfZt8IMJW6c84h19mT7GAlAAoUqlInCYcCnhVJpnFBAUd2CHUURVsBYlZLB6WiQCBWspTWlh1YVqyDSTdWTWwDaWDUxvP0IK0NnkW0w/js6xPfdsh6pn8jBOAGTW/wrDC3OFHEBxKcDlOP4Vnj4rACaLwocUtgllHp7tjfLf7AKFgHfW5jgJzXYyLseNYY3dGfpTWPOecgiMMdezbib0HCcr+eNV4L91ZaCK80VylXe+y7Oi3S9XXhXVZMKfaxPR65/5RlfeqfqD/Pr25JfkZ5PL4i4lmVs3QJhuf6oz0LbUzdwm8Wj6RxdKO+38YjwV8Lpm18/Y/4svAtb+z0Gn6baqUwB62LRyTqoZYkcYdImyJLwzBrMQFWyKalsesCxOl6rV5RoDCrlqUITCOR3E/DcckbaUxU7gtUbOx61cjKfY8TEbtpNsKyGrAqHpo2FG7hOuVNvwXPfHG10eRhAh4ErCpkDYUbzv/ehsLhXOeoZXHD+9/bFLkxuHpv26WY0o4aO8Wa7qh1VHSNfNAU6dD4ve2vYq/ZG2zegEDh26tz1uPooOntkIAJ+GVIYLmOHdpjqRAzLUWax2o/KjdrwH458ORgAnAPgY8VLYIhffpKmc8EYAzhObd2joCRltICpu8we2sfy7FDR7SSRk4zAcdyalUWi4eATYW6o5uGIUEZbdIeB0DGyjw7JCSZRC/BmusIIzY6FVmn2YkSRp+WQ3RSP80VEy4f4PVpv//A+imPYf1Gf2LPPnBE+zB8tM/pA/aJSxeYaKoN68CS5sGwZKlEZ7TmXmG2T6Ts27uQAnhW1GpDf4t0NKMBuzqe0Sz8dMZfn4Puxxc2OZ6WqNcJww3OSuCKA29PO+SKtlH+UoSEq6N+3oMHgB8oMzuCo9OSay92gzNlGoaVG69Ae9eUAM6KCF1mJY6+cRke3pT40PPDb86HePtxe+D+dn56uryPb7/jg7j96/KYHj7/Aw==);lineShape=1;" vertex="1" parent="1">
          <mxGeometry x="349.8409952451948" y="126.82039172365887" width="47.90571754698726" height="81.29281572840421" as="geometry" />
        </mxCell>
        <mxCell id="QVKKsPcWav4qtCk2TCpt-17" value="" style="shape=stencil(nVjZUhsxEPwav06tRhodzyT5D6owwRWCKUOuv09vHC1o1m7HeTPGvZqje6a1m3jz8nD7vN3o9PJ62H/Z/tjdvT5s4oeN6u7pYXvYveLTJn7cxJv7/WH7+bD/9nR3/Pv5dv7l/Onr/vv8hJ9HXDSxOqN0+nX8piUx+/PNpyPgcfc0AmIbALWJZQqYwghQaRMBLAF0QImS2AlJ4jQAchaNBBCl6QCwKq1SwFRGQJCqBBB6xB2QTAIJSYuUOABilkJC0ig6ljVOkkjjQuspLoAiEzmh+EbjgL+dPH2ASUoDQJMoSyFLHYsUimTehuwAsT/iJABFT2PfkDKpka24GqSQ5+cqYSQSSkSoXUCz8fkoQTv/+xqljFIIACQCKJLGJiPjSjJuwes/1s7104DmeWeRNi1MS00WhPGYWtfWO3kGUtZWJY9UzZMEElODtsYTMvTMAMk3OmMkED2jrqF4gJEcKlLMHqCkShXcdiFpn4PnyKTJV6kwMoXOtXd9KCykIHHMwbIYqdJ8gpurmOVkriIHN+oNSbMcrFd9AUxSeR90lFxqPchzndbsAZmEBC55BU10N8xsHemN7cM6DT0U1ziwlZR1VpwDYF2RWQ9AcyGV3vtzAKcHg21gIRW/QSHRyPqA2e3orV3lpwF6QqKJsRU52ArA2Aob0nxImc/72lZJsxN0xaVGXcDVAHivNhqTpJIINTIWxDiXYIaYo8zm+4Cty7YoALayAYmUdebmuORgNJjfg29we1etL4BzzsQZjdkykhxUxZx9azSHEPoKXPqAE4jiVlsXhpKtOPXk1tardsYeup0LR8qeP1s1801g2wQReTOWpBLmRfUuHW6pMABGkHOsuJqQkFDyPIakla7QVPrcXbpgVNDYHe7yA7kVMvawCvzVZJJMTgAgr7Y6m8QzwBkNfr2yZVD/4wUOEberrogA2DiULlxCAYhj0heuuW8reQEYtQFz40a9YYMx05pq1/sCgAUkEwBccgrFUmVWPa3v9o1a9bSW6MQvNGktuUuIdSd4ULiPlHJN2rjWpnhNYTEYnZO+0Dpo2BmyC+T4n7cslwD48PZS5373+Hh8J/T+//4lEL46vkCKH38D);lineShape=1;" vertex="1" parent="1">
          <mxGeometry x="125.01426386267303" y="230.3407918412904" width="18.07153010686693" height="24.31678093525204" as="geometry" />
        </mxCell>
        <mxCell id="QVKKsPcWav4qtCk2TCpt-18" value="" style="shape=stencil(7VnJUhwxDP2auaq8SbbPWf6DKiBMhQBFyPb3eZ0pN20180huOXAbGr/WLj25D/nd15uLh6tDCl+fHu8/X/04Xj7dHPL7Q0rHu5urx+MTfh3yh0N+d33/ePXp8f7b3eXp74eL5eTy68v99+UNP0+41KXkBZXCr9OTXqTUP08+ngC3x7sNIAfpM6A1qZkAojSbALVLCwSQJM8SrEtVClCdAWVYdQ5gswTtEl8BzBI0c6OzhFlCKRKYDVl6mQDZpCYCUGlpBkRJTCV4fbYhqVQWhyxpVgnJktp5AN5n5lXSeB4Qq4Q+A4poIYC0k2CSSLbGIG3n1k7c2qTV+XyVRM7bC+cjsaBIV6+PEZ/mEdP1POJOzsdRWhuPVnI+jMpaz2cpRP8wrNuEuNPzwekTJFN9sktSRIRkdZQ4J0SqkjvJ0SF9PW8SWV36eCHJI0+4HmdApHUcm+icQXjCetFi4CwhllFG5zpFn2MAJQspy5K9DZV2Fg1icysqtMa0+omAqJAcQjfPs4vWLHnxfM2jRJ7PB9LoWtgVpRjxT1M/DSJPakzINDso8pnZw2iDmzJQ4tKOup9DhjpuDIAB5cZHp42uq6+c0sRIJXQM7TlqFscEOgfoswTDkDUKKLPRpjRwHZXlADyzu/nAWaPtEW7tO+4SmUpRSt8BiFtbH/1qo5KxiVZ9i4TRLJeQ3jV5t3amEsrd2VBoU4WEMKe3pcE1zgHcmLVA4wCjXbZqo3Oq7XgwulQnTaPvJi0AjHSCV6edBGUFZFJ2NmRWos1PBtBaJX0JBaQu0pHGIYbdPEeNRqZTF3O5geDzGnXDxIz3SvPjDQXB5iEC4fO7jQHwMgDjyUngvRLJtFepsQqqu15Zebra4AgbLynxEirItw1ODP8dEMa/1+wDOSOA2sZGtE6USNl/hYluXTBK9kAEyhyHhe0xCcEvVVhRWODgddfJIrgDkYCKdMkXlbZvODE4utdopMHeXC6BgdJtWP36DI7LCmihg47jYigRQERzdWtbpozsbc972/P+7z0PjH5uRXgDq8po43UrIFB+AQvMbW3YGUgEcvIMBjKVSCjJxwytiNWARn8hBAmJBEHXnN+2IuJVVT/W4GiW1lg9dZfXjNwWkLS5/+ZGE6nsVoCCSmPbM9rpnKqa6X0nAG4FwJBgbgXAX5AWuuwB4JY9DDrWsGFimlMD050xSeSSY5JYYY1JCL6hLnSXeSn4Za8jlKyi+xjEK6CNe4SXAW0sjyvglVvh3ZKxsF0mwXwclp2XAYpXacPAz17aZi+iMhFxaLABsFteNHZ3u9Ib3WMAcDwPkWOzEGxCXSBs8IFzAEfQu1KV/vmrx18A8OP5I8v18fb29I1m+3//UQaPTh908off);lineShape=1;" vertex="1" parent="1">
          <mxGeometry x="124.05788725526554" y="231.07101008072823" width="22.279255058099352" height="28.449562669022384" as="geometry" />
        </mxCell>
        <mxCell id="QVKKsPcWav4qtCk2TCpt-19" value="" style="shape=stencil(lVlJctw4EHxNXxFAYSucPfY/HGF51DEaySHL2++nOB2giASZlG5SMwsoJGrHJX74fv/5291F/PeX56d/7n5dv7zcX+JfF5Hr4/3d8/XF/rrEj5f44evT893fz08/Hr/c/v/2eUEuf/379HNZ4fdNTptLdZES/+f2S3K+/P/Dpxv+4fq4xVfn44DPzmeCD675AV+c+GN8zS4J4AtZvwaXC+BrPcaX6iQCXok+RVzKuD7hJ9dZ/0rWz+J8wvPKMT7ZZ+QzE35ScFIRT/SJxUVcPzWCD337t60vtV//Bh8JPrqIfGY9xofazXHDP+EniKvj+rVfyD7eO9EBb79EQpB9DuMFh9xNalegudZGvDolG7Ru7x0v4lpg+BxGfHWRnLg5GQmNQhlqGCDMpJR4pJ1udGAzWXZj6uq4fuIRQl0Z+cnBxXfhs6uEf9Nn5LN45wn/2uPHik+UT+MHAlY94bOBQYcTe/OAT90lDvBh1KdWV4gHT/aj5kJ0fUhImlwiHj/jTR/Kv4731YLzhE/zjtHhW6QZwxy+jg7fpP+yL6AueRRgjFpMTIoCmZjocmdtEiCcxoxZY1GJkGo+m2YBlpcqutnCEtkhR1emM9BM3LAyMAEWSEvulc/mpplnVnP0hgJCLs48q2QUSGwHxeBuAowllclaLboQa1WdTCP1q9x3t4oJv2Wa8Zv2zxuByhy6TcZnNSO5aROoDQUadVHfSVklKi27bAsFXpVmEROAurGtgfaIJgwbjVZ2prFOArRQKJhJNjzsS2SnMm3Bri65FqdDsOSQsBw3Hho7RJzCt/YK8UgA8vNiwewMcTpD6SXK0Rkw9pm9sgopY0pcPILtULBoPvO52lPsRiCxHXRnh8LCQMO+xZT03Ksx9pWzHRrQaqn4RADitwU3Vgm37vMbAeUCGDYaLf4XBaYowIoHO2KoKED9oezs0JjxvVfAyq+SkKVMWKrzoSvtgS0torXaTZMdSsMa2gRYILMSWycXZTWZFQ9pCgIsalh5An3kIkDikhVAddqhkDNYiVXCdAbi03F1+S1LhNallNb33IOslfA2jRKVwpzkanfafYHUXX7r07zdzlNCYfkhd0o2eDYA830csrmFQNafKw2h7hacgvPYjuQOIhatytv5iIZ90l7FfqFvbN8iVqwn7WHEwuqk/Yw4Hjlpb1Nv7t7YPicc15y052maZ/H2fyp4TsYLM56PL0z/kc+T8UjCPH4yfokYSU/GOxHT/sn4KPaEuh1PUfuB+zoZfwmOR5bxGrF/wd4irBPqIzyM+4TmgTUarP5Fw0nqleXruJ51OlO85X2/6QrTVqGVbCi943jFs+g8T3OFdnbztFj6ePqN02jhxjNNu4UGz3maztc338vIj7AqYnoNMDwbilQcHQm1nuU1A4a/1BktVgbwll6U71dyxk9DPH/tgWFx4LNWj7VooIMvnaJncIG5y/pY0PGe2r9Orz2ev54pRivegBteUR82q9TWY81GfzZD8J2OVzydOdjnCnjabHh8/QvdYPfxAbM1t58FP1YnQoOz6QPVxpoODs8L2avP147woH+kr5Hvfn09xdsfr0+9X68PD7eX4u13fBq2n27PyvHjfw==);lineShape=1;" vertex="1" parent="1">
          <mxGeometry x="48.71" y="350" width="42.45" height="260" as="geometry" />
        </mxCell>
        <mxCell id="QVKKsPcWav4qtCk2TCpt-20" value="" style="shape=stencil(lVfbchoxDP0aXjWWZdnyc5r+R2ZCClMKGUJvf1/RnaXIJGfL27LorC5HOrJX8vC2eXpdr3J6Ox0PX9c/t8+nzUo+rXLe7jfr4/bkTyt5XMnDy+G4/nI8fN8/T79fn86W56dvhx/nL/yacNap5DMqp9/Tm0qV/774PNnvtvsr+55INNhzJlUAyNR6AORMNQFAIeMAEP8EAij1GgAlkXYAqNRLBBgGNLIUAFqJEcCox6SrUgEATolSdNGEUvkY4cS1COhMJgBQKcesvdKI6mZUItVehwQ81EY8AIwM5KBCOuTQIUC8rjoCOggpK6U8Ahg0EwtxG5MuwIPXUKK9EoOq+vwMKWcSQ/Y1subEK/i+zpxe7CtZBgl7AhYBhRQE5ALRBw8C26Lw/PcF4CmDkFRJywhQ0BbV5ia4Cqk20Np9HGhznwBgbewjM0oVjuegYq6chj30oTGEGiDaeFaUC8AnHGhMY8pDqxrmwSjfDA+S7iJjWa907f1m6u8oQAFl4jq68CQSonpW0av57KCX+EYlBRbpRred5wIa41579oBiIy0sBt/HA2tLu0eo3LXdXDJy1MiF/clKOcr2woZ2loeQFs4AbOMxZuGU4TxYPDQsnGO8MVrUSXxQcv8tFumyij7aVDUG5MsR2Euah/2SMSRNKkm0Z2Kk2jIukgT3lDKpDPZo8rWPewfb++GipjviaWVee/+XryXq+Y56nhdG7GnMl++LEoUF98O9B/Nle3/4dwt42e520yXi+v/x1uCvphuHPP4B);lineShape=1;" vertex="1" parent="1">
          <mxGeometry x="126.60165725301817" y="390.2416148243419" width="3.913706628623004" height="19.880246899931763" as="geometry" />
        </mxCell>
        <mxCell id="QVKKsPcWav4qtCk2TCpt-21" value="" style="shape=stencil(lVbLUsMwDPyaXDWWbPlxhvIfzNDSDKVl2vL6e2QySSq3EcPNcbKxV7sru/N3p+3j27ojdzofDy/rz/7pvO38fUfU77frY3+WUedXnb/bHI7r5+Phff80PL891i/r6PXwUf/wNeByASwVRe57mPERAv3OPAyAXb+/AJQIFBQgyIw3AAVSVgBOkJIJCKwAsUAOBoCBNIeMgMYKWTZAClAccF4GpASsSZcEriwDIkPWK6Bz4Nwygn1bJqmDM4QIBLEBBCBeBngPsSlTBDRYk5RJs04M0agrMYSklfOQ0VwBnfYGQrY4ULtCQHCGN+pr1P4mYEsHHL02AuomjRVmihOAgQ3ScxEvVkiGmapMTUbFLFbkJiNMVaLR8UuRc9qubAt34eZJajaVq4HRdq2higZAIqnLVGNrsK6hjzoQDN6QurYVrVxtPcaW+CoQc3O77b4r5YrdLKX5el2luUEvAsp/ABTBaW9kEc4gjbGtUnaAltJA2hlJQmvI4Ns+Jolyxv/FF5oASyc0CFw5VXqC2ZTAaRt5NPlGiDo7hKbt0I/lmM4GGk+L2xuiNp1iIoOA7Lfo5NhN9fok+fOoYmy+T0oAGcwXjk2/2w33lcv37QVFpobLjV/9AA==);lineShape=1;" vertex="1" parent="1">
          <mxGeometry x="124.21795053814685" y="372.7717491887022" width="3.2230755116520413" height="3.2248481794399595" as="geometry" />
        </mxCell>
        <mxCell id="QVKKsPcWav4qtCk2TCpt-22" value="" style="shape=stencil(lVbbbtswDP0avxISKYnic9f9R4Gmi7EsKdJ0l78fPcNuyMTE+qYo51i8HF4GenjbP73uBkxvl/Pp++7X+HzZD/RlQByP+915vOhpoMeBHl5O59238+n9+Dz/fn2akNPpx+nn9IXfM08EBCcWpj/zTc5Q6d/N15lwGI9XhJwSpGQYmIHSNkM6SDMEYugcEAhKNYSqNuE2oRNk60RD4LpNaOIJTIB9m1AZkvWhJyDZJqAa0A1BGCQwKXdAa5KmpgUmZQIqniBBHjo0h9ebAF+gZYuvIDkwaDF3xSPkAJ8g2yx3Xl7cwovFI/QW2eMywB0oCGgBZovXCESqg04Wn0HihFXrMKdQpSqJcvNCKqHoXKWxhihwARs0R6hLP7hPkJukre3gLoE0azaqXaMaOK0vONl1AQrSjLz0hlV3FL9QINuwammmoB9lgW47nlYaRoQCYp2+6pobXdXHdXoiIFToDt/C9oJQsw9SCcSaoIjPQg6ycDMUNM0lkKoK2X6fNchB8ZNvXipUDuzhpdSvKoEDYX8WXzokN6M0xMFAaBnQelC04QQZVgPEypS0coIXuPmYalZakAMlsDVJZdgDUTAvGlizHIpUGy5aF2rsgSzPry5DjSYaQnLLSygK1WS19iSoQR3rQMLm8FEVS/Jbgl4E8ZR1S/nA9+j7FbKNDy6t7D6e/U5BIEH8dSFwgmhLAO7jxY+PdSZu4T+3bP4HQQ8fu+3LeDjMq/H1/34X1qt5j6bHvw==);lineShape=1;" vertex="1" parent="1">
          <mxGeometry x="181.62808378555064" y="410.2729872501677" width="11.113314649429867" height="11.448157464636097" as="geometry" />
        </mxCell>
        <mxCell id="QVKKsPcWav4qtCk2TCpt-23" value="" style="shape=stencil(rVddb9swDPw1fiUkUaKk5677HwWaLsGypkizr38/eoadkHauGLA3N9WJ5OlInQZ+eN8/ve2GFN4v59PX3c/D82U/8KchpcPrfnc+XPRr4MeBH15O592X8+n76/P099vTuHL8+nb6Me7wa8I1ymEEpfB7+iFSjn9/+DwtPx5eb5ZHplLMeiGu99enRFHs/plaBwAh6RbQKZf7AI4kNkLKlEEEFurZAjo1UENOxDYlLhQbAFTqNqUcqIIaClOuFiAUQUqlUbcplUhF7gMkU2oWIDNv24BObIUhkTjdB9RM0aYkBZ50bSRWSjVQBCw1oWRTqpUKYKk3Yhuh9flktgEqNSuNrrQyBHRLa2diHKFHCyiUUA2dkkupUkARGgW2gEYlA4BQdoAOtdQzFVt0DIFCAIjkm1pDNMRr8B2kgIC0saR8Q1MFRTRVn+NVKICmVoBrCOUhgaIV4GhSGhjM1rZWXyBBtOpUsbTqFgmdXKJia9AkMzqHTNw8IIKmVhKdXEcakL4rteZr+KDlInuWOu6gVv05VBDhRs03Ry2ohTTl5MWE7iBtyewaQnlFR11XKfV5om8DdKxED+hgfo+Daw0ALTeOxhUAeYG2HpZtVst/AkRKVhuqPjRn9NJqtgbdAolJxIupMhSTqAGyEfRmjeAcSvXz+3p3bwPi7C2Wq10jAJZGb+G8AMNZqe6lWLVmHYagaPVHwRmgNN97266v+znDlTIoWj1esEXzQvR2U+v94VxfhXdWzL5F1csmEEHmsbXcigyHRpwLXKQHB2WYZbYID+4efCcINAGriVegjQmr851t/p3l7pHBmHqfTISuLVLLbjkapYmaVY5mB3Zn77S1djDZi+8t7Ixkpvm6HHmKOj+FrssFeZZ/e9x9uFw/ru/Il8PxOD1Db//v35360/Rm5cc/);lineShape=1;" vertex="1" parent="1">
          <mxGeometry x="250.6500164056788" y="391.2036663534245" width="25.06642140859094" height="24.84236625301537" as="geometry" />
        </mxCell>
        <mxCell id="QVKKsPcWav4qtCk2TCpt-24" value="" style="shape=stencil(rVfLbhsxDPyavRKSqAd1TtP/CBCnNurGgeO+/r7cbmUvaXuKAr3Ja45EkcMhNfHD+/bpbTOl8H46Hj5vvu+eT9uJP0wp7V63m+PupKuJHyd+eDkcN5+Oh6+vz8vvt6fZcl59OXybd/ix4CLFPINS+Ll86JGa/P7ycbHf715X9oWkG3sp1PN9+8gk0QCaAhgAhII9oQXKAJAS1WIANVOOACAULaA0auE+gDMFsYBALd0H5EApGEBmasCl3LxLXKk0kAamngwg9RHom4CqHjcLYCogrLVRtpeeMwNOaLpftQCmBKgknarNdISJVmay9UiJAajXmTg5+wDS3AtxdPZ/snLb/ippgQTkrAtVW2tpUP22vcbH+s9UQTxjON/vzNORw3sHNLalRgk5JCT2AgJLWQOU7f5RCwPUjWbARShGCjjFtXoA4pxyyHMuQP1SkvbiAcgl0SxHFySUNWkkySUBsVTt3ZULRcA69ccpPFNG+/eRoktVSgURDaNfXKoASV1P3v8w1PW2fb5hj0h3Fs6LPVJSJXX0KlQR5TpxdfGMiNNXBMpYJbrvsBU2J7V3vUZg99OidP70UdX/xV7i6BJnlYuw0eg8EO0F5iED6G4VP1KwCi+gUE3ElhLaXeGQc3Zg1b8zUMbcKdsTdEJgcAfdz6mEziAMwsptSO1qymHAO05jRFnNUShxqjvd3qGpEoETZiGxAElUAPVipm5LR8WAAbdnqbVR6ngG6RSatxeQt+anKK2mAmJUfX+aqxv4U0Y/vTQPPIOwz8Hco8EFku/gszyhiHox1QAVwNPgm5PKQQGVo/3d7V8pg+5xNbHoCJCgPz7BGXI0jNNXjENF8K/Pob/b6+Ly9nrZ7ffL0239v3+r6aflncePvwA=);lineShape=1;" vertex="1" parent="1">
          <mxGeometry x="252.0097604620205" y="384.1007803587106" width="21.74486485111197" height="23.779833306145747" as="geometry" />
        </mxCell>
        <mxCell id="QVKKsPcWav4qtCk2TCpt-25" value="" style="shape=stencil(lVjZbhsxDPwavxI6qOs5Tf8jQJzaqBsHjnv9fWdrSLW49hR5czaclUTODKndxIf33dPbdhPc+/l0/Lr9uX8+7zbx0yaE/etue9qf8WsTHzfx4eV42n45Hb+/Pl/+fntaIpdf344/ljf8uuBUqltAwf2+PAhBnP/75PMl/rB/vYr3XrzOAC+l3AcEJ97PACcaCaBJKhPAV/EEEJvUeUte+5ObAG3S4gxwUgggNXHzlrKUdj8+Z6lzfJRE4ouKMycQdffj69huj3cSMokvtgZOHHl/S1KD2X8g+fFuvG8cIPQU3F6hSsozK1Q0EIBKNFtKkgkrcOY2r6BVHANoP2MHJGyJZRVJn2mUnTRyhpLFGxoVyuwSLC9KFEdWwPuaASDRpHJ5EKcDlrwRaqQgZa40KpMTEVsSP6+A2meypVhEk1EnpyscI8z0bkViJXwFv+clapRCSr0Yysy+6iWSyvnB5utCEEEAkOsMSFL4GYxNghuBFMKXTp0B8BxQbZYyjJNsCa5SmwWwQ6PXtLlwBZVmK6gUb8+ghEwwau9slhJREACmN5TxituAlbei0kxBWCHPK4BLzMlC6hIeAKU9Gm5tXKAm2q+Wnm/ozRucb9ZcAaiMrXCVZgGs0j5L9PbQzI2hB1PpGsSzM+B9RnFgKxt9tDPnihqZrZCsLy2Nnikui85ZAr3ZJAOJ2hVcz9s9iYY5S5BoZoDQPeIKUBlAxSe7JaqH1JM4AIGa8YcBEZKfKw3FeWICmCjNocGlRiqtg/0D4OjEhDaaTaNOvfb3RtBsCleoL+Hfbt5SgqRIllCmYgDgEmEryBxnI1OliivFFg69vrIJK3a5jCkx9/HjNmDY1pgdhp/f3lLtE9sAFCrRZQCLFtBIj8NdwAyuy/BNVkhjABsANHaygq4BRQKhtwY7YWGCikwP2dp99L3r3QaMrjwAgd6AcOExvhSVAnAPXd8HGFu1jy5X8Urio70YIz6w0WTFbaV3Sm/naLgUs3pni4yMsrnbWXGiJoEowdkRAJzIRJurG1+o/bJyJ95cNCBl1s+dVTJsn36YWF0oI52fg23meMLyHyWv4lk+P/ph5f/x+PHvK87L/nC4fAS6/r/96oNHly9G8fEP);lineShape=1;" vertex="1" parent="1">
          <mxGeometry x="116.80518884230332" y="462.8325050519138" width="26.703196580889653" height="19.535148207275597" as="geometry" />
        </mxCell>
        <mxCell id="QVKKsPcWav4qtCk2TCpt-26" value="" style="shape=stencil(fVbZUsMwDPyavGpsyfLxzPEfzFBohtIypVx/j0ImAbl039xUa0u7WtmDXL1u7142A4fX0/HwtPkY70/bQa4H5nG/3RzHk60GuRnk6uFw3DweD2/7+/n3y90UOa2eD+/TDp8zLjJVnVAcvuYvRUnSz5fbGbAb938AiVJx8Vmo8OX4QJxdvAYKYP9A2ecjSgXEK+Xg4plJ4uX4mEibA8RIMV8GcKbsAUJJAUFWAbt4KziAAhI18QnBfHKlGL0CVIEApVL1DMVMUi4DqlL1krFtIQBQST0gWVdVAMg9RVoogJqrdVHyNTd4QjHOvWilUWtAhULsVbAkBcksFLwMRgODlIzE1gGUFABMpuRZMikVWCEvKq0kFUjS2merCglabe3jVeZACewv/aiwDBVoYEbkrlMTLHiyulcZM2qjpPqMzKtotljb9VZmZE2h5tvUpiWIL2fDaxrHyMt6NrwMAKZdNUWrBzSKwPyNKXoAF6hBK4tN1vFYKIFpEcN5H5lzUE5mXS+bNniE5dRdOgULZ1WHzv2BIhDCeFVPk7kf3QrTreppaiYN6qW0eHcF1OUi+r9ZZdlvlTrgm8emdHfXTkeAqoV7g1oR3kC2+H1qPIy73fxS+ft//zSxT/OzRm6+AQ==);lineShape=1;" vertex="1" parent="1">
          <mxGeometry x="126.02137195865362" y="441.6880304221879" width="2.6404593096629014" height="2.649006450564684" as="geometry" />
        </mxCell>
        <mxCell id="QVKKsPcWav4qtCk2TCpt-27" value="" style="shape=stencil(lVfbbtswDP0avxIkdaOeu+4/CjRdjGVJkaa7/P3oGXIjJiLWN8fmkXg5h2Sm8PC2f3rdTYxvl/Pp++7X/HzZT+HLxDwf97vzfNGnKTxO4eHldN59O5/ej8/r79enxXJ5+nH6uZzwe8XVBCkvKMY/6xsSiPHfm68r4DAfrwAiUKgDMEPBMaBUwNQBAkHNY0AugKUDxATkARA4dIDEkMMYoJ8rdwA9IpQxQB3I0gMK1DQGBGnnNUBJEHgMoAARO0DVI5y0EoIYQIVcnTpAFWvvlSEBR2uPMrZnkD7iWoCcFBFQz6MaITj+IJDxhwCdBGHzttlLcYmNlhMSAR0SMSRzPrnxRpDaM8LPZ4Fk7KUJaUSIyBbgyUYph9l6FMkBKCWyDTl7N2QoxeY0OzqjrUQbQFrZRwDqs6Ss8FSgLpmglXaeDCgC3fA6e8Kk1g6vhBOcwoklHiG6zM5AbC9Ijn1o/l5FUL0IIBtlJrc7ou11lV3ibdFdFdlr1wipHyCi88Cxp9aaN3t2lRzv6MCj9WftVcpGBkkgOUIL2iv6CBJB9CLQAPuSxeCyOlbL6pDdGiclXV+0D97eJ6nYeaPtIzo3aJGon+LRzarURrJmj20C3bWvNw0eXZYqiYs931Ol9hEzELCN9Pv2GbgvAUFwWp2KtvT54Uar+/YCIiafyemMy/rQky63TW8wb250XP0E1dZ1toDJ3YmWvmkyFForGIVsRiBt6+0op4ZzOlDYc+mz6/J/APThYzt/mQ+Hdbm//m63eX21/hMIj38B);lineShape=1;" vertex="1" parent="1">
          <mxGeometry x="167.27334489973555" y="486.25326317145164" width="17.027775135749152" height="13.48996435919662" as="geometry" />
        </mxCell>
        <mxCell id="QVKKsPcWav4qtCk2TCpt-28" value="" style="shape=stencil(lVjbclsxCPwavzKSkIR4Ttv/yEycxtM0zjjp7e/LqUf2ETreTt4ch7UELAtox3dvT/ev+10Kb++n47f9r8PD+9OOP+1SOrw87U+Hd/u04887vns8nvZfT8cfLw/nv1/vF8vl0/fjz+UXfp9xjWJaQCn8OX8RSPK/L76czZ8PLyvzGKmN9olqBPZCVQf7QiHctk+ZahvshQrftudEKQ722i+4aZ+D99c80goA0v27AJhauw0omUIeAaWfuQmooUdkBVABAAuJA1SKIAmSqZURkCmDK4mSuigliiANLROrSwPyuTVvXykBlzVTHO3NJWAfwxRU6b+wfYCSiPeYgcdqSXAxLVQAL2YXop0JAE2pjicsToPasSQ4nznA4hTxTrNQAE5LpDRyOzMJuFLNnqolUAHlVoQajwAhBpkukfIIqFafINPZ0jRyuxrbgeSZZPB4gpTu1bYmVQpj4lqgDE4wEXOZtlRKASqpXSAugEYFZNrYr6MPGqmCTCcmdQVtJQsq2gDZCbFSQFdKlNUDCnI69gusAIp6SehkvlTcVRa2ZaP1sK+OaICuceoOBsigqE2pJfu4KmqgJozJAxIGRHclgewzgKsgrbCozek4AQLInIU1OqetgpB8a6/5FYBxqusESCAPRibX4ZYrYbpq8wBFdOUp0xU2CFN3H1aTPnQlA4ziatQIIKx2JaczBhCglea0U2OjNyNAJJkADflgyigeoOAEo0asEwAombFVpxOQ9Fk9eOnDw4wBeAprRvVQp8QJrrjaybziEupZHwZYHnRkq40fDQHYt9FmqgGk0iY8R43GFEBYbXgpbhVosCty8QUk3AffW509jVyqpq0gDzY7OGrURAGwtSS/bhQ8O5TWtfoyYTWqeMKqow/ZOjsIq4TeoC5DX4YlatOOjGy1pTGhE9RzyXQEDd9GhORGY+kVsg0ofgu1pQw19oXMTpdg3nQSDVsTA2C3sm8PdiMkrU0mFwSvA5NSLjWL0pD87L3IOQAYlfJIpWWoQ2QVSuxPQE7b8M/jbGINo6LZm/0wswx1IEqmATOVoPAZ01ymC37R0GldT1iLrSe6F4TQnwi2o+RlrMLngOhlEr+whF7s1006g18PfS+/qAUciKe1m2Hlh74iXF+TMjRnF3pI6NCvejVHuhX9dBRgU05dZq/maEFi3/4wkXNfbVbmqA10dVqZg0CKH6Ls7oCRH3wk/K+5fbi+Rz4enp/Pz5nr//v3S/vq/PbJn/8C);lineShape=1;" vertex="1" parent="1">
          <mxGeometry x="238.11873821994823" y="464.8882751229821" width="27.333485883386402" height="46.52225253429242" as="geometry" />
        </mxCell>
        <mxCell id="QVKKsPcWav4qtCk2TCpt-29" value="" style="shape=stencil(lVfLctswDPwaXTEkSJHEOU3/IzNxak/dOOM4ffx9oWpYC5CyiW+KgyUBLLAAh3T3un942Q0cXi/n0/fdr8PjZT+kLwPz4Xm/Ox8u+jWk+yHdPZ3Ou2/n09vz4/z3y8NkOX39OP2cTvg94yTSKBOKw5/5F6aU/v3wdbY/Hp4X9q1QtfaVuAH7TFKMfYyURwBINEYLGKkxAEQqwUYQqIAQqlCzLnGhgAHBupQiNQGARjFZQCOuAFCpVAPIuTv5HkDsDaOmFfCgMUTL21ipIeL0POtSSSSIh0wjW4B0KrcBmiVLXM1U8vsACSTZAoQYAbSW7A1aXRCgpWbTOtU7yFIMgYK9QiolkCZZUS2aB3DFFHXyAAFBtOCZEyUCAEqlHDxAAHNjotBsj17zsIlIqxbSKxq4QluyFA9IoIWipj37NFXgUuQN5gQBIjF7ANINFS6XJim9C7eDThRd0CPs6pS70v0HqN4Cdc2tq/UCUEBaC1O5CVBLnx+fdKmpDoVbgp6aVG5Jq1ZOdaWBiZsarHgAKg0VGs8DLj4Vy7RqOVTeNa5cwg00ybvN0kc9mlUtV7qBZCCp0IgHIKHRwRxWPYqkLKpciwcgsYxhgzkkx7cDcs/JckSA6ovF6/c0hJCSaelYl6Yxh25YLTQ6SCsSJq0129Q6qguSvrYC6DKAgy5WK7UekQoo065cdaFBtaTE8WplEhB0IXZLXIObru7Bo7WP8PzVIsAjCSjV0DeRxdqa0XDopy32YrQtlU7QYvFm0M06D/3C11vjk0WkAxU0DkcKNqERroesNczOHom2qlG0/odeg9v21a+foWvytjyOa/sA+NIlqYi3B+frpM2r8wG/NfQJc7VncP70KGFnj8asjij29g3N8UbF85sAv/ryjN4eDbRbX6of2+vH9Vn8dDge51f18v/+Ga0/zU/wdP8X);lineShape=1;" vertex="1" parent="1">
          <mxGeometry x="131.26349741323065" y="536.346832282841" width="2.7292794963086635" height="45.28990937452704" as="geometry" />
        </mxCell>
        <mxCell id="QVKKsPcWav4qtCk2TCpt-30" value="" style="shape=stencil(lVfJblsxDPwaXwlJlCjqnKb/ESBOY9SNAyfp8vela+jZpO0pcnvLUBKHw0Urvnt7fnhdr0p6e9/vvq9/bR7fn1f8ZVXK5uV5vd+829OK71d897Tbr7/tdx8vj8f314cD8vD0Y/fzsMLvo12mMQ5GJf05fhiJtP778vWI325ezvCDuji8Nsr9Nj53ku4MutIABoVpNG9QqabbBpxoVGcgSgp24Ebd+yyVGjCohao3aOZVBgadkj9SK6Ry28B+J3YGtkRTYNCJizfIMzJXDaTQ8DsYDYhWI7FlZ1CMVmDQmdTvUIy3BgxsB6+lLCQMtJeoe2mYz4CkYayqw9sCwIPBJBGfEb4Rj4BPKHd6jHKihvxVqhz8bUB2Y1D1sjPVIX4GDR8AywPk74gaEir4PBxSmRThlUooRpSBgIbMpFr4STPitwJWUjSAHnPMfDNgtIPV0xxc6AVKWjyllhTjNl5tuVBOKYP1DR8k1GBOGl58yBiWFTt/9YwWKkjSmSREgBKSBFOOKVNQilXSEvAJBVhm/E94xhJN8fwZ+WsKlsAPg/gaXiP/A8QrpxQP1EgQQSMGwDoJIkhJfAYodbT+J/Eqs/UuBDEsopov2ozOnLveZoS6T0nrfAx26Jk4NOMyv1xvlS1OIHXArJSLRtYsLYGB/VbPkmSoaxsfaii91svQyJJi7zPeUCYbiWE+6APGgZcDLMpgWHwPpcc7reYV2CG3OJzaBKComk7pL3idkbyujMnIgh9wcJQ4Bp466PUgzAHr1G1w+eI5JJ5t0NFwHVVh+ALKe6aqkaAKCE2z2S34DicWK+YBL7C9XhS7gW8fKQ6A1k9QAKybXQgItb8cJW39DU2Yn71t/R9vD6er3dNmuz3eDM//x6ugfTpeI/n+Lw==);lineShape=1;" vertex="1" parent="1">
          <mxGeometry x="142.58203751573387" y="535.7572474265235" width="25.40203920245972" height="25.548713900200028" as="geometry" />
        </mxCell>
        <mxCell id="QVKKsPcWav4qtCk2TCpt-31" value="" style="shape=stencil(lZfLctswDEW/RlsM3yTWafofmYlTe+raGcdtk78vXJWqAFnX8U6meSQ8LkBwiA9v26fXzRDc2/l0/L75vXs+b4f4ZQhhd9huTruzPA3xcYgPL8fT5tvp+PPwPP5+fbrsvDz9OP66vOF95IKj4i9UcB/jSqbo/i58Hffvdwe9v0W138tKAEAl5zTA5Os6EBM1VoCY9G/lKpAyZQ3IKzIAcqWUFZDkm2kdKNEC2VEsAGCK2qScieM6UDOFoIDiqQIfmqOsw1rEK2BSE5OqAqoAwGlmqkUBHCiDxAnAWkqcMNCslrh0r64DhUrSQCOPfIiUjQ8SBpCHtvRBVjIACjleAKAeWqDULBDAFyr3vM6cdh4AtWtzFlbkdC1WrZK4CMQnQFlIAwKSJi1vFv2CxIm8i644yYxDiYs9TRMgUUJ5qFR1AclKAWFlbytOgAYqToK4NKkCH1gMYBsljwDuFTwBHorPO2e7sZQIo5Kb6mUCpBs36ITVd+1VuxYmKybuRq4lwlcLNJC5tiiIWRzW1FSi/cQNvUbjdetxWCtSIw4pUnhCSGtsNhEOyO9uoCQbJjGygc6UU9f//AwC8ktTp5udcgwylyIF7UMu8NCK3jb8JA0aADLPBF1CUeIGTJJxJ+sTQiYcRvPMYr+DnWxRoZcBC2RBHNBSxQOcmK87cYLWeHs0BDzt9aFlMr4PEdfza8vMQTkUas5sj6hjk2ezHRW99/bMubF/itznzPGFgr/DWy8HWL4jmH5xGtzI1WTu56Rw9aoA7L99tZCH//eSl91+P15r5v/be4wsjXeg+PgH);lineShape=1;" vertex="1" parent="1">
          <mxGeometry x="147.42079167513157" y="555.1265133350964" width="13.026941072824684" height="24.845050776915286" as="geometry" />
        </mxCell>
        <mxCell id="QVKKsPcWav4qtCk2TCpt-32" value="" style="shape=stencil(lVbLctswDPwaXTEkwQd4TtP/yEyc2lPXzjhO2/x9oKqURUjeTm+yvCsCiwXAgR/e9k+vuyG4t+vl/H336/B83Q/8ZQjhcNrvLoerPg38OPDDy/my+3Y5v5+ep9+vTyNyfPpx/jl+4ffEq5WcjKzgPqY3mWL48+LrhD8eTgu8d46c6wg+ksT7jFqohI4QhJgBwVHwHSE6YhBTKSR9DilQACdkJt/nkCN5QIhiQyqJqr9PCIG4J6gMDhB8bSnOBKECQvKJsjmhUsmA4CkVS6gCZKUcLZ4BPlqNNAOYMuXU4zM5UGa1hYmHKUO8KXL15BKKJ/T6iFB29/FsCyCZEsBnktrjI9WKWo1KsgRk67ER3YoAKuZllUIiDyRSjYrYnAsicLPYQtQKRFIXGYJWjYFKSsiGoGeCeRRWza++Y9TLjuLK2LAOuaW46BzkDB+o9s2/GLObDGnTZ3FCLvfxyXpbU0hIpKb5QqMC8G41WyJF4IvVEtEqo3nq2umzjfAsClSMsQt5mO8GHvla12YfUM54g7CtWIpw0Sb1WF+CGOC4zitPMFMEnaMr7O8anhdzgiIVId+HNC4hkLQu5tRPsEIBL3JThkQJbShpCc4awa4ptd1U5ozhhBdvZ4unCPKVVZEdjF+Hp2mzeWdt46UtjBse5atNlaLBM8JvxI8sV/USlI2eMB71Q4/nZvJtvLQFf6uvoO//52X233h9uN2cXw7H43TxXv5vb9r6arql8+Mn);lineShape=1;" vertex="1" parent="1">
          <mxGeometry x="173.94799466763652" y="568.9021312529055" width="12.262639588345337" height="19.357602066024356" as="geometry" />
        </mxCell>
        <mxCell id="QVKKsPcWav4qtCk2TCpt-33" value="" style="shape=stencil(lVjZctswDPwav2J4E3xO0//ITJzGU9fOOEmPv++qHioiZG0nb46CFYjF4qB28e71+eFlvwvu9e1y/r7/dXh8e97FL7sQDqfn/eXwhl+7eL+Ld0/ny/7b5fx+erz+/fIwWU6/fpx/Tm/4fcVFKX4CBffn+qBKiP8efL2aHw+nhXkTHwbzJC1tm/sqMQ72QWLbtg9ZnA72Xnzdto9BWh3snUTdtk/BnseJc9v2efV+LyFs25cobaQTD4h9zeKjob/6bXvNktJ4niCZ5Qv5bSOg9hTezpibGZlTljppt100CaOLWKRmAvD2TCmLEg9aOikdkJ14IiN1ksYYchItJA9RahkBTQoRdqmWpZIkkSMVJ9kAwBvxgBPXEVDnXN7WduskzoBKaUUxtBGgSQphCR7qWA0gmnWLXKS5FYDoG/WgxkOmBYcQy9iQIBYlHaOqqDlSE8cATeIoPug3c4AbY2ipV/nWkUwTaEUS81D6AWaASiQVV9MK0HgM6JMjrYu+cBvhVlGjggigqLhsg0hEG2UmZUFTJlGXbEsOiWByBSCM3XVqVYQmAKpRHwYkqSDEoON8g1wbi0HtfJ4KgmXOrY6E9s0SF20nA8AzMeEAK4DyGnXNBh2YBwjBsKR9xmyVXBiDbjMNmwBTcpF7UMnGA3LPirp2EmcARjvzMOd1UUCUpWh3JQCYliAN0/oAYImbxGc8oHuyIfdZQE52HwOtbJ9JKJdmAYyl5PqCumgCbIxG/NscKdCNKTq7O2igtMKDjjF89OetQa2j+LB+sN0hobeOQRe8grCUoz1S1l7lW+uMaZV4Besa6HxmnUmVqxXyHoMGDZWwBNbLWHEgmg0UrV0586bL6wHLi1kFcF9h63r1tgng/sAGdfHiRg9Y1xsZKNnbPPjcm+eWliwAQ5F4iNEu357fB0Kx6wwAbIr6ZisOMXh2q4QQTAyFbuu1D+XZXmnesq0GHNGxrtQ3ncX7G+sxEpO1Z7tS6EvzQhVKkux7Rhf8MHvX96hFAgqRqbNfASYNkQyvrpTIoBL+59vdbI+yIRp1dux4vqx6SWO8Sus+WPNKrxif/KTyX3P8+Ph683Q4Hq8ff5b/t1978Oj6pSje/wU=);lineShape=1;" vertex="1" parent="1">
          <mxGeometry x="220.77536937530112" y="553.1507570987071" width="24.790139050357766" height="21.96855174773964" as="geometry" />
        </mxCell>
        <mxCell id="QVKKsPcWav4qtCk2TCpt-34" value="" style="shape=stencil(lVbZbhsxDPyafSVIUedzmv5HgDj1oq4dOE7b/H24XWgbyvUUeduDI/GYGWnSu5f9w/NuCvxyOZ++737Nj5f9pF+mEObjfneeL/Y06f2kd0+n8+7b+fR6fFzfnx+WyOXpx+nnssLvFZeJ2wIK/LZ+iEIS/3z5usYf5uOHeFFq7ACaKIXbgFCoVQcIjQrYIQYK2QMyqd4GpNLX2wBCBaRUhKpPSSIE1EZNHICpghJaoFSHeKkgPpEU31RiFF9I/dQaBZB/a8TqC7apFAiofoNQKeIdhg5po5hwSr7kaEuAKVvN0dMiVSoZNjUkB8iJmOHUsk8pV2IBAO7rbQBLErS1FkoDQCkCItXUm7gVjbVQI7HvUsx9Mv8GaM94G1yGBmCA4lMKxl4wB0up+pTEAEhtmbInX+lF3VIn+4wEq1PG9RnzIpLGYf2CmJqpeC1kqkgKldLQIGsZ2sAM1NMoGAB0VPiKqebapcEtoq/ZeJSQJdVRz8ZURhZjv/0OpoWA9KyUBj1vNngTkD8DKNq72AFVKAJmmAMN1F4UDrpkZ9twehoZkQGY7Wa/g7lUAzuIqdd3yXxQkZ5Jh4watNV8RVbG8jFqemIsfAdk1auEzASBg0k/ybZ4hnJjap53ZrIC1mcKfv1i+cP4QWoFj5jHgWXzG9AfHt3F7j8J1GtuNxwhQgm4SxhPclN+BvXGfjHY4vHl5bM3zv/H28Pf6+3TfDist+OP/8frsH1ar9J6/w4=);lineShape=1;" vertex="1" parent="1">
          <mxGeometry x="229.2359982689129" y="559.9754237885177" width="18.34781680146216" height="4.4510274113793" as="geometry" />
        </mxCell>
        <mxCell id="QVKKsPcWav4qtCk2TCpt-35" value="" style="shape=stencil(rVvbUh03EPwaXlW6jqRnx/kPVxkHKgRcmNz+PqMQLUc9e1pQlTd8PL0rae492pv06cfdl++3N9H/eHl++vX2z/uvL3c36aebGO8f726f71/0r5v0+SZ9+vb0fPvL89Pvj19f//39y5Acf/329Md4wl+vuBRc8QMV/d+vv3gXy78//Pwq/3D/eCkfXU0gH4TIZ1cayHv2fHGC6/GByHfnzfP9dfkcXRKUb0Q+u1w/sN8sruN6Yify3fUC8pk8vySXOsgLWX+pLqG+OjkfCU7yIh9ciEReXGwgn4h8DS56kC9MXlC/ukByns27GkC+JSKfXcf9/vfDuXxzstpDdJ7I9+BqA3l2nj1Pc7mQJ/rtMt31TZ75b2+u4fMLOc/gD3+agEQNtPepnymvHkQUoPLw/EINQjdQVoMWF9jzm/MoX9n6Kzp85etXh1+f31xgChCXPch3Jl/mcqe8RgxuQH2VD8H5SgHoYZFrODkPb8gukBitPgBHFIrrxOi6OvFq1KHRPbTu8urFGuYSCXPqxh4A0Qk51iZo1jHzQFHQjtSQIntDdgkihe6KHGtLmLo1mTPFtThD4QFI/A2aLNdgmsoM9+eAgNkvVZpeFdBgD43mpxZMeFFjYceq+WW11swjngJAcaMG4HuAkkKLgMyXFADQOMBPlz9ipN8BZNV0iTSKKSDBG/LuDRi2hdpS7ZiYS5vndg0APi3cpxUQ1zeI5k4SNRTgV01LorG4NjRvKbT6GgDYQ50udRWw6kE0YbP6SAHrpqufx/BewGHw71xS1VC5ecMavWtywjXtYUl5VqFXAasD1TLbjGuAAG9QayVBYABgD3UW3lcBa1zSY2CF/7BWONa+s9a42lLjrdQAVAQ0viQI9yPa8mOFyKcZI3MXzfCGtNtDjgjYmAa+YWtL0CBp5i4cAKbReLgf/gB6qDtAA023mcSuAaBGbIc5XgUkBDTu03UN9533qQOwKk6rQFan2z30ozZ45yn1SPO0DcZaye7ygyCgcWsNa37Q4rrwpAhpV8v9wI0P2s/RADJb6nPFB6DShlUBJSOgcU1Dx6otV2KndDRsFwAaZvTUGwI6syVT/vROT0mTLJTSCkjENESwf1AA07RWFlBrjEaZ6KF043GdFrqlGE0rgASBYipjBTBND27L7KGTTWulHcweWIH11i1cAogetOOBamYD0O6/fQwQkDDZAIIWCsY0KCAhhbMB9FlNXcoTvQkWPxv5gOXYBQl0CvDYk40XEIf2SIEMeeLPfobpS0MlZuRPnJNxPqaXGb7Jn2/Ww0oGj5Wbymf6/GzOM9HzbDZ6kfUclO675bNZP2vdArZ6Y79Ev2dOzIJpdN6sn3UkZ/IslJ6thzVhZ/tlcfHsPGmEQH3tHdIaBCPczgyOxekzg27UQK3DsNR06pBc3mZjuh4bUFjpeBawWJ9zFhBZSWQibj+6kv9F/iwDsPLmLMMw+dMURgFnSZKFlJGGTWVAAXIWFFntcZboWVQcxYqpMhm5k8/iUOQFly3p2DRIS7pkTokR51o0FlO8s1RcDEeggEqOVeIc51wAWDMrBSeKnROFUnFkrADW10k3gErDYw1m05VOFWs66booQSVIKnQ+dlJAAoC4yvo6QdJZW03aX4sJwoUzi8W4aOabLjjm0f6azbYUIAEBkZ1SmWH9giMoHJAgM/D58QB4BNAOvphQuWFSDGBwNUxxxoFapyPJsQfLN3E9IMlWP6i4JpxvKkg6t0IrjCpIpyqA8hwy/euCKKQElSCpsOMuZbIa72VHxbByG/5VDO+3YXhNUtxxyDIL3/ey1CZl7XhwwbS7Y9rNwH3H5ZsrObtpgUnsu3mEAmAPm4lHRQpsN1OpM6gcgM3UxgI2c6GKGWg3eaqYUHazrYpXf8b0jO8BYuuYz3E9gE+PCSAz74qFrvg5NLkGAA55TDE5rR1hEiu0MlZAWfVQMveHNkm7A7AdwoCmi98BoKoc82oOgEt/eTscxqk+n7mPaTK8Ie4mgNDT5+Om2ClgBMY18qVGM5ACwLxHg0CMTwFwk2ncrmBD+oBtbkq0pWmGmNAmhxlfi6i4yFualtCBYqX32zTJgrXGzC/oCc5Uxo01dkOk4rGOdp8prqEtaXfK+NFRf61FYiiUOO8ec5w2zIwgHbcG4VZipNcqtayFa6HBUwpKAVis0/ZBC22sEWnbNyZlqzdUeq9HWwUYw1Z+jS7j+nkRoL0LHNBGZQV1zG8+afcFjpD5Pcw6O//DNTkjY5qryK/QZaTcIt9vwAo9Uv02cw0zUsp8+L0HecYCjOCI91o3XZI5H0beaDXUUZ5NzMfAD/frGeMW0F8CzR5aFXRwYD7tS2ZIQ2+15Y76CjSKasIuuH6WwXNGijHQukizLzTagU5oNZdiRKR9iKbSivul3ykkpHiOi+rn8tFcgqVUXgrYDAZaaCZDOYXJuZ/Le3Ptl9qzygueP8vbKp/xPD2XBxKC56Pk8fKen1n5qjx+18A6LpUHvszTkV3yaP9+Dm2uyTdc/4ZtDrh+ll8+/J3OVl7/ePso6Nv9w8PrN0WX/48fEelPrx8gpc//AA==);lineShape=1;" vertex="1" parent="1">
          <mxGeometry x="272.1245270462914" y="340.27753874456425" width="84.5767687483849" height="257.91445006242793" as="geometry" />
        </mxCell>
        <mxCell id="QVKKsPcWav4qtCk2TCpt-36" value="" style="shape=stencil(nVfLctswDPwaXTEkAT5wTtP/yEyc2lPXzjju6+8L1aUrQvW27k22sAKxWCzJiR/etk+vmymFt/Pp+HHzdfd83k78bkppd9huTruzPU38OPHDy/G0+XA6fj48X36/Ps2R89On45f5C98uOBGKcUal8P3XPyT55x/vL/H73WGMrzLEN8oBxFeKZYiPTC3eBuRIoQ2AFIgZADLFNAKUkgJAJR4BbEWBmrNSCSNHgSooukQSR2qlADIUpjAuKTNJBQDpJF4BSiwAUKiOgPkTgKWaKIyAKlRA46rRWkdlRGrpNkBLb1MHqOUES1L1GZSpAFoN0BwgQy1p7UK4AgopysCUxsZpIwaAZn0Y52GuqgFatStnAVBQQw29r0sAkgZTFA8Q0LhcuhAWRQueaR1n2ogOIIOodxlrnICJy8GbgHWmohrY24yJLyITaN411IgugNZMaczQtNPw58aZltgD0MTZfHH2gAoytNZfL2oQAFBZzUOkgma69deLPkRQQwyBwmiuc1JgfZbCa6OQoKEWUucClRQUYSyG1QQhY7JGOHOdnQd5JfsdZcHDLTV5YhV6n+nVpZiJQ9uiyW9FU8YjlFZTjQCp+FabuVVAU7puIFdAIAUsRaU8jpDxlsGQxkplbLXtowpYitaHsegsUBt23OFxSXYWqGhJwRctEW+8pKP4OGNlEI8ls5knIDX5NltbEjCN4LeTKH3fvhHvVIFPlIGK4xMeWG2t437LcLvl1WESrr105q61Qj+13rpzXsBasCNXcfEJxav3a+wqxp3qHfGmFLdr4vXMB+t76mUzLbmDT4neFXG7hPvn/k0N/3E7+ku8Pfy+ir3s9vvLTW753l/d7K/LtY8ffwA=);lineShape=1;" vertex="1" parent="1">
          <mxGeometry x="202.98594374560412" y="264.47780438407176" width="6.02382820484172" height="29.19655661467641" as="geometry" />
        </mxCell>
        <mxCell id="QVKKsPcWav4qtCk2TCpt-37" value="" style="shape=stencil(lVfLbhsxDPwaXwmJFCXxnKb/ESBOYzSNAyd9/X3putqsaHuK3NZrzorkDB/ayM3r493LdsPp9e2w/7r9ubt/e9zIpw3z7vlxe9i9+dNGbjdy87A/bL8c9t+f70+/X+6Olsenb/sfxy/8OuGYydoRxen3vzfU7O+Lzyf7p93z2r5RqZN9o5qu20uhMn8/K+V2HVAS1eCQkGYAEGo6AzqlAgCVepoAwlTrdYAmSrNL0ojBCeouzSeUTCYA0Eh5BlQy4FLNVOYTlCkDHqpSm3nzMzOIoSUqc1orE3cAUEp9BrhWAHHNqMosJSYBQXcZOVkADQZtOYqvY/GZDTEPgC36vQYI5WNKhlzqMQZrJAhQYz34J1A9mJCUGWCQh24kHAHGAKCjvtYARFwa6l8BVIE0XDkSg27ApVZG1ldpVeBSE6oh6EoZND4HtByl0dAJi9QWgOB6aNRDWnHFdZd3AGRSoCUnLso7UwY8uDR6iwAGQXuInSOgA+KcpiQx6IYrLqa1UAJpzcnbd4haqSCfLLY+10YHvfJdayu5ZtDv3WU9qyBEhKUz9dmYYpeZq3FOr/JwGeFi03hEQxOiD7GtAGjwekXEmmtkaKTIWVVXOKk/DKiVdB5a3fcZQITa6EPLDLLB5WWARqq9VyEx+bZhM6AuVXhtn+G5ImqBO5wvIxKWB9yOpcb1RMsQy2UAU5nTWgwWhK9sOreBUiiDquYytLnsZAZ3Ms5xpPhqippl7lRsArDB0e6LbdhnWEcjudKZznbjBgFlaHlRN3XAc4okKCzPszaJGUjEYYuGq1WOOzQP1V6mK3bUPPrZlczozFWC3dGHDgdzQQOBmgTzhHg9cx53XhdO2NgSZdAWXSWWg70C++PnOCQTUeV/h0Ukw33ww3fI/9r7w/uF9WH39HS6767/jxdcf3W6HMvtHw==);lineShape=1;" vertex="1" parent="1">
          <mxGeometry x="218.14667672217752" y="264.03720620197316" width="11.066599296341792" height="33.094632950553546" as="geometry" />
        </mxCell>
        <mxCell id="QVKKsPcWav4qtCk2TCpt-38" value="" style="shape=stencil(lVnbUhsxDP2avGpsyxf5mdL/YAYomVJggN7+vnIz3qy02cPwlmyO1rZ0JB05B756e7h5uTuk8Pb++vz97vfx9v3hwF8OKR2fHu5ej+/66cDXB766f369+/b6/PPp9vT95WYgx6cfz7/GG/6c7Ji4D6MU/p4eRMr5/4OvJ/jj8WkFz1SCgWcKsg+vlIqBd4ppHy4U2W6mEMd9fJ+/LvhOoe/jY6Bm96PnzwEYJMrOQCiBHcU83zcNWD0MjhwrFXtmFqpoS0JiD52ZBBhoRKMNcRZswFTtCoWpgDNomIM9Q2nUAYuGE+2WaqQG3MrB07QWGGlOlKo10C0hg0LZnqElasBL3EiyNagUUeqEyf3FoFNjYBCpWy5JotKAAU8nLgaFIjhDLlTFGjRqIJ9zmzteEjpAehc9tI2DVOpgBaVacGfQilSBQSZp1q2NKjJokzmLAUMvlU7FbqlqoQJsrcmvoE8KWGGQ2Ua6VGJUV4WCJZ86OoAVWqRkyZdxTrc8+8BSlxrMOPV6syto0grIBwnUrVuTugHQW/L8eVXuG4i0ktm5VftJAl6STtU1ICUfakCRxEZaYDr0NsO6aregBChe7IYCLKxdl/f4hvFSHF6AR/u241ICPFV89fKi4/d3S6JEgrpnCD7EDAvYWMB1T+ygPmvJkmiwOys+2QDX2Yh2A+BqC9UC8b5zTkmzR6Dm8SjtB0GLwweUAJpiyfkHnrd6Que54C7e+odhYVR8d4JtKri9/TuFGrH/tbe4GgRrlsbL9T9NSIx3HTl8xOfo94Nak+KLL0BIeCleqvMn5E+fKuscL9S9B96+P+OCuFT8M98Y47Plp/IZ7+dzeO2irsAxNojEm56EVKDIhnEdhlg1X7MhHjkDOC2L0F0NOQWsoLrVDQicKYEqqso42y2pGC7AS6rInPpQ5YnEdQt+MFUhKcCtOg44ItUwQ7mn0ZJdQV8BZ9+0GRB4xv6yQfC9pgkcQYp4uSKMDTbVVyVSB9QoZcZ10fv4fqAkHzityBVNFJsCM0oUiEPedJyVCLhsoROCZZ9WWTT1501C9DLLwt5o5yLXE2yDY8a3btI0R8JriG9bBUaa43nW3aVomqMpRydmJ72UfajVpn6B3wmknFYVFznN2ogMim/mtUJujJsLe+gxeCGDOKvKUjYE3yCJr/cFJ3XU/mHPkFXCAQWg/aM4A57D3mWDOL2+mtQE3poFS1YNfQVhaF7C6BOkGcq8pFj1H3gxQrxpcAlkW9oMaWlOYZcdROyuIOBMFzxcFT/YTfB5tlSbHXjw8weSCxfGG3T9GGaKn9UaA66FjRaZjX0H7rgf4DAXfPYGKMWjpwEuDnEOhmc4agJpJt0Kjoqb7wALKy4Xz/my1RgNOPPJS/cP4frhfL9/f3x8PP09sP7d/x+gj07/JfD1Pw==);lineShape=1;" vertex="1" parent="1">
          <mxGeometry x="187.0890011155384" y="299.19530934178897" width="66.39299082671641" height="35.352927792352375" as="geometry" />
        </mxCell>
        <mxCell id="QVKKsPcWav4qtCk2TCpt-39" value="" style="shape=stencil(lVfbchoxDP0aXjW25etzmv5HZkIKUwoZQm9/X213vEVy9wBvGyLZko7Okbzhp4/dy/t2E9zH5Xz6uv25f73sNvxpE8L+uNue9xf52vDzhp/eTuftl/Pp+/F1/vv9ZbKcvr6dfkwn/Jr9AtUyOQX3e/6BHXn++8vn2f6wP17ZJ0pN2YdGPqzbNwpV2xcK4HzP5HRAgSkX4FCpsHLwjaJbd5CUkw7JS0gROBRyUTtEqn7dgQN5px3kTlAkLpRNDg7mEJmKDklyrgC1BdRuX6mCgFKm4oy9A6hl7hXs9oUism+UvLLPFEFFSyLW5ydY0Ooo6/MjRWSfbJtKG4J6Vml6TQPfE/o/C6Qc2t6RA/i2SmE4H7GskfOmPg20tNgnzTLp0AISFoemL5CIGPHYLRleKUtBObfekouDXIodogG5UENJ1J7jUqUIYW5L1y8OpRduDedgcKj4htx5sjhIZ2fgkKgk7eAooJCktbOukkCNHSxwTBU10+Bwg21jSD5B+RqTvgH0UNVAuT0Cm+glKtHQF6I3DzVexOcvE+xqHkCQB+7IWOT0ED2lpgl4jArAmRrWJKMxUVDGSVgRC8RIVQeVnOYWEKVRhoWeASX9qIMMhuBsSGjSTpPH3CCzDgjANNqMYsQ+vFZnp7lB+Ax0VYazGZ5yAwPgZPpzHnBA64jURPMhO5i0aJyZ/xkvADHa9i4eCjFX23xF1j60sy0r3bIicZe1tTUy6qRrpQbKKqLVdFkbwwkqi6/Z8hrmgyzbrEOaSIv4YNekKx2577kgnPVoObfPEWEgtvfVZoyeL7JGsS0pAs1R04NHMENK76xe1NDpumLvdb7C1ggm1aDaWZ4OALDBPrX++rkvnuT7S+O+fIV4CcZv6im8Qw034CW7SEMks/3A/rF+u/H8vW0vH//e2m/7w2F+ql//377N5af5Xc/PfwA=);lineShape=1;" vertex="1" parent="1">
          <mxGeometry x="368.381649685057" y="436.2075734536477" width="44.71394420907609" height="3.8657266406526105" as="geometry" />
        </mxCell>
        <mxCell id="QVKKsPcWav4qtCk2TCpt-40" value="" style="shape=stencil(lVfLctswDPwaXTEgwec5Tf8jM3FqT1074zh9/H3hqpQN1NpObo6CFUFgdwFN8vC2fXrdTJHfzqfj182P3fN5O8mnKcbdYbs57c76a5LHSR5ejqfNl9Px/fA8//36dIm8/Pp2/H55w88ZFynVCyjyr/lBSZTDnyef5/j97nATn0nExjMxr8eHQCkaQM7UKwA0ag4gFNM6IAplm1LWM0FKsY+MByB1Cm0dIJk4WUChVNYBKVBxAE0SXDo1X6XE48z7bcgj4wHQJNEJJVDtFsCUQZVKo2gB2nvEjJooFgtgkgwAnYo9IWRKANCUmvYEZReDPvRCYtnNFCKIr4M41/gIEuqNxHYhUhQQrzyzN87UcHzN9sJMBTA1MHtuh0IRIPSIbpmnd2Cc018WLIBKAqja/xG0qDxQVSt1K2jBnqRt7jYlFUNBfdayN39CQ0RK1G0jJJKglFQMrqwNulgXqk49QowaJ1TspYP2Ad1BqDlAGAJcu4NYQMF9yyPhqxoqen8ZRLuqLaH4OsR+jUejR4nHVv1h2MFafHeuPYbjqhKsmvUFqAHdkygknJACXEHVvxCJ+nCHG88uOCXXMp0KkEQLixeAEhelVIeD3mgTmfyHAU3/bWma0tDSfQD7MaLjl9Fky2NqLLYdKYCUivq8TSnX8eQ+IA5lLVKLY6u5P/+L93md1xn04bLi2BN0XkNA9JteXei4tiU5B9N53UCVdA8r9oS2zMf7gOQF3XV9BXcI3bNVPQ2VVR2x2pSuo+J+48bYWOILzEi8xVxMBEwqoeAsjLHpRb/B6AEJ3dg7huoPNS34VVgLhJY89su5tgyNNfZ7bWtjkq7EOx0o6VB9eCj9htXIIXUBtO9XM0CrP48tfInHy47W084Q1THuV7X1LwV610e/7/4frz+uH5Mvu/1+/ha9/b//+NRH84erPP4G);lineShape=1;" vertex="1" parent="1">
          <mxGeometry x="373.79646637675523" y="459.3662983953784" width="37.54608420502882" height="6.733429918220509" as="geometry" />
        </mxCell>
        <mxCell id="QVKKsPcWav4qtCk2TCpt-41" value="" style="shape=stencil(lVnbUhsxDP2avGpsy/Llmbb/wQyhZEoJE+jt76ttamctb06GtyXorGVdj7Q7vnt7un/d74J7ez8dv+1/HR7en3b8aRfC4eVpfzq869OOP+/47vF42n89HX+8PJz/fr1fJJen78efyxt+n3GBOCyg4P6cf3Dk3L8fvpzFnw8vK/FIyX9APFMRI+7rdXHvKBcjnzKQZyppkPcU0fszhTrIh3bgprweX8frRooByEcrn0gEyKs+o30yVSRfrX0qCdCH9XrGPp4YGJQT+fEANXEEFopuAghVFECRCo+AAm0UK9URoE5moJIIsXFyJAYqJU9u9Jq6wYMTUqI8AljTIII0COQNQD2D8kYDI44AoeCvA4qnYk7IFIFZi1A2J1RiBoBKbvS0+r4AQPU2OWMgB6K1xumEQBX4oaqbxjtodEXgh1opmnxOrf5dKUi9vnVEIQ/sqkeY2BBcw2ohN5pJYrvWNiBRMAC9BAIwpdFMUqgAgLq65LGMeUogXDWYzB2SNgpgpayOMCf0VrENYFu5sycPzKo5mkaVciQBAKm2dmsSougTtn7QJAzghJitlUqE1Th2q3dAhv1Tc96P3VxdifzATDKadcla1CC0I46xpNGVgUraodzY4qq0JNwGJFsFNKUcOkFstC5pDsJbAeItIINKpgAXLaBiHiCj41aFZBvBrfGvj0BUQPtymi6BzMTkJjMh8qDcqAQLQG1xIVPGTKV1pasnsAVE5Agm7yzAY7MaR2jPQKVPPecmQEKXjo29rAHIcTLFd252uxqu0wkVA+pkpYDMmlqCrQCCYilZPqOACsrGotIUrYhtKCBNKXfDrMFZAKpkyygz1ZmKLq1tmScACg3tu1MC/adEV8N7UindSNEJgKjuZopW5IcwTRyYrn8ckBo9WnUUqJIWFROtAfIf1pZmQsM1+rENkDbz9DaqCQT8oEzYTBALvUZTkFj+UwKsS+Jb9Hd2ouUeqCQ95TsgtblomzBFa1adWlCZyX2U7ByuwllR+RSPKqVeR7ZpZSAZ/ZACTKCS7B2U1RVEXKulM5Jbed7m0sF2UWXriDvoUBNHx6krIVufgk8nDuQ4PSGNZtWhRoBZ6zSN6tiEuIami7l0ZOyH3Nr4apJDKikR9vNwCfxQnJ0HuLQWsx18PSE7QKd4NHE4kvEOHCG9T2KtpIUnoZzutbrvHUqjXNcmDhm76NK5UZnJtu0uLQZNHME2xeBgTuvEYcq9L60WXps4TGh4wYysc/PVSgr2h9R2gB0QYPVeuLdl621vtr0VqLYYF7hr8akZ/bIWzMBGekEzMwkx0se1reRlTYkqRrav17gCHpiGGW7LqW1ztkXVRdwj5W37Z9gTfHvZZYOLiKdrTXK18AW6u2bnizhyrLPjdoC6T7skf0MZQyq0cWBlRt0dpLNTzDjIr53lUA6uLrzdjbgbQZCzEUf71A9+tLgprg+X7yOPh+fn8+eV9f/t9xT96fwthj//BQ==);lineShape=1;" vertex="1" parent="1">
          <mxGeometry x="397.6717432089274" y="405.7769957214323" width="58.61723226263916" height="84.3302183917342" as="geometry" />
        </mxCell>
        <mxCell id="QVKKsPcWav4qtCk2TCpt-42" value="" style="shape=stencil(lVrLchw3DPyavbLAN3l2nP9wleVIFUVyycrr7wNmi6NhY6bXe5PXDS4JAg2guZf46cfjl+8PlyA/3t9ef3/4++nr++Ml/nIJ4enl8eHt6V3/usTPl/jp2+vbw29vr3++fL3++/uXgRx//fH611jhn6tdr66kYRXk3+snwcXw/we/XvHPTy97fHYlAl4awet/r+t7V/05vnXXEJ8TwVfnK+Aj2U+LrmfAB7YfcT4CXvI5vmbXZMGLa2Q/VZfrgK/lHF+KxZdO8OK6RzzZf86uZsQT/2c9XrgDn4oL6Y79pOC8wRN/xjbdsfMn2U/U+yp4X0LwwYUG+M72o+G1+kcPRPIrGn/GucAZPq7nTXOBQ3zorq77rzNBj/EN42dL0GN8dXWNf68HIAEaCjrIV8pAesC0ZrymJD1ycBkMiivMQFxec0BvMZMg9Q1JNBaXyKF9Qa8mjZNKDLJLYKCBG4lBcn49g2Yqu2i9JlkDI0fKXD6Yb6gusW/YjjgNlJwqO4PgTRfdEiHr7soae8qWlSRzw1gt3SVG7siNdWOnY/JFbqmJk/ssLRu+0tzJLq61qXZaXNOkzolvWp1JIqRJVRteP2Fkh9zbyqzOJ/i43q9W8078H+e3b3h+XxrSq/+7zBs8TnzXAe/nDZ6tD9wY6P1G9GePN/YfV1rpabL9CT57xHfWHCD1aneXSDw0s352meSXZnyOxoDxYjYe0n6E7Mh35wUN2JXZmOuadYSENOlLRgPWMWqtqB0NEmspMqalGhRmoIc238CaFm2i8NBa9ZlBRqpWg0C8lKprHQ0SuQetRsEYMK7OWsUbGnTWmSZzcc15xr5hHnEz6E4IfalBTWjA+E7LFzTvahDJodUgFDRgjDEMzBkKiVY9Q29oQGuU6abUgPUJaoAs2V1nXtomuK0jFKHhWuTgIlhXrgbe+LUTN+WOpW2cmoVrx758XARLiG4SolNyVYMkaBBZQmzNwc4gcLd6ExvCh81q3MrIVa/ankF4uIrNUdaCWdroc6I/TQhzD+HelGN8f5jUmaXcEW2wqjiIKaBBY2cIs6Tt84G51WOrPQxu6BD5TgNsfm5s6V4DLRDN5gMz8M6DQaNcmXR4jmjAcjoVQzONbikllFNGVSRuTZuctq+7TCDRHQc0yCT4tJ1BL+lAzxumKGjAUlRbMozWQivKaOxN08fywRsVSQ3YTeu4jdxaqE6lrbHYpo94Sa81IJ4Jo9nUn0I7B++6IN6TQDK66FCGyR1sFfwnZxNBXffG7CMokNyYrWRS7n52o3jQCsZsSPFILlyIFKSKMdsyNcXM5nWucIJPK/+O2Zyu32DW3hSlk9k5rbzSPBdGMf4r748i+nNoI0w4nhLfXnthHd4k5p22Q3udOd7stSOav3H1fylU+G44m2sXUEl+9ank7MQ19jDQcWAb6h2b5Y0wPfRBRigmgjLv4n1EqV/H0MrUgoRvUYk/5viCLcLQaVkSNOzttFgxYVfTGEqTBgrr7cbzmVGzWaXRRAAR0lcqHWtkw6wzFHkm4ZeZWBt10VFH8dDacXFhpALcM71mxYMMHKkKafGBP3FUFGw89U8UnEFk6rDH+IilSfgTUMZeQigTjScvfHJkT7Ip2CdEJnOMJzuzPpd2zBMo8/94csQnPjoDmlHihjpwtH/G1H62qzs8ud9asFWRKUoeM7sgbQnttLTwFvQPE41awwZcqBSnjYzg+qwyjcbKPJmy9SvOKJ7myxjQgbDoc90YtxviWaXs89XpA886sw9p6ANPn97E9Lp+Nu8/a8DfZcaOEO/Zu1hHPSBQ4Wd4tCCeexQqd+A33GYrs8OzCGo4zGyC9hne+JOuf++PYG7i9Y+PX9x8e3p+vv5gZ///+Asd/ej66574+T8=);lineShape=1;" vertex="1" parent="1">
          <mxGeometry x="499.16429835694635" y="312.06440543088" width="66.6800595943505" height="267.645319518326" as="geometry" />
        </mxCell>
        <mxCell id="QVKKsPcWav4qtCk2TCpt-43" value="" style="shape=stencil(7VvJch03DPwaXVkkwfXsOP/hKsuRKorlkuUsfx8gMqnH5pse+Zgq3+Rn9AyXJtAAMTfy7uvdhy+3N9F/fX56/P32r/uPz3c38stNjPef726f7p/1rxt5fyPvPj0+3f729Pjt88eXf3/5YJb21x+Pf9oT/n7BJe9iN1T0/7z84p33//3w64v9w/3nS3txEtA+EfvmCj4/kOfn4FpB+0zss0toH9nzu5OM9uT5RVyOYP99Aa7bV9cq2pdj+xpdxPWUTuyLyzj+JMf2zbuc0L4R++Q8Pv/7Aly3ry7g+DPhQ4+DLq/2hdlnV5E/jexXby6v9sFJJfZ9PG7YR8qH4Of5eAU0NgF9QVvsxRVCULUXWezTmNHRhMtqn10jG9Y3gtbxwiN7vx6w7gKbb3FhPTAhuEgYpzvs1wEFcY2NaKNoKK6yIclwORPQXWd7EF1eSa2bFhmLlDQrq2NxjbiJPlk2WaHnkm1bxHMv4jrjhU56XVapLrGTo89biaqxobBJJ9fXSWtwKGwO2fWVSqk4YftQBhEmoLnKANXldaezPzsNfV2lHPkbGi5rTnzj2jguEzCX4QgADibrCWX0rhhi8/QJRwAgn0ZFukoF31C864xLxfnVCZQ4fjmiBgxJAy/TFUo+iPtF3QKbtLgqCOj8THcYknpWduKiCzAk5S/jUkAtUuZWXgdswbxouCNzaN1V2IfO5UJH31r9cG3XAQ1PXA10p1UwdEFAZXOouEqqmagkKSMgT4B6bzbpgiFXAZ1NehJhApIr5Dy0TaVW/YVQQwF+jUAq/AKhhuo2oEat9DyY0GsIoJOWEQ0moFEn0LZUQcWoZzstSL4WaNhtEZOFNsPkEaDCG2TIoUPASm/dmcjIF12BIaliJ+7eAOvGKeEbU+hxBNkJUEXGdloB6053nsPYpEHyBRrjbB/WZVVfmNikBemt7pm+QdUMzCE54QABQB6R+wgAiYPJFU7vtlLDwiSfNGgNDcRM/ugRBd1q4p0NKaEjUzFROQC8t6UffEi4Sp3mewaICKCuMo0BXADoHARl6GtOdwRIFQGd07tvc2DSQQHg+S7SxuuIgArrDQjw32eDUvEgPzRtv2V+fGFrR2d5snUKSNscGDkMEBDA6KcAENN6IjrxrhpmW0QAc2WqXkD1dR5HVRSC/zYBzwBhc5aV+j7NSKAkYEk8K9JVV+ENXLlqZgjZqPk+AtBkFXe6uESGpPlz7whgWVAMQ+NdAJh4CAUzOQOw0k/AhODkDRXVSefpbhzK4tKeaL7g8ramzN5jgm/2ZMLepW0L2HxnpfbCnoXcrZJmaSM5ars/4hHaj1NyYc9KdX6TPXn8crD++/NZ7WDnTx7K7IAPuyJhz5fNE2XqflXQh219iJAUzHps/cl67nqnDIF/9PyE9ow/glW6E37KSIje6lJGqvzm81h3l0XtdwfE7go8Zgon/sRjUdLWh+h+f2V92F2NxyKP8YHw2eNVh/GN2heP9pXYB6w8mz2Jk2FUjd94Hn/UvmL10uwJ364EmEzlkIawuJ14VrKNM4+7XCJCibiVCk98ouyHOFPRmMLGOs6i1MahvaQpWdb9irAXeuVRIpZse6FlhdI2z1soU6tsoYNXa2q9IumY71LxjjlLpYfBcnhQB21c7R0laikjgN15/MwdJ+Bn7vj/yB2vFEcIwRUAFdKT8osC2lYRaizZ7NdKSOzMebxut0SNVRd3QD6jxg6glepdNiTqymzS4DeEXmIYANgax7E93AcAhLM3oBTwNCXfqXFStDUA1JF5WdgAUEfmhWcDrJM+KW0bYN24k+L5lTfEsxMHnswuAPgcKiwrb0eynYabm+b6yQGCu6FKbwHblnXWQu97FVD3qx42pDCYMwGZO4GAQrqmszsJfANvybAbgw0QWHyQ0ZUzAZFfiCUMKDVQqasAyOar5yEro55RANOVrWx31p3fSVTUlYXXFltD8pVKm4EUAJ6vFFoyaB3LnXbJze6s/dYKkPiteEARV4T3DkSkhupxelEvWHcqgXdYyNCpE+CpE7AABU0ffeT6RwC4G7KWDPaGjFc9+aQtK2Nyn3kxzACrXrLGFf4GEIl5nvKjSUM9KZ/06gmy1dp7eCMXOIHEKzjWbQhvECoSla3QjJY87wfaiizWZsXOdEdnLImL9T6KWhPAW8UMsDej8TdAgmztbmyVtspt6FScKABK4YH7pR4wsAfhJ267d7e2Q84lAVXpPO+n6xBER+f00WnAA0rbXMzHALdpzcHs19N20leahiqfm8z99tYvFc78PHjhwFsxCrZihJGfHSkGkNyBFktVVsWI9ix5K9hmdCI949aFSpuMylbBCVRtF0F1EWhapRHJ4/MDGb+GC4/ryRRbDpg+B3pZo64c3Na8xrxuH1GJeMo32ZQL7/RUe4h/njpFaaOC92pPC59t/7CA9fLJpu08VQgaVrb5si44ta84HhY17Pke7JmYVXvIyj3lv60PPp+pa1v/7UMTEmJ0fwOOh1VU1b7i+tMPX370Q5lTe/3j9aucT/cPDy8f9Vz+P37Foz+9fAEk7/8F);lineShape=1;" vertex="1" parent="1">
          <mxGeometry x="713.3186716924674" y="326.80908946668205" width="51.91443621745111" height="288.97401582732664" as="geometry" />
        </mxCell>
        <mxCell id="QVKKsPcWav4qtCk2TCpt-44" value="" style="shape=stencil(rVfbbtswDP0avxISdX/uuv8o0HQJliVFmm3t34+eJ8dk7DMM2Juj8EjiObxpCA9v+6fX3cDu7Xo5f939PDxf90P4NDAfTvvd5XCVryE8DuHh5XzZfbmcv5+ep9+vT6Pl+PXt/GPc4X3CeSaOI4rdx58VyvX3wufJ/ng4Le0L5aLsE9W0bc+FfNP7B2pxGxAytawAHKiGbUBk8vpG3IjBlWKhkhQgpH7JVUAKlDQgenhCahS8BhRKeRuQIxWtwngmA0CjbACNnNsGlEpRA3KlBGitiUpVgJI7DauAVrquHVDlSoDWJizpE5qjBnzwznUfZwRTK/AIw2tL+E7V8ipuORCuLVPR8T1uAZxokaLxQbQEQjRPhXUG3XhYl05457sjgNc19ysvnCgg/Grs+y1oQilUJZy9FYKBcgLwJjhkBaSQAErQAE8OVDIJcK+dFt4YSF3FRV0GZKUiQLO1UgAO0CrRHDStokxF8Z2s0nJC9DBJg3FaygBgSQKh3SUpAx0k1KoJDYZKC6AZ4WKnYQvgzAmZIqJVODE+VPIo5ZJtimOtQrWPewovAA0AJDTaXRVASouuIVuAB0pLeLMBzH3v/wDKXeOtuLXnREGzVGR4AIUsSXHVVUO2QLQmJqd9yA6Gd5TKp3M6xZ606wDf28Hc2iss3zJbWABTAk7L9GKiVUaiDGjlSKzzIfiuzHofTbYFjUMf8KH0yruY4ZBufNemYX46O/FVmGxSf8xgQh7ubi6TesfeMPc6RqVfw8uYEj/3rXXqezTOzMPpgqma1g9zPtri7vrQt54tPZdu5g5Udpn8szVHg04X8WaO+oZ3tiI6OPb/88Plr/bycXslvRyOx+mRtfzfvqpkaXqRhcdf);lineShape=1;" vertex="1" parent="1">
          <mxGeometry x="535.4905143429594" y="350.71533166414315" width="18.08705694608625" height="23.159538291461786" as="geometry" />
        </mxCell>
        <mxCell id="QVKKsPcWav4qtCk2TCpt-45" value="" style="shape=stencil(lVfLctswDPwaXTEESILkOU3/IzNxak9dO+M4ffx9oWokm7C8nt5kGSs8d0EO8elj+/K+GSR8nE/H75tfu9fzdohfBpHdYbs57c72NMTnIT69HU+bb6fj5+F1+v3+MlqOTz+OP8cv/J5wQqmMIAl/phe1UKn/3nyd7Pe7w5V9o6i9vVBo9+0lUIodoESScB8QmUrvQRNpvA9IQiV1gJxJQEhZqLYOkDKldB+gTLX3EDMsklqVcgcQJc33ASVT5Q7AlSLwUJVSn0MkVWBfiaV3QEVAmwNJb299BAk0oVycfQBdbola9N9nYF8oJBc/GopWqQRXn4zs21yOZYjmAFftOSz5LUSgDBpgDrLrMBOjitoA9A44wiltNyPBmbjAHkjtAYoBTC14QAQh1UYafEhwTAupq1IiBlw2HnDPNMZ6VDPFflCtMQ/sewdKDaWss/tFXCgBolnGuR88geJlJU190wIVYG89KzfERHNq9VZnz2gf6KxTF2IymtJKwi7fiomZ+ngy7K/Zt77+NlIo/ubXDQeKSImqL6hNXHkgRf8FqMZzp12RGIipbQ/Hy8TzilvfT0rVFdUAwENWL+/jTgQ55DCzZAEsCr6+xbMncmFItNiI3cFCqQBBtUFwCmzcDgBg4qZ9lVrE3PEHkcsWWm+0H+1xSaA++x04DjtIIPumXW2t9Sb4kpoDJNcyD81Vwigg29lOe8s8uav2i7Qt9grF+ubQ0qzDgPw3O9wanEC+4aY+mAXBb7PxWAXiYU98O7Y1oEXid8GDw/vjw749XG4Kb7v9frpoXP/vbxb2arqVxOe/);lineShape=1;" vertex="1" parent="1">
          <mxGeometry x="535.4775389370548" y="355.9053304417748" width="21.293321848625055" height="19.168320519743475" as="geometry" />
        </mxCell>
        <mxCell id="QVKKsPcWav4qtCk2TCpt-46" value="" style="shape=stencil(lVjbchshDP0av2pAAgTPafsfmUnSeJrGGSe9/X21dbGN2D2ZvK3XOgtIR0cSO7l5fbx9ud9xeH07Hr7d/9rfvT3u5NOOef/8eH/cv9nTTj7v5ObhcLz/ejz8eL47/X65XSyXp++Hn8sXfp9wkSnyguLw5/8bKvHfiy8n+6f987W9UgqDfaKUt+3t71oG+0ZJt+0lUqrjfoQ0AEAlHjcUC+WyDUiZWhsBSgUcISdqbkuZomwDClNzPjWn1m2ABiojQCk2YK/eSbYicGrNFEb7QAH4tCVib5/AfmI4f68DMoxBU6ouaNyPtA7IJCONLMoKjtyYeHSpETsn4KNKKY2AQgWcoSbvVGEKgEfaSBxA4ZbUcieOuSYUAPGMR+IAlTIIdCn+DFmoArcateMYh9xgLmTbgA6Aknpk1gHGnPEMpVEAcchMVcbkEShhOXSfnAFGRxCHixM7oEZSJDHF09syUEAcknFp9FKLkEsLc8YVWu0asg6wSI/0bkZHcGhJFCdABW415fa6GrDMWCmoPC0B2GeyWLMHwOpTiJt3kwKdMd1yGWRS1YBfDeCUrxWoxQZI0QMCWqF4sTcxRNWBK0W3pQR1RgLF6AER8NuETqYVAnCrkSmJB6CEMLq6CmSAivitXayvvIRKkPUNiX0c0jsAxyXtn9jakm99Kk45a1zcCq13Z1tudQXCAAVQwwKnU8Yhtho1skwAlHG1t3fXW8L01imnUZG7tBZXbkUVZUlRdwbtsrAF4CmnBW2pdLG+It87uvQxgImrE7KK3bpQY5TvpV9BK5xl6ww4x34dYPVjBGjptX69yLEvQcowH9LUeBftZNkq1DxG2voVpBo5+t4hK0wg606KA3DvTNcBzfc/1hw0UEaLTIDY+8Z1gHpdkgxrnBqXxgSyLEf5YH1oHtlqUx0SAeunnHrHBquoNq8aNmIxOIM1YHGMg41YDNxahWQ8Q+5iuz4/hN7hXUYyRtOA+PSxDSHN0EmVlrkVONX6Ztc42EQTQPoszJzCBiWg+rJuAH6nHyt+S6jTiG0Km/ZNrgN4ug5gOErbzOZkD9Jium3IUJGmOT31erphHr05Ctg0RBtn4dfZXwKgsSdQGz1j/TogdJzNBXUWftw+L7eu1KTRmRd0o9IdcTFHY632k12Zg6833+NY7iMShy5+F9dExLGPXrG9a28Pl/u8h/3T0+k68Pp/f/9nr053h/L5Lw==);lineShape=1;" vertex="1" parent="1">
          <mxGeometry x="523.8893127942245" y="414.0015599566641" width="19.596338424337546" height="44.743790035244274" as="geometry" />
        </mxCell>
        <mxCell id="QVKKsPcWav4qtCk2TCpt-47" value="" style="shape=stencil(lVjZbhsxDPwavxKSqIN6TtP/CBCnNurGgeP0+PtysdDapL0T5G295qwkHsOhNvzwvnt6225SeD+fjj+3f/bP592Gv21S2r/utqf9WZ82/Ljhh5fjafvjdPx4fZ5/vz1NltPTr+Pv6Qt/Z1wliRMohX/zi0A8v/g+mx/2r1fmMZAkYx+pNGAvFLOxZ0qybq9/SzD2mUJZt+dI0e6/UEzAXqjZ/dSxwbv2uVKvxr5R5nX7UijY/Qt18P3Kfv+Th4FDWyS2B4hMPQBA9xHQmOS6DpBKyYZYY8BgSz1R7DbGEQa5V6ouKQSv0KlYL+VCCYQhhuDjUBJMDN2T2EMUoYIOEahbgMaygFALExcLaNBNrVAXC+jUQXG2MLy4JGsasbyffYWaA2S4wrQBtgChCgKhZ3B8IZobKPsSsXWrKAN0EAfNBOtWjYx8kn02mTr2Um8+cJ3HqVYBNnC6yYKTr1kv6ScioD39XnYAwSswVQfQmgK00eP43hWgA7dKJ74FgC2JZn/zANR7pIxWc3VoxAKaOdmSwORokEuyUOlV4FB70BWiAzBlDHA1rY5G2apsnN2hA6w4kZsC6qPHrxFZKR4AUyNRYw9oKFszVfFn+KQeXAtSLzXg1qlcxMchoY6ibdzVdB6dfg0QHGtUGAfNnO4AMpJlzUvJSg2tB8hLSlvZAyDzhaGlLmJj6ZNrNdpvaQP4VdM1iD91RQXxVcDUUZxfGTc5ZRVXo2FoqPsADYRdQWsqAL+WTsEGQqkqgC2pSow21NoVkdhQ8dLsllqFYqMo31sWUOFY0Qqa35ZnVJ0gQI2+Z6nfUPbp99geuibKSP/k0Q4WSYb1jwTfUQo+wyR1LZOp35Bc10RwxJT7kFCrTc4BlGcAV04dxWljFfBIYXWvsJiHHl91qz20zjQCVqji26hOaTA10hgwFkCA9F1udKjOKBW4NYsXfbGNGrwP0IZj6yEWSGSsFWd5KS5+uz+5Ft8gdDBDrKFHdIIpYikQ0xg9r2ZFRAKL2LnMoohZk5+ANHdBb1g2e5mkUYyj7z0VdsMwZNRlrkfeD76LZDjj3kyHOrpB8+QKgCo0d3InwvqKXrAtdxorYWJ/Y1PQDYmfCQNFVFle9mOBUHybCfC65ou3TZ+a68PlYutlfzjM92LX//uLMH01X6Lx438=);lineShape=1;" vertex="1" parent="1">
          <mxGeometry x="517.6677629785156" y="464.8911122624454" width="27.462026771486535" height="35.438829426062966" as="geometry" />
        </mxCell>
        <mxCell id="QVKKsPcWav4qtCk2TCpt-48" value="" style="shape=stencil(lVddb9swDPw1fiVEiRKl5677HwWaLsGypEizr38/GobdUKmu2Juj8GSRvDvKU3p42z+97qYY3q6X8/fd78PzdT+lL1OMh9N+dzlc7WlKj1N6eDlfdt8u55+n5+X369McOT/9OP+ad/iz4IRqnUEx/F0WYqOyrHxd4o+H0008C2XxACEtY0AMVNkDAkUGAKVYHIALcRoDkhD7I3GimMcAYQo+aQ7UQNKipOoAdS3bh/FZKDQXX0hBfMkU/f6RBGSsQiW4+EAhjOObdTm5+EQVxW/Hfc9XGoivlHy+1rKGAI2yT2B+A8iYw5bhirAuZvyKLueciVHSjYInalHKgNlNqfg3qK0IAGSq0ZdVKAEptETq61oLVcDsxqReCjVDZtTW618rNQUA65PPoTRKCKB9q7NC/Rsg+rJKWuU3AhR/pBRIQOMsh9IZhq2gTgdiXyUzSdS32OtfVoGP9Mm50ycDvzB9srfIQoL2V2q+B7wxa6SF2OnTmIoq1Kh58ST9TG3Np5AD7oHRzNeopLXvI1PqxsJsmwhQVtZs4omUEUBIOpss68qIF8I9AFbpfwGWonYWwxSBJ9noqb7T1foAuGSzLae+Smg4SO25VBP01dnYOxMTOD7tAqD3VQJHsmHDHUChr3Luk7bOwBvAneACHtF3E934DnPu1WAaz2CAxtVzt3jbAd3z+kvY7OOAFoGyP4/RSADvzFE9T9VYBOpzN/5N/Q1oM6wEuJn+Ge5fvJRFoVkwic9Xwjp6B/UXz+mU1woP+ls6P2V4/g/v8aBfn9/77eH9o+HlcDwu3xy3//cfGba0fKCkx38=);lineShape=1;" vertex="1" parent="1">
          <mxGeometry x="531.4925827625111" y="484.3068195243475" width="23.842880818746835" height="3.6397555805544926" as="geometry" />
        </mxCell>
        <mxCell id="QVKKsPcWav4qtCk2TCpt-49" value="" style="shape=stencil(lVbLUsMwDPyaXDWWbPlxhvIfzNDSDKVl2vL6e2QySSq3EcPNcbKxV7sru/N3p+3j27ojdzofDy/rz/7pvO38fUfU77frY3+WUedXnb/bHI7r5+Phff80PL891i/r6PXwUf/wNeByASwVRe57mPERAv3OPAyAXb+/AJQIFBQgyIw3AAVSVgBOkJIJCKwAsUAOBoCBNIeMgMYKWTZAClAccF4GpASsSZcEriwDIkPWK6Bz4Nwygn1bJqmDM4QIBLEBBCBeBngPsSlTBDRYk5RJs04M0agrMYSklfOQ0VwBnfYGQrY4ULtCQHCGN+pr1P4mYEsHHL02AuomjRVmihOAgQ3ScxEvVkiGmapMTUbFLFbkJiNMVaLR8UuRc9qubAt34eZJajaVq4HRdq2higZAIqnLVGNrsK6hjzoQDN6QurYVrVxtPcaW+CoQc3O77b4r5YrdLKX5el2luUEvAsp/ABTBaW9kEc4gjbGtUnaAltJA2hlJQmvI4Ns+Jolyxv/FF5oASyc0CFw5VXqC2ZTAaRt5NPlGiDo7hKbt0I/lmM4GGk+L2xuiNp1iIoOA7Lfo5NhN9fok+fOoYmy+T0oAGcwXjk2/2w33lcv37QVFpobLjV/9AA==);lineShape=1;" vertex="1" parent="1">
          <mxGeometry x="215.77349253033435" y="598.9939781926084" width="3.2230755116520413" height="3.2248481794399595" as="geometry" />
        </mxCell>
        <mxCell id="QVKKsPcWav4qtCk2TCpt-50" value="" style="shape=stencil(lVbLUsMwDPyaXDWWbPlxhvIfzNDSDKVl2vL6e2QySSq3EcPNcbKxV7sru/N3p+3j27ojdzofDy/rz/7pvO38fUfU77frY3+WUedXnb/bHI7r5+Phff80PL891i/r6PXwUf/wNeByASwVRe57mPERAv3OPAyAXb+/AJQIFBQgyIw3AAVSVgBOkJIJCKwAsUAOBoCBNIeMgMYKWTZAClAccF4GpASsSZcEriwDIkPWK6Bz4Nwygn1bJqmDM4QIBLEBBCBeBngPsSlTBDRYk5RJs04M0agrMYSklfOQ0VwBnfYGQrY4ULtCQHCGN+pr1P4mYEsHHL02AuomjRVmihOAgQ3ScxEvVkiGmapMTUbFLFbkJiNMVaLR8UuRc9qubAt34eZJajaVq4HRdq2higZAIqnLVGNrsK6hjzoQDN6QurYVrVxtPcaW+CoQc3O77b4r5YrdLKX5el2luUEvAsp/ABTBaW9kEc4gjbGtUnaAltJA2hlJQmvI4Ns+Jolyxv/FF5oASyc0CFw5VXqC2ZTAaRt5NPlGiDo7hKbt0I/lmM4GGk+L2xuiNp1iIoOA7Lfo5NhN9fok+fOoYmy+T0oAGcwXjk2/2w33lcv37QVFpobLjV/9AA==);lineShape=1;" vertex="1" parent="1">
          <mxGeometry x="229.5512635264281" y="599.8829552433897" width="3.2230755116520413" height="3.2248481794399595" as="geometry" />
        </mxCell>
        <mxCell id="QVKKsPcWav4qtCk2TCpt-51" value="" style="shape=stencil(lVbLUsMwDPyaXDWWbPlxhvIfzNDSDKVl2vL6e2QySSq3EcPNcbKxV7sru/N3p+3j27ojdzofDy/rz/7pvO38fUfU77frY3+WUedXnb/bHI7r5+Phff80PL891i/r6PXwUf/wNeByASwVRe57mPERAv3OPAyAXb+/AJQIFBQgyIw3AAVSVgBOkJIJCKwAsUAOBoCBNIeMgMYKWTZAClAccF4GpASsSZcEriwDIkPWK6Bz4Nwygn1bJqmDM4QIBLEBBCBeBngPsSlTBDRYk5RJs04M0agrMYSklfOQ0VwBnfYGQrY4ULtCQHCGN+pr1P4mYEsHHL02AuomjRVmihOAgQ3ScxEvVkiGmapMTUbFLFbkJiNMVaLR8UuRc9qubAt34eZJajaVq4HRdq2higZAIqnLVGNrsK6hjzoQDN6QurYVrVxtPcaW+CoQc3O77b4r5YrdLKX5el2luUEvAsp/ABTBaW9kEc4gjbGtUnaAltJA2hlJQmvI4Ns+Jolyxv/FF5oASyc0CFw5VXqC2ZTAaRt5NPlGiDo7hKbt0I/lmM4GGk+L2xuiNp1iIoOA7Lfo5NhN9fok+fOoYmy+T0oAGcwXjk2/2w33lcv37QVFpobLjV/9AA==);lineShape=1;" vertex="1" parent="1">
          <mxGeometry x="243.77349253033435" y="602.1051232121397" width="3.2230755116520413" height="3.2248481794399595" as="geometry" />
        </mxCell>
        <mxCell id="QVKKsPcWav4qtCk2TCpt-52" value="" style="shape=stencil(lVbLUsMwDPyaXDWWbPlxhvIfzNDSDKVl2vL6e2QySSq3EcPNcbKxV7sru/N3p+3j27ojdzofDy/rz/7pvO38fUfU77frY3+WUedXnb/bHI7r5+Phff80PL891i/r6PXwUf/wNeByASwVRe57mPERAv3OPAyAXb+/AJQIFBQgyIw3AAVSVgBOkJIJCKwAsUAOBoCBNIeMgMYKWTZAClAccF4GpASsSZcEriwDIkPWK6Bz4Nwygn1bJqmDM4QIBLEBBCBeBngPsSlTBDRYk5RJs04M0agrMYSklfOQ0VwBnfYGQrY4ULtCQHCGN+pr1P4mYEsHHL02AuomjRVmihOAgQ3ScxEvVkiGmapMTUbFLFbkJiNMVaLR8UuRc9qubAt34eZJajaVq4HRdq2higZAIqnLVGNrsK6hjzoQDN6QurYVrVxtPcaW+CoQc3O77b4r5YrdLKX5el2luUEvAsp/ABTBaW9kEc4gjbGtUnaAltJA2hlJQmvI4Ns+Jolyxv/FF5oASyc0CFw5VXqC2ZTAaRt5NPlGiDo7hKbt0I/lmM4GGk+L2xuiNp1iIoOA7Lfo5NhN9fok+fOoYmy+T0oAGcwXjk2/2w33lcv37QVFpobLjV/9AA==);lineShape=1;" vertex="1" parent="1">
          <mxGeometry x="129.10686655377185" y="602.1051232121397" width="3.2230755116520413" height="3.2248481794399595" as="geometry" />
        </mxCell>
        <mxCell id="QVKKsPcWav4qtCk2TCpt-53" value="" style="shape=stencil(lVbLUsMwDPyaXDWWbPlxhvIfzNDSDKVl2vL6e2QySSq3EcPNcbKxV7sru/N3p+3j27ojdzofDy/rz/7pvO38fUfU77frY3+WUedXnb/bHI7r5+Phff80PL891i/r6PXwUf/wNeByASwVRe57mPERAv3OPAyAXb+/AJQIFBQgyIw3AAVSVgBOkJIJCKwAsUAOBoCBNIeMgMYKWTZAClAccF4GpASsSZcEriwDIkPWK6Bz4Nwygn1bJqmDM4QIBLEBBCBeBngPsSlTBDRYk5RJs04M0agrMYSklfOQ0VwBnfYGQrY4ULtCQHCGN+pr1P4mYEsHHL02AuomjRVmihOAgQ3ScxEvVkiGmapMTUbFLFbkJiNMVaLR8UuRc9qubAt34eZJajaVq4HRdq2higZAIqnLVGNrsK6hjzoQDN6QurYVrVxtPcaW+CoQc3O77b4r5YrdLKX5el2luUEvAsp/ABTBaW9kEc4gjbGtUnaAltJA2hlJQmvI4Ns+Jolyxv/FF5oASyc0CFw5VXqC2ZTAaRt5NPlGiDo7hKbt0I/lmM4GGk+L2xuiNp1iIoOA7Lfo5NhN9fok+fOoYmy+T0oAGcwXjk2/2w33lcv37QVFpobLjV/9AA==);lineShape=1;" vertex="1" parent="1">
          <mxGeometry x="141.10686655377185" y="601.6606652043272" width="3.2230755116520413" height="3.2248481794399595" as="geometry" />
        </mxCell>
        <mxCell id="QVKKsPcWav4qtCk2TCpt-54" value="" style="shape=stencil(lVbLUsMwDPyaXDWWbPlxhvIfzNDSDKVl2vL6e2QySSq3EcPNcbKxV7sru/N3p+3j27ojdzofDy/rz/7pvO38fUfU77frY3+WUedXnb/bHI7r5+Phff80PL891i/r6PXwUf/wNeByASwVRe57mPERAv3OPAyAXb+/AJQIFBQgyIw3AAVSVgBOkJIJCKwAsUAOBoCBNIeMgMYKWTZAClAccF4GpASsSZcEriwDIkPWK6Bz4Nwygn1bJqmDM4QIBLEBBCBeBngPsSlTBDRYk5RJs04M0agrMYSklfOQ0VwBnfYGQrY4ULtCQHCGN+pr1P4mYEsHHL02AuomjRVmihOAgQ3ScxEvVkiGmapMTUbFLFbkJiNMVaLR8UuRc9qubAt34eZJajaVq4HRdq2higZAIqnLVGNrsK6hjzoQDN6QurYVrVxtPcaW+CoQc3O77b4r5YrdLKX5el2luUEvAsp/ABTBaW9kEc4gjbGtUnaAltJA2hlJQmvI4Ns+Jolyxv/FF5oASyc0CFw5VXqC2ZTAaRt5NPlGiDo7hKbt0I/lmM4GGk+L2xuiNp1iIoOA7Lfo5NhN9fok+fOoYmy+T0oAGcwXjk2/2w33lcv37QVFpobLjV/9AA==);lineShape=1;" vertex="1" parent="1">
          <mxGeometry x="154.4401795420531" y="602.1051232121397" width="3.2230755116520413" height="3.2248481794399595" as="geometry" />
        </mxCell>
        <mxCell id="QVKKsPcWav4qtCk2TCpt-55" value="" style="shape=stencil(lVbJctswDP0aXTEkuAA4Z/mPzMSpNXXtjON0+ftC1VAOIQtNbjKNh/09ckh3b/un192A4e1yPn3f/RqfL/sh3Q+I43G/O48X/RrSw5DuXk7n3bfz6f34PP9+fZosp68fp5+Th98zTiqEMKEw/JlPUgSUfyePM+AwHj8AuECNHSAX4LwNUH+ldgCNmWgbgBoBe4AA1m1AFIh9SjGEVtZtBAKZEAwlbgMIorHPIE5KCCydPQuQ4z9Apt4+QXLtTT5UITtDiMDc2VcBdvwXKKW3zy3ibf8BqC+gCEhxABXEAAjI62iCgiuAt0ZiZzyl5ACSjhRXRXubrTsjq646RecAKa3Gxk4EsV2a9sKJkAhKXi2eV4P66/k/bbaTklKh9kVP1EkOINoI/2VnBjIhVACcqhl4rTDeHKxeSGyitsGe0LNBRdArOVhNJQZy7NV/P2WKIM7QlrVc9k4l2NlstmpUo7vYX7UvFWLfoGvLbgIqtRtgqRiic+lQaP1ebim3QZQt0fQSchqk8yl9PgHQGRhj48jV3tto1nrR2LNDMt1Hkz+6d6xylvp8ist6oSY7CwMgO/Ve+bf0MzUZ2LgPVhyIDOiMQEMYXdGaxSGlyo7tEbWT24CvPnU+AdCP68vqZTwc5ofZx//tS0yP5ldcevgL);lineShape=1;" vertex="1" parent="1">
          <mxGeometry x="621.6486518102588" y="382.2578589365462" width="7.095220553285571" height="6.745966692308457" as="geometry" />
        </mxCell>
        <mxCell id="QVKKsPcWav4qtCk2TCpt-56" value="" style="shape=stencil(lVfLctRADPwaX1Xz0jzOIfxHqrJhXSy7qc0GyN9HxoyxFLuBm7NWj6WWukcZ4t3L8eH5MAT3crtevh5+jI+34xA/DSGM5+PhOt7kaYj3Q7x7ulwPX66X1/Pj/PfzwxQ5PX27fJ9O+DnjWqJQJ1Rwb/MvIZMvv375PANO43kFqIVa04BKpe4DSqGSFSAWqgCQ5XVUgFSJ3T6AEzlWgOyp8j4gSYlJAxr5sA+QjLNXgJIpxX2AcJKDAtRIDaTkHTXdhya0gqKFEhPf+gnbrJJrNv53X7ZLplJsPg4V0Blf4hnGO2IT78mBfBw5pwmVDjQUH/T5VTJMKP+g+ZG5ZcBnsDIoCeqGyZt4DwdCJo5tPDpfBsgHC6iAIB8oRlsB6oBfXq8oQiLwbFOSHmRUA1PSMpMmRw9TqkYFDhcdrZDFABv6gqeia2higIClZkuYdAasJffP93jvllHfNq/uhWujgIOadJubuB+IdzahJieApsncGWFio5DqdMvEGSM8v5qpq9SQ9VI08Yv0dvhMRjeBGBjF/8ZLQqZgLv2Ibed1dqhTIwYVRyFEe3UKFEBKLHeRrkGuE4cuD6as3ctnYkCqcG5ZgkNa+cMa0sdqW2Xe2qP4PZBxkxmz8Uhk0+UVTDwj1Wd7HeMNZDIRfX6kivKpdj3I/b7ajm+UjTFCEaxMZylAhASmdFo3jHEx3NLaB2f0te8AezWz3tKmSxoMkZAaDSDiL3C/LBYA4zGSbVkr7S/b8j+s1/LwZzl/Gk+nebdfv7fLvPw0/yMQ798B);lineShape=1;" vertex="1" parent="1">
          <mxGeometry x="604.3083420474229" y="464.0187776434434" width="18.672035105041687" height="9.965196074525693" as="geometry" />
        </mxCell>
        <mxCell id="QVKKsPcWav4qtCk2TCpt-57" value="" style="shape=stencil(lVfLctswDPwaXTEgwQd4TtP/yEyc2lPXzjhO2/x9oGqoBrAF2TdZxpLEArugBnp42z69boaIb+fT8efmz+75vB3o2xDj7rDdnHZneRrocaCHl+Np8+N0fD88T79fn8bI8enX8fe4wt8J1xJQHFERP6Y3IQPyvzffJ8B+d/gC4AItaUCFXJYBtUFoChAJYlwGlAY1KAARYFoG5ApECpAqBHQACEkfKSdozpFSAtQ7lAjFYYkq1KwAFSHQMiAUYFaAViA7RwqpH2AGcM/qOiD0FGdAg+IAGFiTFBABPVqvbEDOBmRbr1VowckASHPaMlSHU+xtNseT29qSnVkf3UZF4KriuUJylBAh64px9tu0sz3HC2PVUZptIY6QssMn2oKtAQj4rhNJV5sSrKQsXtLoHk4DW6GtFE0ApgpjV3g51M7JjW0nBmrcZa2v44X2feG0vtytyixWyivSTxCMcla85UL5vnld+K+MIe/8aJXQAgSnZhfrM3fvuO380qbslfjOeLG6pIdmbv3NdYDUR5c4RwiODkiUVhRgnFlOyon6PJqnbHFrkGQs66RlQnhFzqXragaIgzv+W9jO8ebqhgMUrczoksoNoq4CAjmcjk3WTLzHkBhJqDbek3G2BCEUp4tEVFX7RIDsqEBEG9Hwww7/YgpR85lc75V41j1XOsEL8+ZCx+xOg9Gl9AatXz6XEjYTOcwtch1QoRgAudc0KYFxRrmHkZfCvffrGwDy8P86/7Lb76evga//2+u/vJo+HejxEw==);lineShape=1;" vertex="1" parent="1">
          <mxGeometry x="594.2838301982106" y="511.5922788927098" width="15.792387413756842" height="16.797285101304624" as="geometry" />
        </mxCell>
        <mxCell id="QVKKsPcWav4qtCk2TCpt-58" value="" style="shape=stencil(lVfLbttADPwaX4ldcp/nNP2PAHFqo24cOO7r70tVWNukpQlyky0Od0kOydFGHt53T2/bDYf38+n4fft7/3zebeTLhnn/utue9md92sjjRh5ejqftt9Px5+vz/PvtabKcnn4cf00e/sy4TLVMIA5/5z8Chf7/j6+z+WH/emMeL6+v9q0A+0rJ+k8Uw7q9vk7V2E8ntnWAMHGzgEYlAUChaiNggSGkSIUtoFMGV0p6QjYAyZR4HZCZoo1BzxRwQq7U7JVSpQzKVmT4G4AslAUAGvVkAZ0EnFATsU1rSdQjAKg/MYCqlQaAligEC0iw0q15auiZAQB6o2zT2sNwsQzolGzQPVLFgG7p3bUOGQPclTKsgwLEkq9XiqDSGrTYtE5pAP3QC3UH6BiQPTViCKOWywihIv6IhtKkHRQ9IIKW08K26tPUUOX0xi6vhbgC9nWqtoN6GrNwDeC5wSMNa1eqLugwXCwDIjVbCD2zIMDd2NCegnXIFMQDCmhqTWIpHtARmdrYHzcxNBRDJ3ZZisS45Tw1eAzDlZ0Y/GTSUn8wBooDFLhSNOp616Swq3Xv3jUpHGWZWvKAjjoo+aU1AVDleKyoGwBai1Odkg9a0Pz+LKDWMUsvZOLRU8sAfW25oS4QN0r1WuDqYhnAfn6rC0TXXEYLXwARzpkc/ErJGeuZPEbpRW1c+LsssXQHOdEnMK0ifjAJnsZ8J09UBwoImpPXoVxHopcBwcfATA3EEJPXArGQAHprAzulGwdXlpM05NSNMi4oZGrB2zOS6t4eq1xlkWsdKuD2wXdahfpTJ6rNfhkaYs3c3j2N262YsyW00hNU6m7P6iRD+4CS5WaEoSpxLQ/CEA4rNHDeL8EsN68fulh5ffJz8ENzfbh+eb7sD4f5w/X2vf9S1b/mr1x5/Ac=);lineShape=1;" vertex="1" parent="1">
          <mxGeometry x="674.5949825847658" y="359.1487910085914" width="26.764082830665757" height="24.09792792809708" as="geometry" />
        </mxCell>
        <mxCell id="QVKKsPcWav4qtCk2TCpt-59" value="" style="shape=stencil(lVfLctswDPwaXTEgwec5Tf8jM3FqT90447ivvy9UlbYBW9v2JstYgVwsFuQkD+/bp7fNFPn9dDx83nzfPZ+2k3yYYty9bjfH3UmfJnmc5OHlcNx8Oh6+vj4vv9+e5sj56cvh2/yFHwsuUeYZFPnn8qIlCuX3m49L/H73ehUfIuViAYFyXAdEoR4NoGoGWQcIU7IZSqNWAaCSOIAuEmRIiWIwgJwppXVADuPvAUiaswNAo54NQPQNoLVkanZJSkMDgBqJbQYlOoEl1UqpGkAo1AGtrZPYwkWKgNUeiG0CpgIW1IW4u3hmEJ+HMC/xERStV2IbH2DNeqNiW0EGAffjOxXLj9YQ8BP4vL9z61ABJdYE1Woi4FbTHVTLaEiD4zWKxGUoFFAG7ROruoAbQYss3QMqUJ2qyDWzAiJYkso0uyVpHYCOWqPgGkGoZAC48RetA1KqAqIvNGJV46uNzyRASbqDP0K7dGYPgFO+qRoFFB8p2fUwdOyevLXwaL378cU7POP1K33J7bcgp1DncnY97Hgt3rn1uSBr8a1ZPplygwBnXSq5iACV2o2oYevXMS3+EdDymBZXAwfZaVWSnD0WOGWrDHc7V0HfAEApow3PbRBg3XL3fVYYCkO/55ZU9BNAqfNJwSqp6tAEfqecuKHQBA7+2H1vqqElYJCq/WwzaPsx6B4VQrBuoWJJgNbqx9Ssd5Ag+y1fTbr7rHpS50mHjpC+PTUefT9Qi37D6CzF/oSqBoWGGpOwrwAaIDdzXw0WzUCNdwVjeLJgb9c6INDJ7uagNg8s4EZ61HSazpBPoWDtUe8UaCL/7x3k7/H6cLnwvOz2++W+dP2/vyDpq+VyJY+/AA==);lineShape=1;" vertex="1" parent="1">
          <mxGeometry x="679.1086001807132" y="364.9928520085914" width="21.303691686865477" height="15.34855841468152" as="geometry" />
        </mxCell>
        <mxCell id="QVKKsPcWav4qtCk2TCpt-60" value="" style="shape=stencil(lVfbbtswDP0avxISKYnSc9f9R4GmS7CsKdLs9vdjYMiNaOcMfXMcHomH5CHpSR7e909vu4nD++V8+r77fXi+7Cf5MjEfXve78+FiT5M8TvLwcjrvvp1PP1+f599vT1fL69OP06/rCX9mXGuUwxXF4e/8JlObX3yd7Y+H1xv7qlTiYB8LlQQAkWS8gBNJvQ/QRLUMAOH+ZhNQKkUeAIkpNACIVOvIOZLKfUA2iqNLZWG1DTCP0wDQQBG4lAOlkYMaK3BDqpRGl1qiBqKUlEIeAYUycCkJ8cih1X7EJkCUkgM0igoAgVg9oIJaYqaUPaABDtFqSTygoPLuWbrhrBFQIHbna0/kpr2l2THOVEGIwsqfRAz851UKuOt1Wwq9Zhb7SAxyHMWruVkSQdkZAx0Z10aKANU3GANUQFkKhZVLgpTAFLMnLUgJxYvToqoIUElcmhMlpGbtFG/EGRCHROo4KCxssT7vMl2h1qzpqgOYdECp2uAII+kYQk/NdjEpcfNXoLjGsGpJDYfJ922LUkUX+EliaUB5C6vSS7C4P2ufev9cpoKSgPaiPmel9Ra7zZd9zsoS4nspc1PkOrnANLeOVEdAClQABbZCHXMgEbpk+le3YHCv9XvayWPTtjFRAIe8iHdxqZO6ty7w2MIYrxfNTxFbRwDjYlNn3F8CNXD+ekGyBgn8V/FTyuoW+KMmQvH2aMim9flo6NgAcLtOgKpp0sP3Ec8MSs6agvOfu4Pb9rbWuA0VFtxNH1xEAAvis0v5/+3t4eML4OVwPM4fELf/+y8GezV/bcjjPw==);lineShape=1;" vertex="1" parent="1">
          <mxGeometry x="720.4596838838299" y="344.17718666653946" width="5.034006543769692" height="23.70719664084868" as="geometry" />
        </mxCell>
        <mxCell id="QVKKsPcWav4qtCk2TCpt-61" value="" style="shape=stencil(lVbLUsMwDPyaXDWWbPlxhvIfzNDSDKVl2vL6e2QySSq3EcPNcbKxV7sru/N3p+3j27ojdzofDy/rz/7pvO38fUfU77frY3+WUedXnb/bHI7r5+Phff80PL891i/r6PXwUf/wNeByASwVRe57mPERAv3OPAyAXb+/AJQIFBQgyIw3AAVSVgBOkJIJCKwAsUAOBoCBNIeMgMYKWTZAClAccF4GpASsSZcEriwDIkPWK6Bz4Nwygn1bJqmDM4QIBLEBBCBeBngPsSlTBDRYk5RJs04M0agrMYSklfOQ0VwBnfYGQrY4ULtCQHCGN+pr1P4mYEsHHL02AuomjRVmihOAgQ3ScxEvVkiGmapMTUbFLFbkJiNMVaLR8UuRc9qubAt34eZJajaVq4HRdq2higZAIqnLVGNrsK6hjzoQDN6QurYVrVxtPcaW+CoQc3O77b4r5YrdLKX5el2luUEvAsp/ABTBaW9kEc4gjbGtUnaAltJA2hlJQmvI4Ns+Jolyxv/FF5oASyc0CFw5VXqC2ZTAaRt5NPlGiDo7hKbt0I/lmM4GGk+L2xuiNp1iIoOA7Lfo5NhN9fok+fOoYmy+T0oAGcwXjk2/2w33lcv37QVFpobLjV/9AA==);lineShape=1;" vertex="1" parent="1">
          <mxGeometry x="718.4402405772094" y="391.88289420823344" width="3.2230755116520413" height="3.2248481794399595" as="geometry" />
        </mxCell>
        <mxCell id="QVKKsPcWav4qtCk2TCpt-62" value="" style="shape=stencil(rVjbbhUxDPya82oldq7PBf4DiZYeUVpUyu3vmeUo28bpDkLi7Vw8u7E9tsc52dXX2/dfrk8avj49Pny6/nH+8HR7sjcn1fP97fXj+QmfTvb2ZFc3D4/XHx8fvt1/uHz/8n6z3D59fvi+PeHnBReDhLihNPy6/KJi5c8P7y72d+f7l/ZJcprsk6RwbK9BapnsqxQl9lmqTvY4YarHAAuS8wwwCeQNlseBdwB+iceAFERnF2KVzgBZ+hwjRCGSIGWVXuc3NAkEUII050OS0Aggi85HilFKJoA+/h6ALqEf21eT3Cb7IoXwqCGrs71KZvbdhyjQCPXik4aQERrFsD/v2QFWCL1LrC5AjR2oiprnaScp60mio12Txk4UxOaUoTYjeUPL0hxPEWXiA5JWZ59RTJVEteaR1L1bxMGT1wHwYS7/VMVIrW3Enp1GMVVS/igdm53OVZqR4szj750YoCophYzKmt9QKq0duFjnN9Q4Uvk6YC/2HZDFiA9oYc11YdCXAAwdbs5DUykMsOShZRpW27v0DmhSE58Msw+90SiB/a3PAPQwUkBqnq0AFDbcoo8SAJ1NN8yBtAAINVDyblh13mZikdY8wFjjey2sLA8AxJmtaG2skQEQqgdEfqTsEodezKJUBjd3QB4ldRRWV0AAKJM9XWr3gED6kkY/DzcAORLI5wYWAKzzgd5lATQGyEuUiiQSVkzANXFKMq2L8AGXWOfTRZYAwLoGnA5OlnRJrGvocPFlATFAGOx/FqBcaoBMfWkbjdG1+kENQGYlVxa6tiGHjipIF4Dyog5LUbO4AmDO6TLG3v8BoCDSDGh8jIKuTjA16B82ILqoG0GRFrWpX35qpQPCcKSZfdDJlfQZDGqnKiHEmeiDFDCnuzMV9qmNJrEDoihbTpY85EI3sgyqzU5DESVS1MU8+VKhKxz0lNOh245GuFTV14MluvPVMvTULo0bFX3QU3ke1Og8bOEA1fzOVyUzgHkdGpWuoWB/9xtKZPtD9Mq4jMwfPb/N5YNVnY0HrA9u34AHjW0DOIDb7Tm5kWd3m4HmbIxJ5omBtHXyhpw8ubVQ5ZDMR1ULdRrM9Ezaa/yojTm5BB/YZcA2dR31Om/FYVlFC+1KW7N3iUt8hgYvW2Mc4uP1xC3bA23160pGxVjwag+KlJq71T4NHXRg7m4aEhV6CP7MaZNCsrvchxkNZFz4TF1VMUdOOpOxUbl6pPcFya+pkTbdsvCY3iFVf6UFVpCnN7/cxaHzjij8bzepf7XHh+dr25vz3d3l1vfl//6aFz9drojt7W8=);lineShape=1;" vertex="1" parent="1">
          <mxGeometry x="670.1082867321677" y="444.5420120246806" width="22.93636001087907" height="50.6514056816211" as="geometry" />
        </mxCell>
        <mxCell id="QVKKsPcWav4qtCk2TCpt-63" value="" style="shape=stencil(lVfLctswDPwaXTEkwOc5Tf8jM3FqTV0747ht8veFqpEtUMnKuskyVsRjsQA7eXjbP73uOnZvl/Pp5+5v/3zZd/KtY+6P+925v+hTJ4+dPLyczrsf59Pv4/P4+/VpsByefp3+DF94H3G5UKkDit3H+Iap5P8vvo/2h/44sy+VXDT2+gLY10hJjL2P5BMAFPLZOsTkIwYUC6hUGQASpWAAUigIAATK1qWQiVEMQsGeEBM55JIQ2xNSIEZBy1SlCZA9VeRSJLF11srnAACZkjOAEkhAlrxz5CxCMx2QT5my5cbt0M8BnrzNqxY/ecBWR7U5oVIAJ6QFmRRQyteAqHWyQc/y8CkiOAq5PSKDWvOVnTMAaiFfSbhNE1cACOS5LQSjWgtJakvtQJp8Jt/EEKgCAMepYWYAB1ySROwtQJ0EBA+VYuMSUwVSloRi3QLIieoml4qyz20JWru61i1pvVHtzsIpc2rTEJgaGmJuAJh8Kitp0Q+I3pnbkbLSQFFj2NijYZogd8qA8OTyDCAgar7K9Z1SpmNTFoWIqKmFfMM+LMfbAZGiBayNCBV8C1gZQqpkbOuwMuYUUGypVwapAqJl38qo9oseXVkGNEsNl4Z1A7kklCxgWGiQuPp2GdCVSVAMbsrJbClLoHB5ufQVYL5YBASOdTcp0GwFBd7zlL2buQP5T5NGX2MlAaI9jDZr7yZKfdXIXBt7Ae6Ia1c9DR+0sdRWT1ekqy6/74G9iqNf+A/IllI7mB3kgqq1NOJLAVRXh2Zq2eCBLm69wKzb68PttvTSHw7jZWv+f3u70lfjzUwe/wE=);lineShape=1;" vertex="1" parent="1">
          <mxGeometry x="715.7531453719685" y="420.74673291466434" width="2.597668724009509" height="31.875063692755248" as="geometry" />
        </mxCell>
        <mxCell id="QVKKsPcWav4qtCk2TCpt-64" value="" style="shape=stencil(lVbbcgIxCP2afWUI5EKerf0PZ9S6U6uO2tvfN+nO2iUqTt9i5CxwgBM6np02i8OqIzydj/vX1We/PG86fuqI+t1mdezP5dTxvOPZen9cvRz377vl8PuwqJb19Lb/qF/4GnAOERArjPB7uIoI7H9vngfEtt9NEDmBzwqQGJAMAAKRAogHlvuAJJCjAmQGcvcB0YOIBghEA+AzeO1hwsNNBJeQnXaRgAyayI2kXABoxuQQsk5CEMQAhNH/pXACkoykwetChwhoZCAQgrL3DDEaCRRCNKlsNwblkZARUHMKRgZXRSgsOyOFkEHoCmB4SB4C/SckiSPn06TZmIYAIV3RapQtZ0g6pFo3I6QsbUi1MbIBYHB81XlG4aSkqCWg9rYBiCWHBmBPT/AQdXM/HNDcqswDDSiFddrFA5Vx3KpM1TGjcnHkZCqUliqB0/ZViY1WumlvkIoQ9HyGR/bNy1A4ztY8t6JaB9zouzTK28UezVlzAZLuU0fmNJcSpyZjEMOeU6svbpy9e89IE5Ddo5GApLFPFkEeSH/fm5Nf+jHrimUI9uDH5hlMgMbLfGNbKF2OykU5/C0b6367HXaV6f/tclKuhsWG5z8=);lineShape=1;" vertex="1" parent="1">
          <mxGeometry x="711.4908421971402" y="475.1550722763466" width="2.472129539046364" height="2.9839398433396127" as="geometry" />
        </mxCell>
        <mxCell id="QVKKsPcWav4qtCk2TCpt-65" value="" style="shape=stencil(lVhbbhsxDDyNfwlR1PM7Te8RIE5t1LUDJ33dvnQNbZZc7xj5czakxMdwSGojD2+7p9ftJoa39/Pp+/b3/vl9t5Evmxj3x932vH/XXxt53MjDy+m8/XY+/Tw+X/9+fbpIXn79OP26nPDnqidU00Uphr/jQ6z/P3y9ih/2x5l4o8pGPFII6+JcqHQjH8aHm/J6e/Py6HyJ1IKTj0A+6fnV2c9IvlOvLjwJ2J/V32bkMwkIZ1mEv1Ip6/I1UM1GntVhBgqVpFiFCDPQhLL1mDOlDBQa9WgVGklcV+iFutgcJGoJgChMIJiyINRB2nqlatOQImVwRY/UbZhyoAzi2gpVp1AhMpqeZ73W3AvwoSYPvdIoAR9K9yZVoQDAVDIVC6YPtNxW0GKxPjQcVrWYbTm3RIKiFCm6GxpFACY9L9oCap1CAwp5YG0o9ADDqpluNkoKFkY3VGKbh56I72DJ3VAoIKfzIIlJQQEvMErB0nbXKCGnmXr2Cg2YVBV80St0kGmFWk5eIQMf6gKtvcGK0wJyWLowD0iclktyN+SRyjUFsSXaBbNxGnmdFJgEkKs6LTZxbarytbCyvUELqCCTOsXiFQLCElMOCwU0MsgwYKYA0Zp9z1KnOy7R3HxYMzJJo+TAp7kHYdUbHBkrNBJgb1VgGyUtUTSZaIm6KCm8C+q72sedSZ0KYg3lOdfZA56uqnLvggUqgutnFUohcZnTXKIWFBZFnUbyb09keXDvnL4BNrTxl0VBCEBfar5BaGoEmbQgVy1z1LPUBz8lBkgbGqVq0ae9Hs4OZZTwpBDGJH470+wXATUSKkzj0WzCgoNo9B0lZUxME3KmKbHjktP+YbEk2jJQZ1+gNeIa1XpwWLrsW7ijuIEpMhymy2Lh4D56/Ro0gnVad7QGopTFtyDWcR34kKqnPhYY1sRjnprtKGj+EQWfZ7Jh5O21Mvk1tOONo47ZZXYB2hOZx1g7U6gob35y0BMqWiyJs5dHLVHGf2fyDRRP9AuTyifAkux3DcZ8EfzOdyegYVDuR8IQaQc/V7URrzVxi9AK+TeMJ5GJHCnA05s1RnkLhIZ948ckpG3f7cLwxeCT7zt3xfXHx1PSy/5wuL5Ezf/vn5700/XZSh7/AQ==);lineShape=1;" vertex="1" parent="1">
          <mxGeometry x="660.7881512134575" y="527.5092319746116" width="26.196445421031285" height="30.14617980162052" as="geometry" />
        </mxCell>
        <mxCell id="QVKKsPcWav4qtCk2TCpt-66" value="" style="shape=stencil(rVfLbhsxDPyavRKSKInSOU3/I0Cc2qhrB47TNn8fbjfaWFzvuAV62wdHEofkkBr47mX78LwZgns5n47fN792j+ftwF+GEHaH7ea0O+vTwPcD3z0dT5tvp+Pr4XF6f34YLcenH8ef4wq/JxyTCyMouLfpQxTK5c+Xr5P9fne4sM8UYm+fqdR1e+9JsgV8bHkdUCg6C6h+HRACJbEuVLBDEGLjcyXmdQAHitwBkmuHvA4o5BeABHaIkbjYI4msA5Int4hDBXFIhVx/pKi8oUAnmxks5PI6QDTSqQc4EsCSaJj61NBszGkdUPR374PP5BGgku9pLZRBKlWxJDnostp/5P6nPaP1dfveXmMAglY1L3tKM+UI7UtfOz6QAwR5pw4aRKGAXK6ttmYXIua02vLUtIjIidISeQakVk5rAKNJWn8BJJ6GzUgMYwGomVKyOzAKXCJZ+BAxwFfLEhKxGqmYOOgSQDEUIN5GuoDcGHfoj6TJlBGtyeqqlhP22dY/bCUaBSMwNxJJWmJeVDM6f2nLzQ5TRiGoTXxmlSeP7XOvRt6Rx+VsCLqhdyOg32EUGHwkMVlUcIwrhZ5TZhJcnMkApPW61aj1PvCs4v8JoGnQH0nbL5owSqTYs6TtN4FaEyWxD1yaNeo6INj+r+0XAfS3aYW6hIBIp2KLoWj1AKEfXex3KAWWj5KY+3JQBUH1P6p03xkqnj11DjPtcMxfAFABMnPYRcNbGyaXW0SQGyqiRgRGGUEt19t+qDpYwJEWE3flpoPXWbJzWw1UQbIGCtXaoyHG20TSemKwvrcTRpEW96v2rinWbM+wnJ2d8bT6GPCzmHiE4Yy0sM8Ch7bFefLM8N/5mwQW5oLPxDf4N/HSuwjif5EPUfkEUvSvN8jb9vrweV192u3302338r+93uqn6WrM9+8=);lineShape=1;" vertex="1" parent="1">
          <mxGeometry x="664.4386985844428" y="538.8250003938801" width="40.6741260493186" height="5.463031324874237" as="geometry" />
        </mxCell>
        <mxCell id="QVKKsPcWav4qtCk2TCpt-67" value="" style="shape=stencil(lVfbchoxDP2afdXIli/yc5r+R2ZCClMaMoT08vfVlnrBAg6TtwXrWDq6e5KH9/XT22qK/H7Y776vfm2eD+tJvkwxbl7Xq/3mYF+TPE7y8LLbr77tdx+vz8ffb0+z5Pz1Y/dzvuH3ERcjBZlRkf/8/4eC/vvj61F+u3k9lxdqPMhXKhnIFwp1kA+BlAFAqcYRUKjW2wAJVEeLjEIFFCRfUG7UCgDYsQ4AqdTkNiDlfl8HpEIRaMiRUhsAOVEFbs2NZCRdhBgAihmQxrgxjEMVkjwCKmm6DVCmMpJWIQVe0kp5TA01VsBLzY5HDq2QhtuAwEw8uqktSm+pSCPrpl3pdUClOrK2Kxiwbpm4eQA0yfJbPKCByKl2A5YKOvnhOiKRqFehIJs0ULhgnUDoqvoiNb8qYG3JFqsHBKShEgcfamkQ0FyoCxWc4D6ZrM6BBo29S5wBMshXLZSSB0QQh8a+u84AlK7iu6sBEmiW5pNLQEMaLK7Fu/VOybXLwAEvGaBepAaDONixd6vCvmEWs9Ng6Y0A8YKDFVAEkW4Ux4q7W6PZd8vZcUhFvFKjBZCoxjF6APKrVVCJ3q/ITZ8GlErBlRzDEVFCv2+ZKQluD9nasZuLCrtAsobvAIEyArCfWjaq0WyX2AtsWQasRsFIiZnK6CVbNxrQELTX/LLQKGUQ6RCJx1wSpozi0BkuK5bAMSo9qks5VNjHQjd3kcdrK/dqPG2tCsVdp48wTa0LO2vg9Ax+UgUSFF5fltw77PV865edxBMoAJt5XjygXuqpMtx25mW/eHnQ5ULymWnmoA2v+OcIwzyzzG/e/gLozsc+VgHFKlBxfR12k08/v+7K28fprfey2W6PT8Xzc/82tL+O70p5/As=);lineShape=1;" vertex="1" parent="1">
          <mxGeometry x="712.2862178570858" y="507.0653291864305" width="8.458953218705574" height="40.72537710048073" as="geometry" />
        </mxCell>
        <mxCell id="QVKKsPcWav4qtCk2TCpt-68" value="" style="shape=stencil(lVbLUsMwDPyaXDWWbPlxhvIfzNDSDKVl2vL6e2QySSq3EcPNcbKxV7sru/N3p+3j27ojdzofDy/rz/7pvO38fUfU77frY3+WUedXnb/bHI7r5+Phff80PL891i/r6PXwUf/wNeByASwVRe57mPERAv3OPAyAXb+/AJQIFBQgyIw3AAVSVgBOkJIJCKwAsUAOBoCBNIeMgMYKWTZAClAccF4GpASsSZcEriwDIkPWK6Bz4Nwygn1bJqmDM4QIBLEBBCBeBngPsSlTBDRYk5RJs04M0agrMYSklfOQ0VwBnfYGQrY4ULtCQHCGN+pr1P4mYEsHHL02AuomjRVmihOAgQ3ScxEvVkiGmapMTUbFLFbkJiNMVaLR8UuRc9qubAt34eZJajaVq4HRdq2higZAIqnLVGNrsK6hjzoQDN6QurYVrVxtPcaW+CoQc3O77b4r5YrdLKX5el2luUEvAsp/ABTBaW9kEc4gjbGtUnaAltJA2hlJQmvI4Ns+Jolyxv/FF5oASyc0CFw5VXqC2ZTAaRt5NPlGiDo7hKbt0I/lmM4GGk+L2xuiNp1iIoOA7Lfo5NhN9fok+fOoYmy+T0oAGcwXjk2/2w33lcv37QVFpobLjV/9AA==);lineShape=1;" vertex="1" parent="1">
          <mxGeometry x="714.8845765147094" y="563.8829552433897" width="3.2230755116520413" height="3.2248481794399595" as="geometry" />
        </mxCell>
        <mxCell id="QVKKsPcWav4qtCk2TCpt-69" value="" style="shape=stencil(lVjLctswDPwaXzEEQILkOU3/IzNxGk/TOOMkffx9obqyTUjeTG6yvEuCwOJBbfTm9fHuZbuR9Pp22H/f/trdvz1u9MtGZPf8uD3s3vxpo7cbvXnYH7bfDvv35/vj75e7CTk9/dj/nFb4feR1oVInlqQ//980avzvzdcj4Wn3fElgynkkGJlcJ7RO2kaCUqqA0EjKSGBitEOllAaCL9EVEAplGwlGGe2gVAJBKRdAYBIZCLVTA4TaiHUkFDIQh5qJx0PXRDVdJ1iPXrIyL7FOEOp9IBR3KyAUi2coQtKvE7JLbTQpFyoZEJh0jINiterCSyqUgTSkxsCJUUEEpjSq1d8IIHChNu7ARhUcmnk24ETwyBgQH6Vxgz7vuB42kjGh65x/q/BEaVQFw5A5nAOcIVzGYpGgb9KcVGd4BnJgsrg6A0fKEp6AI3U29QIOjMlUo+0MdOPlIAW4gipqJBwdiZKdSgxTApnr5bIGeIbwkIVMDdhe5hQ9pRRxQ44sEZ7BUTUeVaDtMhf6CzjQjDuiBTgqgaeonOFIYi6RmHwGHJliyffSBOEcFYnClMg0wAtMPu0BjuqkkC6yCZQlXa6egAjy3O8v4EBiZWmMALhRivAC4Tn6HdX3T8LZozhaY3B2YZ1dce4fCfUni/Ma43ydvDEa5D2xgx3c/XUM7lTnUSWWKPxpCTQntNmA05zAcKrNRhoGiwarfdEYhewNAOjfPF/CNPVBkW1z2buY1xiPkKH4WCYFhOaqD4SOB+0cW6Lv2RChRWlULD6/GliYzGUuS+sEjZH224CBdOiLxnu+oKwTLDb2nuZ2uU6occ7ouMf0Hgdt3xPdkJzQRy/5LU/RkJoWrcMZBpLat2jBpg4Twv+OF8kObZoupi0SDNR4J7BFQkOEGlNuchxSn8UzXDjumprK4tQdiSMvxNFhV54ELgs3gbrhBOmRkNGpZSXUaKj//EeGjwn+cP6m8bB7ejp+Ern8P34D8VfH7yd6+xc=);lineShape=1;" vertex="1" parent="1">
          <mxGeometry x="647.1234747579042" y="230.30234501422137" width="29.419708676269238" height="77.02031614270754" as="geometry" />
        </mxCell>
        <mxCell id="QVKKsPcWav4qtCk2TCpt-70" value="" style="shape=stencil(lVhJchsxDHyNrigQ4Hp2nH+4ynKsimO5ZGX7fTBRKIngqFO+jTTdJAE0Fs5G796fH962G+H342H/dftz93h83uinjcju9Xl72B3taaP3G7172h+2Xw7776+Pp99vDwtyefq2/7Gs8OvEa5GkLizh3//+aSTx7z+fT4SX3es1QUjySCgUEiAwxTISIrV6m1Ar5TAShJICQiZtA6E2igEQlKIjJIrA6NL8kSpTzoBgJo5Gl0RBbhNyozTukCs1sENWSuMOWUiBW1OhqAMhJSoMCExt9FK0IwG3xtjDdCacxbJK0EqSBoImaLSaiY7AFABBMtXxSBKhDRKojDsIw3wIhXhMoJApgB2CUHUE6bFfT6ApQykhJfn8xOmp1HhURd9uFc6TtTBxDC4OziBc7E21LGsIXpODawGe7yl7gQdwdqGsDs7A7zqvzihZ5tUDqHFWnyZTUXUg9qtnEFUroGPxsTABz0wSMxEAzySqzcELKlQkLmWJQVRjd8QFLgCuMxw50t5GDwemht53LnBUnthrJvRsvAEPxcETXJ3ZwQPMpuAFXIGAeRZwhMmnxcEF1WFSdnCkSPUCPtt+SzPi4ViR/jBIYqZ3byoKU/ZN0Pouru8fgbc+FJx7ch8D1sMUSEbX5N5y1/FKdcRXKkBk1i7d8W3HCkK1pJTrOAlWGztwcOWm9VFpXTtm8kgwH8GxxYYKV0NwS7YxqIw72JyjIAqx9RHiHLXQ021dconyWKdsVhMQBxsWwxgHW4IRofohO1sZB261ETiOXlqWADlsI3UYpWRLJCANG9p5msoZXRSaF1+NUHx28chO3bXPh+uE5ItoC70arBOyLxZ2O0LSaLWPo2dChiOY3ef8DhXmQ+CpcRijojO1PrVfXSKRmOx1mQiozNjryJ6AjLATt4lQQFIbQScCasZ27XUNcCGALmJxaqOYrjx9i+GK8bIFlp+7FC7RxwSXQkZAI7epc94hIqs//IHh/wR7uHzPeNq9vJw+h1y/998/7K/TtxO9/wM=);lineShape=1;" vertex="1" parent="1">
          <mxGeometry x="672.3385578101409" y="225.5114682051784" width="31.5867628806609" height="84.74816226492601" as="geometry" />
        </mxCell>
        <mxCell id="QVKKsPcWav4qtCk2TCpt-71" value="" style="shape=stencil(lVjZUtxADPyafVXNfTyT5D+oYglbISwF5Pr7tLM1g0dj94a3xajtkdRqSXPwN68Pt8/HgzOvby/nb8dfp7u3h4P/dHDu9PRwfDm94dfBfz74m/vzy/Hry/nH093l7+fbxXL59f38c3nD7wvOii0LyJk/lwfVi4//nny52D+enlb2TkIc7fGk7NsHcWGwL0U8sY9S3GjvJJt9+yTVDPa5SCbvL+LsaB/EpH37Knm0T0UiOY+1EtIIcOIcASDeeQDEKIEBovjxCwFOEZdt1l8ItkVhG1DFj0nzoX1zmxRg0fgFl6UygJMy+oAnltEu6CPBK0OcBpHSSCSLbxKnwaQ8HglR8MQePKhjVGkheNMc7Afi9q4ltdkbMYR4S4qqsi+Z2MPfMaIoNGIfjLix0mIrjW17J3F8f5ZEMhxi04X3+OdK7Es77irBnhwo4kAKEKQyKZoiBM5lUplpLgMjkficQNLRZ+cbqzYBGSRSSUs0a1C3MJYBeGhIlCCfika+C9S2oFqpCtAraRsw65dpTWIbUFpH6gBPNbhaMX4EJEkMMGlw6BK4DZjUJXKVr3VSeXQukgcA0hjWmLnTtb2vA660BdMFpSOqWNYL8YkxEQmvIPwGQGlq4qIEgO6eViIPkykaUFkiiqSpP9MBAFH00xdYIrLubQAE5jQSO0eJOZ11jSJxlcjGAogaYLkPYdSZhUwsrBB3xe/cUrkXVk2+JIXQFYAwASL/QvETgNeomlUjF9elRo12mpUcACXqsDI1rlWLKwDlSomO9RArVePlSKPTIF/iR1JtFPT2V8LqNKDwEi1jWJcSZTJTtLgme60e6gRgw8nHAdh7Jr2PjBquSW8H+DZAbXdFZFqxlQ8bJesBK4CtJEqlD7SrvlvZkTD/qJHYUB9yHwn77JBb3LYBXvJY056vb6k26V3NP5V8ASOZmh2WVYZECeUSFSBSqQQRzLT7sEk62tYNVmMl2xCRV7UU20L3txD0SGYTbbvLAjlmGrM088EXLTOY1hmXPIKo1zHWHrAuqVE6t36xt46p9aGrzt66V712gHns+q7QAZF2E0zyesWtHBC0C3iS2MrqNfMQBbYyYUVVScBsn9hMiXIbqQrJYEfCRqW6CVSMrX0IomoO6IiWEAnEVEsZStyxG5x+4dSZZOnaZ62ernKfhnYmb7Ejl4qja1/VeSupbQfbMiluuqRjHTe2uajbJ6p5XsvFe4/fuTQ0UduzYrZ6mFztKjsAdVeyzEGEdkbvSssoRwTStN79nw73sur2hZYBCKESkOkW03f4lb2l71fDNhLMCt/orQoLL+sHZiJcoLewpq2yK3t2/Wf0rTA2dpavj95qX7fHj/cr9PvT4+PlBn79f33ljkeX63r/+S8=);lineShape=1;" vertex="1" parent="1">
          <mxGeometry x="625.7187089335198" y="211.3472786077764" width="79.35118371329077" height="37.938444902356196" as="geometry" />
        </mxCell>
        <mxCell id="QVKKsPcWav4qtCk2TCpt-72" value="" style="shape=stencil(lVfbcloxDPwaXjW2ZcvWc5r+R2ZCClMaMoTe/r46pT5gHdiUN3LitbTS6uIVP7xvnt7WqxTej4f91/XP7fNxs+JPq5S2r5v1YXu0Xyt+XPHDy/6w/nLYf399Pv399jSdnH592/+Ybvh1wnGgEiZUCr9PX2KiyH+/fD4BdtvXC0BqxHUENCoKAJmSDICkpAEAIgkPgJwoJABgqm0AlEQVcGDuFDtAYmd1FZCFZLQgjRpwqQjxaKEmSvk2QNTnoRYKgEPNFMvoElMBLpnH2UXJAl0AB6WafR5qBGGtpGkA2JcALFgedIwSCyUgDVNrdhYsDEgaleoYJY4UAIc0OzCrtVJCgOI5mBwjkreQjnmIijkopdFCLCSg4jhRHhMXzSUBACOtIyBSAxxyIBYPqMBCzl39Fy4heedKJXrS//R7HaDUXJSsREFNl0Dq+lLCNR2ojlGaUok4KLFTq12B20x1AKsQ0DUyU3LyFig+Ni2N4ptKFLXK4sVnFgQBok+clSjiYAOlOAs2gRBAqIwczlfcKtHmAJkyyINZyC7T1nhQTbdFPUhvPLei5CuOu5PXAdmrdZrTqBlr73MXJSpA3hMg3AOwkaXOgsIoNas4F9YKu0bTxXxoJEAaKn51sBmHlpMYgmctpnjAWm1QjyVXFQNyr/kO0AC7cSvegs6D9dYqkN1KdqZ1PXXBtwEz0VArm9edGZCpIYHbAtQ8a7QLWEm2kUSztQ5wsILRxcaE9hnxI0hMLSAPi0ZmSx1qMwslWTuHfYx4PM+YsPk/BshuSIBvXPYY26OBQ3EeNjPjvlhfP58X5QknrvVEHoX9AYHWO9xMAM4qy0AcIxr60+P6+dQL93weVY1JlPM994s//4H/jYLeER9bDP2ohfFfvvVwfs+r8lxh+P7F+RjwcnHv4/M/APbj/NZ92e52p6fy5f/929g+nd7V/PgH);lineShape=1;" vertex="1" parent="1">
          <mxGeometry x="772.1755754866726" y="353.3637317980217" width="14.711398593343802" height="14.55542588127446" as="geometry" />
        </mxCell>
        <mxCell id="QVKKsPcWav4qtCk2TCpt-73" value="" style="shape=stencil(7VjLchpBDPwarqoZaZ5nx/kPVxkHKgRcGOfx99GEWoy00IS7b8syPaNHq6WdhTy8rZ5elwsOb4f97vvy1/r5sFrIlwXzerta7tcHfVrI40IeXnb75bf97n37fPz9+jRWjqcfu59jh99HnASqeaA4/Dm9yfXfm69HwGa9PQckkmgAKVHtAFBJqgEUoZIAoFEtBtAC9QIBvVmAUIsQkLoFVCoNAAp160OPJMiHRJktIOGwRmLrQ68UgUlcKSUL6BSA0yzE0QM6MCk2ajYPMQQKASASFZ7ZBLgRZ+xTrwWcoE5XH9Yq19enC3nLYL1QCp4YDTjA1Kz9LVFg4DB1u39hqiAHur/YYhNoj/LUElvfIFLEStXSTlOSUelkH9FIDSWsU7QkwhRqmRq79Yikms9qPRZoTy+UbEQbRRBQJTA7fwVKxVmNnBCdCjqiUbYk4kwZATIFm7Sh4sCmpoVutUL1CZmk+lms10MBQd3U098nQCUGml2Dz4Myq2TA7ETN+cDwhBJ8GxnqAU7IjYpNnHK7gmKeA2Ke4nbVJCd3U2Ku+myDlCmiLGhQrcRHqI4ja3Z9oAiKf9Aiu/UJ2D94Z4uZYXwGsW3KCmXA63nlxDgl/b+Ls2KTZvXPuP6HwFieapIjVrBmTRKhDJwYEukqoZCAah4a7PTiNJNdBfR7ANqV2CYuqWyDWpOZIt1ohJ8z3ueMd8+Mh/J2YcbrwJ57Zzzx9tc4yfiV/V3rzGHSnIvrg1ekMZMB+2eSp40T6UugYu1RAWNQyzz1pLOZE7E6+fhrxNDIqWxxTSRObe4q4RzgJqXFSoVObILaSPMuKyADSnwMEmcmJfRdkbw+jjAjQPVlqVugLx1NanafChpopI933xTcBujDx8XEy3qzOd5rnP/vLzL01fESRB7/Ag==);lineShape=1;" vertex="1" parent="1">
          <mxGeometry x="794.1713042653607" y="356.06594891407485" width="8.209892486769832" height="9.16207925673325" as="geometry" />
        </mxCell>
        <mxCell id="QVKKsPcWav4qtCk2TCpt-74" value="" style="shape=stencil(lVjLctswDPwaXzEEwec5Tf8jM3EaT9M447ivvy9UDxUDktbtzVG0IgHsLkDu5O79+eFtv4vh/Xw6ft3/PDyen3fyaRfj4fV5fzqc9ddO7ndy93Q87b+cjt9fHy9/vz1Mb06/vh1/TF/4dcGJUOcJFcPvyxMOJO3vk88XwMvh9QoQO9VuAZkkAkCmmgwgJoodACKVbACSSAIABMp2S0mo8TaANYZqADlST3CFaLdUmCIKWihHC+hUyjZAAgUbQ63ECFApNwNoTAEEnSql4gEFxJDLSOK8pU4JAEqmHiwgUarbgKplEpulQhHEoDkRy6XcKQoAdGJbuBxgHWrzbE1MCZCvZh+DRGIUtDLHZkn1EIDiNK3RFo4bRQSIFOyWYh2SWq+0lskpLlNCXCq+DilSBVuS7ldIqkGwQlwUrggFJFFlqxWQ5k1AHVSiza1QqANqqAmIdY1SIZd4ISAFCHA+VtdY6IFBWtWrfdBp5G0VsMwqD6Nafb9RthFkfQJC7hSs7eU8vHkrgOIEHUdD2kqRU48KugF9ahGS3ZIyL6EtderVAxhRVSg1D6ioXxVv3Zmh7WkZunMxGWa+1U3EEknNHPmkLFroDWONc4gzk9T2kD6rN1alKlKPumJfiAFxNfKg5pXcMtgSV+ptAUDUSJSr31JB+uTx76ugEb11SGCf1QT03FbKloHpaXdz+iw39Nzd94Uq9Jf/e19r5rQjM9c3aWSLPLVb1HnysNy5GebhOeu9jb3+1RGQOlMb9jADImS2ttvsPAw2T+VAdQuMJGyNVdX1f0wK5Zh9v0KStu6nYTVZ2HV0grEpnbo1cJfe/XwhszI2+ojOzy6nkRooc6/jmHM1LyDH66plN93OU9B6mpIfw/QJinqali1A10QTiY5Ezl56gXLL86Q5AzqcPVPylbvK9LreZIz88xIN6k3bp1g29QSj1vMmWxNTQjKwbQ3R7kgJ31HQ3pN0xkfdVonhhrBKDTSqJVUb3E9YDCRtZGC9BBScRdZhOOusGAec+X3dIWw67NSMpTZ1QatmLSFUcx0n2Q9DgncS7I+2asBoeIl+FmE4EiojxDIuYEoXf5gPt2YjN99hjS3vYAJF8H1hfxsRxtlnS8NujGd8ukujQX7kv4N8ak9230/wuCkLhmZ4XTP1fFvfOs4xW/t3Z/j5HLOVH3fRcePS7B9u2fTHxx3d0+Hl5XLFd/1/f6enjy73gXL/Bw==);lineShape=1;" vertex="1" parent="1">
          <mxGeometry x="824.9159253828102" y="345.7820541032743" width="17.161890886520723" height="20.43748071308778" as="geometry" />
        </mxCell>
        <mxCell id="QVKKsPcWav4qtCk2TCpt-75" value="" style="shape=stencil(lZbbcuMgDIafxrcahACh67b7Hp1p2niaTTppuoe3X3m9To2CtdM7jPlASL8kBrp73z++7YYY3i/n0+vu5/h02Q90P8Q4Hve783jR0UAPA909n867l/Pp4/g0f789Tiun0ffTj2mHXzMnAiITFcPveQYFCP/OfJuBw3hcAwUCNgAxRNoGaoWYG6BGmD43gQwltkBdzuwCXKG0JwgB5m2g6H6lBRgwbAM5gRhAIDknpABMFvi3RReIBao5oUJ2AEzAbeAkQ3K8lKGGdn2A6sRN/5ooZCAnbAGIm/WsLnL2T5Bbe5iWG/UvHIFrA2gYxQH0BGplUTLktA2okMWc4JuUVcjFAuL4SA0o1ZokjpNYZWHuIFAcpVZ1aysL1hlHqZpb2MahhuVWfYAhGKAAegUAF11elYeuSYyLE1fSFgfIAtkAFSo72stWfBjCcq2+NhAo2YT2yh7WG5sKFM9NQK00JELy8sEWbg2MV1bDTdj0Ss7+vfXJ8RAG61OKrrZRhWRaTwZ08lM7k40aAjolTysAtj5ltyRRsEU4uSWPZGkzV4NAPNmpJtoaefVZX9fXFvC53hNp6az39mdezF3ZXx2JFtvK05IV/bdCtInMbtfULlxuA+wEYJW1aw051evr753/Azr4fF49j4fD/Dpb/7fPMZ2an3L08Ac=);lineShape=1;" vertex="1" parent="1">
          <mxGeometry x="774.1185265030626" y="402.2925863004059" width="3.0243524871270893" height="7.334140324737064" as="geometry" />
        </mxCell>
        <mxCell id="QVKKsPcWav4qtCk2TCpt-76" value="" style="shape=stencil(lVbLUsMwDPyaXDWWbPlxhvIfzNDSDKVl2vL6e2QySSq3EcPNcbKxV7sru/N3p+3j27ojdzofDy/rz/7pvO38fUfU77frY3+WUedXnb/bHI7r5+Phff80PL891i/r6PXwUf/wNeByASwVRe57mPERAv3OPAyAXb+/AJQIFBQgyIw3AAVSVgBOkJIJCKwAsUAOBoCBNIeMgMYKWTZAClAccF4GpASsSZcEriwDIkPWK6Bz4Nwygn1bJqmDM4QIBLEBBCBeBngPsSlTBDRYk5RJs04M0agrMYSklfOQ0VwBnfYGQrY4ULtCQHCGN+pr1P4mYEsHHL02AuomjRVmihOAgQ3ScxEvVkiGmapMTUbFLFbkJiNMVaLR8UuRc9qubAt34eZJajaVq4HRdq2higZAIqnLVGNrsK6hjzoQDN6QurYVrVxtPcaW+CoQc3O77b4r5YrdLKX5el2luUEvAsp/ABTBaW9kEc4gjbGtUnaAltJA2hlJQmvI4Ns+Jolyxv/FF5oASyc0CFw5VXqC2ZTAaRt5NPlGiDo7hKbt0I/lmM4GGk+L2xuiNp1iIoOA7Lfo5NhN9fok+fOoYmy+T0oAGcwXjk2/2w33lcv37QVFpobLjV/9AA==);lineShape=1;" vertex="1" parent="1">
          <mxGeometry x="771.3290345225219" y="387.43843620042094" width="3.2230755116520413" height="3.2248481794399595" as="geometry" />
        </mxCell>
        <mxCell id="QVKKsPcWav4qtCk2TCpt-77" value="" style="shape=stencil(lVfZbttADPwavxLc5Z7PafofAeLURt04cJwef1+qxsoi5YzRN1ne0fIYDsmNPLzvnt62m8jv59Px+/bX/vm828iXTYz71932tD/r00YeN/Lwcjxtv52OH6/Pl99vT9PJ6enH8ef0hd8XXKyU44SK/Ofypmfq/O/N1wvgsH9dAjLVZgFMMQNAoFAMoEXK4IaQqdgbqlBCgEjV+lAqdWBSYOJgAYF6+xywClJWG8EFmZKY86lTAB4ItWrPR0oFxJSatV8KhQQcpm7tF80ZPM/JnI+JGrBH48nmfMD2MBVHOqqCwhns59PA37a+eQIxJZAt6cPY63kG2So82DWHkxr4vtI32HQ1YsC2lilb+oQ0vnAT0Dtll69KAuKvgGYjpBkQ4HJv3gXRsu4AkChZk0RJC25ofTByBgh1cEMTYqsrorQAUarFR2kCAJMqk5SVSRUQI4+YLJyuINMqO94kDSsSFk2crRxNXEQmsTdpogaIUom+Nic1A3koZZB/IRaofGoc1TgDBAPaymntILiAhD0Aka8HisGbVIAiTU1SvNOog2gBdculWKiCPAReiarKBmo60xXWJlV5FCZ1ojl+R8gNDZNXAYEmaSKC1RktuQToqqmu7AEFAeIQugUAjSNK17oq6ghSrQWRHSDAbjWVnEt1p45K7n8BKfka1X6bUYfLQ1VmAFMFRS3zxLW4gUFHuQZxURBohFFAY+90A2HVvGY7JKlXBZmUB3PmsSGMQfE2oFKybE0Nj23dS19Wp8ENOtYVN3gyHGWSKpkNq/JXQE1PFlu9r4EaiFKOgznzcMJDR24D8vjeDJjHj9uASmxvUOGJIKy5jA1kBhSKwOmcVwDc5HLyQqbiiUQgh9EOZkAfO8RneSjsAUiMNdOuBSmgI2qEIb3XmsZzqyg3Vk7cKTnHbwWgTUz7h+tZGteKFhkd/C2ZNHPIa+2B0UqfcgPtetPu5uJ6Z8G9vxHrw3WfftkfDpd1fPm/37/11WV3l8e/);lineShape=1;" vertex="1" parent="1">
          <mxGeometry x="781.563599111045" y="383.5985129774556" width="8.652492512025447" height="28.793279723434352" as="geometry" />
        </mxCell>
        <mxCell id="QVKKsPcWav4qtCk2TCpt-78" value="" style="shape=stencil(rVbbbtswDP0avxKSKOry3HX/UaDpYjRNijTr5e9Hz3MSSslpC+zNUXhEi+diDXzzsr57Xg3BvRz2u8fV23h/WA/8Ywhh3K5X+/GgTwPfDnzzsNuvfu13v7f38+/nu6lyenravU47vM84H6m6CRXcx7wSSOTvws+5fjNuz+oDU7D1HgM4k6sWUCil6wBh4mABiXK8DiiJSrYAoeyuA6on1wAyVQ8AkQrbIUVi1CFTFgPguMztMqCSRAOIiaRcB3jnyFkikiMPxqQtXDGAzBQBEVXnapkrgjswJXtqXakZMFcXno4AfckAAEJRWkAG6iueuAEk8oCInFuqS1l6XgYIBdtBt5AKANw6LkVoiB4gKmDGr5Ss+so3Dx3ycqovjtVXSqBDT5x6tKIOnTQ0BRIYay++4GFs9PJmRwLUOmnTAmJYBv1Vj4pAV/cxkCq2XBc0So18EmU2XTUNIwJ0Yak9C6K6j+PTHP4TQjrB6uQiUEfU+I3tKZBg+RimZ1kmiGw1sX2lXJbAvQg45vuR6rTo6/IRiO3+yVMF+4fWcZKwWsnZ0IiVArCDo2CFFFVIYKKdF5jJgxRzy25n39wKvg2+rdePOjpvWPLnJDqoiNjWCzHwjTa39GoaIZu1tsQG0EvXP9Oe6gMQz3eveZ/X68PpTvkwbjbzlfT8//YOqkvz/ZVv/wA=);lineShape=1;" vertex="1" parent="1">
          <mxGeometry x="778.5883167136426" y="393.81452801327873" width="12.109922113762195" height="3.777780072301084" as="geometry" />
        </mxCell>
        <mxCell id="QVKKsPcWav4qtCk2TCpt-79" value="" style="shape=stencil(lVfbctpADP0av2pWq73pOU3/IzMhhSmFDCG9/H3leuyyAg7wZoyOV9LRkbSDPH2sX95XQwwfx8P+++rX5vW4HuTLEONmt14dNkd7GuR5kKe3/WH17bD/3L1Ov99fRsvx6cf+5/iF3xMuM2kZUTH8md4kyvrvxdfJfrvZndpHktjZc6AQAUAoO0CllgAgUcodIGZqBQAyhdoBxGJAJ2TK/QlJKFYAqJS0A+RAKtcBhUlCD6gkIIaSqaYOUCLVdh1QE4Wet9JI83VAWzyeAfYJRoDqs1QVppWDVUIftQoJOEKVmHtAJgFHaCLt06SVGDBnQWhffdqoAJdqm9O+AJQKorpR7oM+ycPlamrE4o+oQELJfKo+iAZ8Skwp+DQlvg6QQlU9EQUBMiWXV4FpEnPABc1UAHMpUulPaAo1Z5JMfW00oxrwUILvG1YtDfBQA2X2ABSDaa5k7xKDNmAhut5nbyISRCZ1pRGogaB10fACsESDRjPWphNEwoAy52QBFDhSzOPsSqNRBMXX4lmfURLAQ7UhdyZq1Cytf7uhZYCGxiJTZQ9gALCJk51LFZa3CcjHUGBpmERdYzLiBJTGwwBbFVI/g5o1HlAa3OacLCMlwxg4+hlUdB7Fl5mm0B9QEpy7QtXN6TYzf9HexNWTYMQLiPhsIt7YNMKcvztXGSbuv39jVzLl9FK7sYyZt84eb3syK/2+bTJR7M0F1k+ZuVyinVv+5cbiGxFDbtlWqr41BriCsbXm4OwRtxZtK84e7Qli00MfsS/zsnWfP+msyeF4U/bFj/OZ1Ksd02VSin1+cDU8fHW5aW8P/+9Jb5vtdrpmnf7v71X2arqTyfNf);lineShape=1;" vertex="1" parent="1">
          <mxGeometry x="812.1392136817315" y="388.01295751266457" width="5.499513776042022" height="28.79099064640036" as="geometry" />
        </mxCell>
        <mxCell id="QVKKsPcWav4qtCk2TCpt-80" value="" style="shape=stencil(rVnZbhsxDPwavxISdT+n7X8EiNMYTeMgSa+/76iu7BV3PUGBvjkOZ1e8hkN5F25eH26f9zt1r28vxy/7H4e7t4dd+LBTPTw97F8Ob/i0Cx934eb++LL//HL89nR3+vv5tlv2T1+P3/sTfp5wrUjwHaXu1+kblZb/fPHpZP94eFraB3F1sg9S4nX7WqS1yT6JY/Yqmib7LFWv25ciGif7KsURe7jnJnvvJNTrgFylzQfyXmoigCgxz4AgsRCAG887A5J44nPKEswbEAUG8FLMGxo9UqwS5yipF9cIAFnVGaBSPQE4aQYQpZA8hCzZHCmP0toGeGlzpSqcJonTYhMXVByJEko/zbUdolTSPOpss4UilfiAvNYyASLyEAgApTGHNUYJDBBtlGKhPgDg5iihulgD9eo3ALyTUIBfUUyqtFoB+OvimTPQotxpP9dSTuObbUCSYACV1hLyUGdaKjgSi1KVPDtdkigpDTRkmEujgPl4tboZUJ2kd/phdroGaaSnA95gAIU2UGjizZEajVKnmbmWmo5i2WY+Z53GAEuMKpMk8wbwEumHrJLm4mtZEokS5kNoFsDoPmdLMy0N8rw2smpdAUjHoTZdXB2JJA5TtK6dJtVa4ioPRTw7UpSsFlD4G6I5Em/RElaJa6O6rkXJSBkAWAPltgFg5Z3L0FIXceJGT20jkiVXvIL1aAYbewvIrJj8GMsLgGdeu9Evi0TQMLmRp0WqG3PajaG5ACh7g1p1gnLNTJJB1K7qW8lEQR4M3/eWY2+oo+eXAJK4Au2Q7JEYuaJHdcUzkfiAhiirKDXWQXFQ6SIPiR0JAFNLlYYVRzJqHQCmTuC0pe82ptj/AcRz9S+OFMiRolp5j7Ay0RfqkHiL0oikRaF0i8l0GFvR9mRPdu42R0sDYsOUd61U3nc5M9NMlwJM6SbL9/WsubYBOkbaQp0wH7DnFXMkT3mpWpYpja+WNqjYTSuxT7YuoPgacSCszqODEraTZvu/6wKmWW3ZgdQC6WYnOvuLUcFUhrPqMFXaaW61BuTRq1fs01wQKdDZ6WzXYJFhosdbxgYVBLbHWLLDZsWEoVr6jVxuR9E5ntiplakLyWa95VcraBijCsNZPFxdDc0+7OgO01liPlLfOfgOY2pa39m4i+S5qBFm1vTgUnvN4AaVbQOwps20Aq/oRUa1TIctnwkqlIFptL6089sbI7a90n0YjWJmWidLUhqpjEvC8wARz+SR2v0ZeSGFgZXHqNRMCwnS3NwaRk7V2W7biAB5PiaF8ZdTHYadSZmjG1vzQ45e7JXZq50FjmrBtuIKvlZAcJjdyNFrp65o7PPZdtcFvn0+o9Ku+mx82NLSF7No409arC9N83n8uEe7Qo2rYeZpweEF5gaW31v0HcsQHRU3Fw16sS/M/l+v/d+1x4fLbwz3h8fH008Uy//b3yTw1en3jPDxNw==);lineShape=1;" vertex="1" parent="1">
          <mxGeometry x="755.7486632605267" y="344.0286992748745" width="23.66589762264698" height="82.02730567687672" as="geometry" />
        </mxCell>
        <mxCell id="QVKKsPcWav4qtCk2TCpt-81" value="" style="shape=stencil(lVnZbhw5DPyaeSV0H885/iNAnPVgHTtwnD3+fkuYVbtJddcgb3OwWqJYJIvqS/zw8/HLj4dLcD/fXl/+fPj7+vXt8RI/XkK4Pj8+vF7f8OkSP13ih28vrw9/vL78ev56+/7jy7Acn76//DWe8M8NF6u4MFDB/Xv7xUm9/fD5Zv90fd7bd2lZ2Xup/tw+JXFJ2UdxzL5J0vtJdD85SC/Kvs4Fj+2z+K7smxRH7KtE/XzvJDQC6FK0wz6IJzsqQVzTgCSBAZJkAyiSyRmVKsH40KQRH6oTrwGIciIr1CUKCPP/vxwDiqVdKJKI07WLdxrQpBNA89K9Jh58iASQpBhAlEao2qp4nQoRXnUC6JIMoEkkK3QvUZM1OYmVAKKEqgGBA5K0qAFpEv4YsLm4AYoEQo1e598boEonp9SbeAPoUkngAOiaGpmztSMOOoFynOw6A3R9ShlVifjgnRNn9oQcJXTFElV7nRutMwAE7UTBmvyYDL8LSjfjRpWik7pEyYyuZdatDZC5D2nm/Aao3AewWQeiNKkscs4CUNsCy9E2i/UG8LPjHQOyFJ0QNc6sPQasHStJJ3RtqMbGh0KTGs+rmnyjepKkxiFmXZjeq+cxAH9r8qF6ZnJKo+3qLTXep9NCPlRPRj4IE0NvVM9OuDTagd4S6MhOCUrElO9RDAm90Zaj2RLYSlbw2eb0yHJySj7Oxr8DFOK09xKcBXSSQG3RGu+l7TjStlSOBYgLRx4wQemXMHeJ5PnOttDOtc9SuGHPGqKTpDsuymZjIZsM2NmzchFn79vZsxJZxBsKFWmsuszd7uxZVwCD0gJorBfGGc+dB56tkCUtgMwAxWp0xMyxPCtL0Daen23J+tCp1IOE99UCWPnCkGAEMQAsbn1xoc+afMKLtiY+sU8HpaiRvA8L7zaVdZI3BydK89iZPEDISB44KzsHJ0gAftfeL012iG9CCZyQjZifc9lx5jvbPtACGa0xy5sYt0KVM7R+MyskWkyHsDZdmTdZjM+m3EGKREbTaOd/iJ3KpuFmpQj0F2s4UEdOt3EoPMfkFGStBhTkMol0bfMQdyqV9UwovGi0/FahzjSkN1p+G+SOAThW3QZx0IENt8myFZqPKTzoYKMscqeNti01FRMP6wsgs3F6zFTM6TJd3I1tVOxkK80xGDL9NcS/pkbe9MkZwIwXGG47O1boar2l1CYdzyJd9ZYwoGfmdJh9ZncFUNgA42c33l0yMFlbNwW4u8aoxIc1gWKjRaAukY6FshU1ouqMi4mOqqNGmLubOyNSs1Nb4A0RGWxK5bjK5ENYMCskGmkUY6PN0ZOYlsyLCPCd3jRmNyfZDcC1HsY804HQV1k+jJZl7p8DlZ/gpr389LyLNhvpRtvDII4urfne3GkKZZpN9Vg3VHuFEaST/eBxzThM++Gq9Py8wT6zNzeAXiLhBOyjM/asGYZkr/McveLBcZsJxtGb5JFV3dgHtv/lcsTRqT8ul+d8YAYfTArcsY92PLqzn4UPbtaNY/vlhtfNe48z1fl7b5Du2uPD++uqb9enp9vbrv3/9vUWfrq9Gouf/gM=);lineShape=1;" vertex="1" parent="1">
          <mxGeometry x="836.161812076069" y="335.58151733036334" width="19.231460639812894" height="98.31637389030698" as="geometry" />
        </mxCell>
        <mxCell id="QVKKsPcWav4qtCk2TCpt-82" value="" style="shape=stencil(7VnLbhsxDPwaXwlJ1POcpv8RIE5jNI0Dx+nj7ztbYzcryh4jxwK5OQ5nJZHD4Wi90ZvXx7uX7Sa41+Nh/337a3d/fNzol00Iu+fH7WF3xKeN3m705mF/2H477N+e709/v9xNkdOnH/uf0xN+n3BFtEyg4P6cvkhOgv/3zddT/NPueRVfpYY+Pkpul+O9k9QvkFVyJQAvWjtAUYmBAkrqAFXFZwpovgM0L74QQJCgPSBK4wBvVsji+aGLWQGF4Yf2BlA5wIkaQJsfcRbQbBkQXxwjhvZV8M6JI4AioX4IkCXEYUeEqklCG06cLsdHiW1IKYlXqSZD5Up8cpYUrNXUtmZLND9Rav/8WiXQfKa+lUuRRPZTLEcz8k+6oInr65WdNC4VvqdQ8rTAUxP0bRaDKAcYqdArUhHE9ZxAlhNr5GCL5vNc9kuA3G+pSSNt6QdWxLks5+OTFWxH1RSPy2riGenCwoElpbNYnid1mku6sI6SCBXNfQWQgUAAmF/ZVGAh4nlAm7tkXWOyQi6SDaDRxi9p7qsV7QJhUQ2Scg9I0sgKdRH/BVAkkrJhgGnfnFopTwGIZViBdX+08qjoBFIHqFtSe+jKtpTtyAFA2QoYOUNamUJiAPhhBZrWOpdpXTjSbhhJttKZjlkA2lDpTKgxAfoGQqWZY2tjR/PJD0AwkuSoSCJL5tDRU9FA4YqzgMTOgCRWC8hkMoB8xhMCoOzQabaMq0PTtA7CirRWVrholR6FuwKIfZZAjcoOHa0Wg3yV1WGwVAA4Rm/8e+i4SAYuAGMDMZMEatRhBVq4arn0PpIu0VsHIYscUNXWgXvzZcauSs2U7OOIWiwgKvVK1dlKTB1ByIFrWvZ2S0wscxr4ygdvypL7oTWZJebooRu9WAZ+W0VLar8lmAclfNXhLukjNdFw3b7fEmwvm6PYQDM3dH5/rrYMnjs+ANxgWQtbAVmNNqtMNgAwNyv4H2YFALDiGqSyq0O2W0qBcg8A7bOUPb+cJLtCuXKbwYDoqVQaddIgjtGZmma+f76W+Hwt0aX0P3otoVZSG8weoYTOgrt6nUclWLxpzEg9SRheSCZ6P/Q2P6lQ7+nsdTLpbIIuxJvBDOli+3Hz6VZvSVj+3eDOGxUuZ00h4h0TCXuTjLzlBxGapjThZ7DzD/HMfg38RzwzOjDBbXg+cyHWhMTFgl7QB6NYyE8k+YQDzjb/7GXBR9/gX4/Hh/efCx52T0+nXxvW/7c/L+Cr008TevsX);lineShape=1;" vertex="1" parent="1">
          <mxGeometry x="546.5749056999489" y="168.68750621704794" width="34.75127680489368" height="30.515562781803283" as="geometry" />
        </mxCell>
        <mxCell id="QVKKsPcWav4qtCk2TCpt-83" value="" style="shape=stencil(lVjZctswDPwav2IIgudzmv5HZuI0nqZxxnGvvy80KhURlDbJmy1rTRyL5ZIHuXl9vHs5Hrx7vV7O34+/T/fXx4N8OXh/en48Xk5X/XSQ24PcPJwvx2+X88/n+/n7y9305vTpx/nX9A9/ZhwXcjKhvPs7P/GVyvzk6wx4Oj2vAD6Qrx1AHOW4D5BAbgBUAAiJpt96QMr7gJgoZguIfh+QMjFbwP8gNwE5Ukm2Si7tA4onjj0gUAWAXCi7DqCdkQJyqORLD4gUASBWSt4CBPWhUDErZPIOdLpQ6HPwQh5wSZjq0LgCcvCRch9SYEogJA2A+xVCbmTZBjC5vnFRKPE+YGpT6AApkgM5cKLSh5QDJUA+rTr3jSsM6a1Jl57eRUMCSYtvAawADFYIwVZpWiEA8mmnywAAjcsK6HWphPZkGxA2VhAEyJRNlRIFUKWswth3uhTyIGltE/c5VEcBTJwCQk+N6uE8FB2XfuJqJI9kRlWjT7rmxt9tgLK173QtVAE1slDtuVS1bgigu4GzACSVqt6GGgoQwCUdSMk26QqSTkJxKGsFI5o8RVNWVQ2k3iOAyQNqjCEp+WAOQ9Ilw4kby6oDlNAADY0rywx+kBqTzABtncjXb7s6og4BBnpr0hE0bhygUmHjNkcUOoFRBAIFVKXFfy2A1LzBB4VMRxQK2SCVOkBojxvFmJ37pHy/h1C34YagKghK1CZmC0BCMzmwQWgiaJ3u1DHYwiJAoWTej+3JdkRtg1qTD6S8VHBlBJAGOGtCdQIFEIOtM1HVQdyW5ioWr5RgB9Tn9OMcHRa9we0JBVCfav2nciSC/2dPoQ9oOgcgs5fswUFrADvsmolfeeiETks8mD1oobUibDx3K/K2EQut4u19jRDtbNLOam/vw8H3zX+8vQ9HRg+P3sTPyFPpOamfGT31gPqo2BpxZNeebAPUzxtAgkeMlbCtSIGcpy5hdintuoAi6RaTe2ER7NqKWPnVcxK0edJYsBo1tDWrgfHBAlCj9QQgcQCg4ye34+wKgKo0XVyYFXwTtL2znuGqrllAlThawQsOWiSWttWvAOgIzYuZWDpd4V6ubK6GS6U5xT2A2Wff4VJtGa5E1YG+Vds2CW3Ed96vhttaNPC+JpDMAr5dGG0DmLKpKeMmiNVg3RbQvsPBhjRlhVZIdhgUgFTp09d0HwDoh7dbwYfT09N8qbj+3d4i6qP5BlJu/wE=);lineShape=1;" vertex="1" parent="1">
          <mxGeometry x="575.8555465788047" y="170.6307521012708" width="18.995646796064193" height="24.071393845501007" as="geometry" />
        </mxCell>
        <mxCell id="QVKKsPcWav4qtCk2TCpt-84" value="" style="shape=stencil(7VrLbhw3EPyavRJ8P86O8x8GLEdCFMmQ5ST+exez4WhYnKmFkRx904M1ZLOrq6tn9xLefbn/8Pnu4u2X15fn3+/+evj4en8Jv1y8f3i6v3t5eMVPl/D+Et59en65++3l+evTx+vvnz/0lf2nP57/7E/4+4pL0fjaUd5+u/6lBBPcP3/59Qp4fHjaA6xxngE2nwMi/k0Ab0o5B4RsYmJAq+cA30yLMyCaaAUgmORmQDVOAFwzaT5S9SZ4AcjGhRlQjBfX6qJxcwzNmaSCtuMSN4CVQQdnPB0pjz2PAcW4NgOCcSJxyHS287U2kxWgmTjvUJIpgkspGU87OJmHjFuayZezCU0AkokzNbKTt5TbeN4A4JBJHAlkzjOXcA0q07gTl2dAMFHtkLkekMp/c38MqFzTnSyCSwCkOWifTNA7kMygpJoCFJPnPLhkrCggBF3ma3VWygyutRKXTBDcg6aQjkFFBDEgi1Q+UDGVNehkpfVBP99TwLJ2sL5YWu/VeTYNHevtuOGz+wy8Piha53Hdb+udOk9h0bbGao7mxuvV85upgc8j+FOtqXz+KO6/OpYiPEDcZ+8ws8A7yQes5wIwVSgdzpOp84++e7aeS9gNxp5dUFlKOKkTbQndKgCPUCLRjJ9T4PMt3SLthdBVVTRQRgJAmLRutTloiLUsszJYsAEgrjoGOwedwsjMGYBaWirDzpwBKjVNJ61Fz8McQ46mqiM15l6u0kSCGpksXhgN4qwa7GLxgqI3njcHjUeoxg+75RdP2AS9m+cuC4Bq/C0y+QCIaofVdfohOseAwhqGa/AiD60tR0JbVLfUBhF2AGXmAWi0Q7oFIJ2Er20i062yiYQ3V04B18ruv449zxJHRhgAZYRBjZQXgIphqYd+JJHp2kaadkFnJcZl+LPdtcp+VYYp3SWuqgZalqCjBmwVvGNrUy2xseXpE4ziEnSOuOSHUh0DwgEgKkDikafvIIQMJRoCx2A1vUtlgDJuKCDq08iDIp+zS6NGqiVd22iaOzJlJRtLo+5s0UrmloJQVuCHAfC3TNciOwpG07YkQg5Jy0iPnqX4XezyagUFIeQbw2qZ2Ye+qybDDpiDxoCsXHQHkBVwMnEdMFMD7kRRowPmoJO+1ryoAByWqtEOmKkRtWysALjEdONIMzXgQ5XTBaDOO8DpynEY1JivFV46aQB5aXdjpLdsmNyNAdHxe4wsG/vPAfrnAP1fB2hi9P87QAfOlx9m4Hh9NH6Wd/BfryePhwJTk2F31nPCXBwpOQYk4wnQ5DgMQKASSzpnkcdhCJ2MITAp+sCtbsnza4mIiUTTjpxwsrIdoG5oqkp56P2ZUKQZkPUnHlB3Vkb9DiBvIe4av+JqqmzA+pAviid5bmnITBT9I2YOug8ECmBZHjHUqFfCIfKb9qaD9pULCJOcF0H7paLhQ5XkucCj5M4bH28xJpzdDsp1Lk4bs6VqOpBEx5eq3movPbBrgmpSY/bYeNRkLTjP40vZZPAY0NhWoDqUTOJI/C6pjEcch5xGG9gAeUxAx0yNPLMBUEXQyQ2jsjuS8oMQFNIkAJTzh0cO9DFVlc0fAhAXiVGve1PjcR6ApjTJskwicao3AECvVbppVTYbjjMzQLpmu3yS7KSlSo1ferwNcWcAmiKLl8qNPDjHAOVqQQ3qoCVIxUiJPzkrej768a8A3Abgh7dvHHx6eHy8fmFh/3/+hgL+dP12Q3j/HQ==);lineShape=1;" vertex="1" parent="1">
          <mxGeometry x="596.4728616058255" y="146.2157513472705" width="23.919068498783645" height="48.46637958202825" as="geometry" />
        </mxCell>
        <mxCell id="QVKKsPcWav4qtCk2TCpt-85" value="" style="shape=stencil(lVfbblpBDPwaXq3dtffi5zT9j0ghDWoaIkJ6+fuaogVsOFPl7XDwgG8ztld89/788LZelfS+322/r39tHvfPK/6yKmXz+rzebfb2tOL7Fd89bXfrb7vtx+vj8fPbw8Hy8PRj+/PwC7+PuMzE5YAq6c/xTVGS9O/N1yPgZfN6CaiUxAG4kTYAGFS6A0inpMuAkml4QK3UEKBRaQ7QhCQvAzjRqA7QM9UBAJ2aD7oPanUZIEIjO8DI1PsyoAq1AEiUQdAtUwkxVBoI0El9pZvFAILuQtWntfZZmdsApeJjkEqFlwGWE1XfS4UYNN9gEu/SoArKYPbKPgTqIEejxgiMHiiATnk4+0xSgL1S8zVIVEAJtFDRYJ9AY6vMFjjbozZV899TrVAG8eqI1JTp4G17peHzb1qB/FdSzzOlDvJp9tnHmwtkvgXcfANloY4AlarviNyIcck0/EOfTL0NSLHGBwBwyZqut+gS6iLr6lZj0JA2ctXWBbvEVFOomyCe8VSec18ghTeHuv998xDpRIs6YUqDMjSmOJ95U4HSaSa+4iXwx3iZarBnAfY3/EcFM16yzyfPtl3iTUsh/0hXcjrFdxbeDhL6aYBFEGhjgIZT1L1USMH/IKTeo2pFRuJVYlPXQYKmgRJ7rWinOi4RU/w46DydXBqYKcy/BLc122uSb2yTGwWd1Cwn3iWTTAatIUopaEXCZOCrIah4meKTyyeAwLFg3S9+7BjBkR6Z4tYR89rRFlziWOh4vxtxW2s2adECGQla81T92w5FiZcEl2xbLn0j2eYlwP8rOltRULxpLn4XZ0UC7LSN3LO59Mm+hXiH98cULIOW4Hi12CaYgL3MfjnZyzxjbvMmsqBgJvc40A72SO7iEWX+oDUkpzlQLwJGIzxbRkfMKIOI80luL0qGluvPn5r/B9jD+bJ92ry8HA/jy+/jJWyvjlc03/8F);lineShape=1;" vertex="1" parent="1">
          <mxGeometry x="620.7727028189611" y="172.80936115293287" width="19.863930525179285" height="18.935259985463404" as="geometry" />
        </mxCell>
        <mxCell id="QVKKsPcWav4qtCk2TCpt-86" value="" style="shape=stencil(rVfLbhsxDPwaXwmJ1POcpv8RIE5t1LUDx+nj78vtQhuLWo9boLf1ekcih8MRtZGHt93T63bD7u1yPn3d/tg/X3Yb+bRh3h932/P+ok8bedzIw8vpvP1yPr0fn+ffr0/Tl9PTt9P3aYWfM644EplQ7H7NbyRQdn/efJ4Bh/3xCpCZnO8BniLfBsRKyXUATlT8bUAoVGsPEBIQkiSS1AMcBRCSRuxzn4MC6m0AZ0rcAYLSUAAgEPc5xEgBJM1MHDpAyuQTABTi0gFypIho5UbiAkjkQNJRbKUV4MEOSYjzsANgqRSbtOZQQUhVWR9ySKDSNZKYkAqFAADZiq94YlCHWikagDYQyME7Z5NQHlKEW/i+1MrDnSS4l6vykDMABJK+1HWR1zrAtfUWQKUMClES1QFQBQDEylVDKoBXdTLfi6kmykCuOVMxAIFi+tDaUjjNAdRhBaANASo9hlS4Cfhm0rHXd4WFG2nVPT0w17FwU1OjhlBpFAvgO+JjGxIq3ChvpYGBlsYGUhoiyGGtRzMJ7lFjA1V9AydhjEZ5yKipByvTJSIKaTBLDRKKabDjKx7+E2I6I5INqgKeIlONFlBA7YJvvnJtTSBtPftdGXgCPeRrq+xVJdAOhZyJiCmBUjtKRq6+rXDje1PoVNsK6wm0CW8ZTnKzkXVKqfTK01kCWXFtBrHMY4UiEIUP5Pte8LENjevDj2+aWTJo5r9eYrEmhlUaQpPYElA7INdFGtsIvDDUKFvvgkTRHD1QcTq0mO893kBdO/eS8wXOn9rJsW8zVXlAnqoM9pQqp6gvJz/sOdKZF85uWmQDCJSQpbKdABhPALpD6ZNWoaKriQKMVYjDnV9t6wjDm8bkqH0rqHbvVDr0SesFrqBJLDQhLIDY9lwH6AgSBgCwi3++U/4FQB8+rrAv+8NhvgFf/2+vvPpqvi7L428=);lineShape=1;" vertex="1" parent="1">
          <mxGeometry x="642.9537099287077" y="177.29917452552638" width="15.48594515064724" height="15.190938420225166" as="geometry" />
        </mxCell>
        <mxCell id="QVKKsPcWav4qtCk2TCpt-87" value="" style="shape=stencil(lVjLctswDPwaXzEkQYLgOU3/IzNxGk/TOOO4r78vWA8VEYo3k5tsaQUCWAAL7fjm9fHuZb9L4fV8On7f/z7cnx93/GWX0uH5cX86nO1qx7c7vnk4nvbfTsefz/eX3y93/cl+9eP4q7/hzwVXiKWDUvh7+aNWyuH/P18vzz8dnlfPx0AtzgChUq8DUhi3FwBTFgCopHkGBOJ0HcAybg+ACAk4Ui5UZguSqAALpVDSCVAqtXYdIJlCmwFMDAA1UZ6PlJViBgClOlvIiRoIqzKVGcCFhAEgU54BSUhBWGsjLTMgUEWASDwDolJWEFZzsXoLDVgoMt63ANqw+T4gjagvUWrQh7xxur8CWQjj9kI+JgXUsPepK6BECWS6qE+cZSaiPBQKcwFpwuSrVIIHCCggO0B1FhgWkEbKPAOEIuhLdgCXabUKQfRO4/YAtEiCLcTZQrMKAU5r8IlrAjNtNd1majTzAXDJWq/MzbgZHYEPNY8grgANZdpioh6A6C1tc6QKe6vo5kjWbSMAVGJnIcGB0gGOfA2OLFHfBIx8CqLUnZ4zbc2zoMRFqvPYNXbBPGRPvjc6XqVG8wAGUbIS9U2Ax0y6Ru/mSrTAOW0HSHPi1EY9yHQv0TkPLZCgIxkRXAHZ1EMWbAI5elubwY1MNiWK2Nrl1BxWKyBIjTyIsAzFECjgov4koo8UF9gCB2/eCCDFI8WmZtzOIJA6EyPsNFmhCo7E2WfC5h5y2gDO6T67kYXlAAsgUkI+1MHORTwkKE/yRguYHheUBx6Tf6WYUMMvdmKXByhnZFFsiwE42K3zOaH7AVerJ1KAUt36qDuPRQCcpyUfIB1C4v3nrTznnhSFEtx/FgfXOQOsaJuJaMTKQAZYC8qzzzlDKWPCJcwA2zYC3gUcs0uDFnqLmQGCnbbb7HgX4HpiK5bMYa04StaSnKTs+wfwwdZEt/X1lQgAjDrRccleAarTuOxFq8L6j8lbaAErk2F/pVlRoosXMv15FKMhN9cDF1RD8puGYv25VfUK+10YG+pKMTB4/6afmiRBAnpTy5rhlhFGb1iJKiQ9gxcwXTSB9hV9fo3TkHFed9oKUdAMHDW4+tpTIX8+93Xo4+ft4u1T1MPh6enyJWt933+6sr8un7349h8=);lineShape=1;" vertex="1" parent="1">
          <mxGeometry x="655.8861807069384" y="172.94039015003364" width="22.381496290110363" height="19.462926820981465" as="geometry" />
        </mxCell>
        <mxCell id="QVKKsPcWav4qtCk2TCpt-88" value="" style="shape=stencil(zVjLctswDPwaXzEkwRfOafofmYlTe5raGcfp4+8LVUPVhJyVdWlzk2WuCAK7eHDDd6+7h5ftJrjX8+n4dftj/3jebfjTJoT9Ybc97c/6tOH7Dd89HU/bL6fj2+Fx/P3yMKwcnr4dvw9f+DniciXvB1Rwv8Y3haL8efF5XP+8P1yuL5Ritz448hgg3AHYUYwAUImlA0RHw08AKLUHCEkFALFnTkKFISD1Z9A9BZhUHInrADVQLQAQKOYOIL654TrAtzBNAG6feM9LuQ+cJIrIrZFc71Yp5EHgUiVXekBtfrsOUC8ZgDravQ+ITL4HeOfIAQSnZvKtCOU/pzVGKf9DXHNsHynwGscKZeOmhchRNd/H1EhUV3EvWvlURxXYHyiZFKMZAOjTk+8jkDVkwJ4poBf6z2D94NCe2eqCDNTJYqUQ1KOY2cVkyQCPkLnlxAngqSD9p+byix0SCHLNVv8aRwYskkgl9AAlFjBJdRJmmR5JTaYwTQDGJmWbYThDbdba8voEEFhLSqXYcy8qG1EtycSGfAHWw8SU0gwAuKQGWIAn5wFbvS3RrNUqAT1ESjO3eqAH5Sb3euBAAsin3DReGjSIUkZpYbogXwJx0ESfey/pqZDiYrbkUyOhpqUR4VKiqKZ7m4cDpkblmZcYekmCbZU0kaE4aGXyfaoPtbVn11OxmyVXDXUA7NNaVvpsr6FB2V6u0RWVH5kJYgCAHVTU3JNpoUCUYvuMhQo0ZONVJa7E5sQba+gHbRDNDssNoukoP0SDmFYh/k2DGNc4dtbP/OcGsbTdb5x+amt1bhyvxIpnYX4Tm2EWBkSxI+vCBOqdzcMLM64CzMi6MEUrIKwZ0722CD1JU+PI9fVsJ1yGHvLFZpcA7dG/TTPpKYDvD2WpLzvYoZzsjIRFrD2XaRcW1kvrDW6zJ6k9bsV5tb7YXgFfw0QrGRyvrP1UL2HMh9XXQovr9eHvHdTT/vl5vMK6/N/eWemr8b6L738D);lineShape=1;" vertex="1" parent="1">
          <mxGeometry x="695.9217727160551" y="178.71961847518605" width="4.455922320978061" height="17.101055455434675" as="geometry" />
        </mxCell>
        <mxCell id="QVKKsPcWav4qtCk2TCpt-89" value="" style="shape=stencil(lVjLctswDPwaXzEkSJDgOU3/IzNxGk/TOOMkffx9obp0RVDeaW62pBVeiyWgXbp5fbx72e84vL6djl/3Pw73b4+79GnHfHh+3J8Ob/Zrl2536ebheNp/OR3fn+/P/1/ulieXX9+O35c3/DzjJBPHBcXh1/lKZCrtz5XPZ8DT4XkFyI2aeoAqACTiNgISJb4OSJWSs5ApFgBgCnUEVMrhOoAr8WiBmQQBmJKMAEsDAMRGnAdAEmoghlgopgGQpV/ZBmQfgyTKyILdHutQrNIRAv7mpANqoFhh0GF0qSaYJS6kPAKEGFXamBM9AFlIVqYxrbVQBQDLenVBG1lA0BJ7u1wASgwsSKNURkAjAf1QxNNbA2SrZd0DzElgwW478ilTBtRoZqF5gGQAEEpjWtVeAWJoU4tqpgT6oannkpauI9uARnWsgyo1EEMMobvcES1SFWhCRp9aJkF5Vc+NVjqBtwGFyihM9grokjngLDRSVAjuaV8BGrJwEYkVIIITxdLumtqKX4BLVtjmYpCuz9cATo0tqgK4MQPUsoQtOJe0UkQWtJ+BK37DSof+vlUHoaCXwrkYrEdBHRZqqAdALhn5incJcsmCdsIkVFDQUwNZ3gJwaatHAylquUkGTNzQsbgIjaNrgaVulwNk1aOMohY/MS15QIWYBH+Vh6sI/RDCjsE8tXUGYddIWnzYiOF2zrU45QlUQupkocBa2+zqzohFONCwG3vXrwScAcCmPHExJDhO8+XMWQECAtiwO2kZisEmS8+mCIesNgmNwqym3pErFYjg+dBHi9UMJ4AXU0cbUSqYyIKfc0VhzWJXxcvkjbvNohsLkLlLyDZN+y6yWgVQ4yjl8f22riCRtP3LnZ9LCpBITmO3jfoKLFiKnEsKVw277TTVMgQiXrpm1Ba8aMwrJdaueWcNPaDtik1LcYDzs4gf2wI8B6X4fEa4EZvQpebyGZH/2vflC+XggWPPux0mw43Enm9jvQQq+/x8hZI1+6M4n1O8MUARnRMaI2TcRsUYUm6mhAFgTj/6IeY/APbj33efh8PT0/mz0fq+/05kl87fmNLtbw==);lineShape=1;" vertex="1" parent="1">
          <mxGeometry x="698.9591101899812" y="173.67741484416717" width="27.128637356182253" height="21.53561121560324" as="geometry" />
        </mxCell>
        <mxCell id="QVKKsPcWav4qtCk2TCpt-90" value="" style="shape=stencil(lVjbchoxDP0aXjWW5etzmv5HZkIKUwoZQm9/X22pDdbunjRvG+JjWUc6kuyNPLztnl63G+/eLufT1+3P/fNlt5FPG+/3x932vL/o10YeN/Lwcjpvv5xP34/P179fn6aV09e3049ph19XnCSSOqG8+/3vl0ou/f3l8xVw2B/vAL4S+xFQyEcA8JTTAAiJfAYAJs4DIEYKAVsYAUkogiOJs0fKTMEBQG0H6IBEidcBoVLmAVDUq7IOiMr6SGsJjYZFQFILbgQ4EgDIQlWs0xkBelx7HAplQGvW1DAATw4ELvdU66kRySNAWUi+CGhVp+NowWcqAmjN5EZavYMsxWRziSMlIKAQSAwgQD0ERzVYAAMfJLcwdYBACxJt4JibV8sAsVWjQpLEN0p67lEE8tH9nckk8mh9aNv1vCBG6xOVMjoMK4zqv45551oQl0Om/LBZ70B90YqYqt0fpPVUXrw9P6ouqsNs+QHnjyobZ/lHIhAqY7w0vng9j/tXqMrIJMZfpoLqb7GEqgQERSBajyeRgWIXZpROMkaaKbNCIZSQjKMt2OwbDWuqKeZIDqaFyjKPMtCSj9cXmxYVl4lqZQnLRLLFl1vpW6PUpJ2jhGPGyaxH/emj67XbOMtPAXyWPqbcRbgAA9VTGFNCGRUEiJQNACutzjtsblpdBlQrHG1wBQSZnZuxJLA6qgkZ0zQxPlO2UkuaKSBRlaY0Him/E7lq54pS4Limo04dAbVP3muDCJsW5XATmabkUf5KHKP0Dk3tHaB6BmdS/ZvIVYYWuLY2fDfVosZZbEHSORs1Ku0CY5m/zW+L6+epl5vFlf2NGqLDg0hrAV0Mvk0Oy1G2c8J0H0Pi0YJoGrmDJVs9iKMHajOjq463ep4A6DI1u4ho86+o1XJrex1QSEBNmqYpM8TjO6omdp6xBAt9tI1NmDw6Ug9TByhvyEKiMPpwa45rAHM30nkAzRfT1cn4kFoo12g1Q63gqU1z2Zu3ggKvzXpzCd4C3mnoFlCh/j/8fPEfAP24vZa87A+H62PL/f/t64r+dH2Zkcc/);lineShape=1;" vertex="1" parent="1">
          <mxGeometry x="725.5613424689798" y="174.98816075813204" width="15.463864879375478" height="22.935839334415732" as="geometry" />
        </mxCell>
        <mxCell id="QVKKsPcWav4qtCk2TCpt-91" value="" style="shape=stencil(lVjZctswDPwavWJ4gAee0/Q/MhOn9tS1M457/X2hqnREUN5M32QZSxJYYAFqig9v+6fX3RTc2/Vy/rr7eXi+7qf4aQrhcNrvLoerPk3xcYoPL+fL7svl/P30vPx+fZot56dv5x/zCr8WHEcqYUYF93t54yny3xefF/vj4bS2d+RcZ59J4n37WKn09t6TywCQqfoekKgiQCJfOoC6wOhIkXLtAYVyAYBAkjtAZAoCAbl3mj9wOpLrj8SFioeAf1FvgMTkkA+Jcs9zEhzWSjH1RGugA8gMT6nfIQsVsANnij1xJVJ19wEptJjcAIUiOJK6aJiujmK9D8iZQu9DVWYA0yUQmx0SMThSDVQNQIgB06Jh7ZkW3RMw7d1QolKoAidEyBtAbZtuA1KL4g2gSwAn1MfAFpAAEVVVyFsA8mEmog/TKg7bXMchsEKC0i9tADIAsHpdhjAhcb3lzpoIVEJsS0ipFlSkeSCiQClLjqo5UqYCfEiqpWwBqEhVVkQsAElZYZI6AEC6ag3nYYcAiNOa8wMA8TDHZCg5JPhz5iQLQD1IAWVIDRRWPZIMANSpZdBv3ZMB05UH2ZDWu7eJS229dcWB5FM55rFEQVhTbYmwAhTUIXzraStABD5oAbG3YYVdjokHcfWAh20A4CGquhunI6wHHR7MDqrPSDWChrUnTrscUuPArVxWfZQRwJH09aCdGsmM14rrS1RnAdRR/NB4ddoQVHFtudU4U9HsQLFnQYUNiYy2n54EnVYEZJ63EpNu9bdp76zozSMlyIphavhgZnVNpNdDMYinTl79ecKtU9zxN/aVOb9BKWQ1e743oBHaSoV3UIzYTty5ld222Fmd8K3zbotpm5+aucNibUvetX5yL/k5G3sGuTOHLhl7lMte2uD+bo9yR4PpxNqD9TU8XKw94jbYwd/BWtFL57B+QJcjsUOOgzO5lpLY8yB101u5mes8VPT/vsV/aK8P758MXg7H4/LFYf2//cSgr5bPE/HxDw==);lineShape=1;" vertex="1" parent="1">
          <mxGeometry x="757.7950415086661" y="132.4798867269925" width="4.712936026121497" height="65.99773278818304" as="geometry" />
        </mxCell>
        <mxCell id="QVKKsPcWav4qtCk2TCpt-92" value="" style="shape=stencil(lVfbcttACP0avTLLsjee0/Q/MhOn9tSNM47Ty98XVZWixfLJ5E22OFo4cIAd5O51//CyG2J4vZxP33e/Do+X/SBfhhgPz/vd+XCxp0HuB7l7Op13386nt+fH6ffLw2g5Pv04/Ry/8HvCRSbNIyqGP9M/nCjJv3++ToDj4XkNiJRaB4iFQgaARFo7QBKKDABKpQfkRrXdBkihlDpAZSrlNsAcaH0MVamCoHMg1Q5QCsUAAI2Ci4GJAUslUywdQGTmbRNQhWqfODsShFDtgN4+UwAR1EraO2SJ19v2jSn3FAWqIActz6/f7ZE/aq+Ts4/AHxVfdouD2/aVuP++EQz4V6Xx3bokqAD/OSzxzQCrOeSQkvSEsmCGKqWeUc7U0Amm9N4jbsQgZ5aD7JqFUgbKbGXO0VJEOMstUlB/ggCXaiNxaa6zMG7pIItnSSIUWnO0RhKkNKHcV5ISI6UlKuyUqSjkQuorNYKIWyDpv88Ugf8tkXil/ZfGtn2jIs4+IOVEqtH5gwaIFmJXRJAfbVfzAyrThNb679u4AfPJ7F3n5WWIfgIAGDWdufkkpjMkG5N+f0JqpCjHllLXvQrWWZxztJBk/RQASvT93fKugNZU/IBatcxbi4IXWp4b1HYPblcz8wOAOeAWBYY0JWIn5TQX7/YBvt1JgfbBN69x6oDmdTVzGE/9MHeG9cwBSWPPj1U2o92Ocs+PwmVzWUVXOw5aouYlbskWBdQoKPbOF8qAy1G0fuInVDzJB1vmSbJtb309OPfRUmrVrH7OQLkE74+Vd0HJYq8vm3wo4s9fJj4G2MP73eXpcDxOV5/1e3/Xsb+me5Lc/wU=);lineShape=1;" vertex="1" parent="1">
          <mxGeometry x="769.6780676122955" y="180.32047362478113" width="12.047978318084233" height="15.94649746499283" as="geometry" />
        </mxCell>
        <mxCell id="QVKKsPcWav4qtCk2TCpt-93" value="" style="shape=stencil(7VnbbhQ7EPyafW3Z7fszl/9AIpAVIUEhwDl/f8pn5WW7Z6glEhJC4m0zmfKlXVXd7TmkF59v33y6OWj4/PT48OHm2/Ht0+0hvTyoHu9vbx6PT/h1SK8O6cW7h8eb948PX+7fnv7+9Ga+OX99fPg6R/jnhItRSpsoDf+enuiQEf5/8voEuDveXwKS9GAAqUhNBFClqgHkLqUQQJM4DKBGiZUCcjSAFiUoBRQ7QwegUcCwUepjPfkRoBUDGCppUECwSxpZKpuhSsgWUDkA41UL6KJsSUlCsoAhmYU1ilpADEECIdNYMflZwObgriypyHjWnrOU/pygJikuRPzUVLrl0RVaqFRLoyu8w/qt1tpYNNl9v8qw+61VGlN/kGpZV1QimQCsa/bEUltD7AOGdLtlHGInR5yiNKt+DetU9mMUPABDKFlSzqLW8nKV2AkAtLN7qIGGFeN152BKAfDcYInUksRIAE3UMqMmUbaHtNLAxaYTC2v36k915ZZ9bWKLdkmQd2Ribn7TsUsiMyBvqKX35C+ZocF97MFxO+rYgpXDmYz773dp1o+gD5ZtB8ZzQQ2SSfIcSM92BpCxE4cZ5+x9VvRYJrsPGIsGZ+rh5Fl6/u7pF+mWuTamcDbZM5UDXN0JrrcV6X1Ak+SyZ6CbQJjUKhRHMxgA1HCpBGZOBIcFpOgBTHAgk68AwgrDPqB6hU4+MnrDZSyZ8KQzQN7kK5VCojRnsAAkrESoMffgnLJSLs0ouZSYJTIFBW8a04uJy8yTLh6QiQuAS9HNwM17snWzh8Y0Cj04jTZa90zFuZMOSyE/LepEvXX6hqUrzpJuAkW3A8CZeFxdlQ6NFmYbWPFGcqw1wXhRNwDG743hzyVxfrdNp8GqGSgoNR9WVi89GwBFuuKkVMpvcK3bmi8rbeBa2akEOvFKaN61JuifWDVTh7c+7TSstXjJoZoZhK2oNbJl6ywSeTXjJFeKZMLWAnN1fXFe/N2vyIZv1ZGpK+t+8iLCpURJWFOS5Ewg0xlQvbjqHk7G6hkAoiulE900zrXaJZVIzwHFvzMyNAisugc3tfoZmAnoxmbALhYlVJ2uacLBZbKk33U/waq+X3M/wTb9937ij7ufUL/+3mh3ot6Q4PyJtbkSNkobpIxJK9pnKZ8d7Qfrya670mU3u++HZQwXWYQ1AWHVgef3Yclk/ZsiLKkMwrewLjourj4CiSfs2qXNQa9KtncxjXYYurnsQWlB+e8qZyiI8bn4u2c8YecLl9uMz/jf12ov3md8G9525w0ciX8MPoXrlWb72ff51wH48f3zwbvj3d3p68Pl//3nBjw6fapIr/4D);lineShape=1;" vertex="1" parent="1">
          <mxGeometry x="781.2381123115592" y="179.4095168940902" width="21.710468484069224" height="16.459953196785136" as="geometry" />
        </mxCell>
        <mxCell id="QVKKsPcWav4qtCk2TCpt-94" value="" style="shape=stencil(7VnLctswDPwaXzEkwRfOafofmYnTeJommSR9/X2hulQFSF7Xx87kpihYkQAXC4De8dXr/c3zfpfC69vL0+f998Pt2/2OP+xSOjze718Ob/q04+sdX909vew/vTx9fbw9/v18M1lOT1+evk1f+HHEpUJcJ1QKP49vCtXy+8XHo/3D4XFpn719jMQJABJVC0iBYgSASCFYQKfaTwOiULMrcKNSISB0A8iVWDDAbqlkErxCtIDKlDEgNQNogSreUrFOt0ahYUD3AMZhZetD69QRoA8XB6CH8YltQKOYLCBSAeSLK7L2hAHsw9r1DQIEEvGACuit1ORL7JVo+ZINZUoXeZwoyyqkGThM8aIzCyPZ/5EUgYL19wzrgs+02nEeULfxL50EpEGhZL+fO9Q7GV+btUW1AO2nUrQOs4YYOKweNBtR3SOKKOsRWJc1aH9IuE2h1Rlo4jHgRIlDSWZAGbTaJnUeLi4AAnxoTFysDzhKyrLqotRhHmiauMznTgn40ItfIcuQp21Ao+Sol6mBwtbFa4vGrSHuqQ8ueRJ1cHCi5+CqiMDiLOLlQlQuAJdiWCWoMBUQ12kJqzCikUZONBIbV32TATf0e8V6LaoB4CA0ru6odZMNrKAnxzZMizhsIyql1RJIh7UM5OKdQB2D6rqrhVKpI0Dw5FC6CCK4uhgtANNPAd2xKQx5PpWkTvs00qg31CRluyXNwo5koPuTU0BEdI2DnAtAAictc9Ivt4Toqt/rK6eRDMwVZxlWtIIKjeNSGidzCuA66IkaoIoqN4uNkpIPplyl7JK6w5KiquLOQQQ29RqT7IrWuRxto/NaygDwumfPPsHNj+aouLiqlOEMWoslUteLAS2PsrloEDNweio5rqYUCiCpdXBxSV3baEC2u4dGzR51abBU6yzVrA86vxWgZHWlZFxHkdnugFaTibYbqLbn5vtE7RwbIB/POT9vKcEujpmizSDGZVF37HQm8+DvqdHezRraCGY8qWe7Qj07tPoOSIZX70Pr+9D6Hw+tF93FBD/9TJc98Puu2k63SSA+KwXWyQT1YdFLSy7UgL3OJSs5zUi7VuLY4GhV/dwzZSmqs76f14xAJUrG6c/+YlEJnv88ArBtH33zn8alwLZ98joaRwC27fPwbtgHfN9ZqAdnD/fT/JUtbqQmlfb7QQ3t5F73+wdlQ8PnLnnmD5wqZC4fE+z51d5NnLMCb9urols+Z5iOF9+xn7XXh78X+neHh4fj7wHL//sfAPTV8ccDvv4F);lineShape=1;" vertex="1" parent="1">
          <mxGeometry x="809.7693945296467" y="176.88969084981488" width="17.077834596572757" height="26.55728774001875" as="geometry" />
        </mxCell>
      </root>
    </mxGraphModel>
  </diagram>
</mxfile>
